<svg width="24" height="24" viewBox="0 0 24 24" fill="none" xmlns="http://www.w3.org/2000/svg">
<g clip-path="url(#clip0_2143_968)">
<path d="M22.9091 21.8182H1.09091C0.801582 21.8182 0.524105 21.9331 0.31952 22.1377C0.114935 22.3423 0 22.6198 0 22.9091C0 23.1984 0.114935 23.4759 0.31952 23.6805C0.524105 23.8851 0.801582 24 1.09091 24H22.9091C23.1984 24 23.4759 23.8851 23.6805 23.6805C23.8851 23.4759 24 23.1984 24 22.9091C24 22.6198 23.8851 22.3423 23.6805 22.1377C23.4759 21.9331 23.1984 21.8182 22.9091 21.8182Z" fill="#FCC85E"/>
<path d="M2.45419 18.9818C2.16486 18.9818 1.88739 19.0968 1.6828 19.3014C1.47822 19.506 1.36328 19.7834 1.36328 20.0728C1.36328 20.3621 1.47822 20.6396 1.6828 20.8441C1.88739 21.0487 2.16486 21.1637 2.45419 21.1637H21.5342C21.8235 21.1637 22.101 21.0487 22.3056 20.8441C22.5102 20.6396 22.6251 20.3621 22.6251 20.0728C22.6251 19.7834 22.5102 19.506 22.3056 19.3014C22.101 19.0968 21.8235 18.9818 21.5342 18.9818H21.2615V9.16366H21.5342C21.6789 9.16366 21.8176 9.1062 21.9199 9.0039C22.0222 8.90161 22.0796 8.76287 22.0796 8.61821C22.0796 8.47354 22.0222 8.33481 21.9199 8.23251C21.8176 8.13022 21.6789 8.07275 21.5342 8.07275H2.45419C2.30953 8.07275 2.17079 8.13022 2.0685 8.23251C1.9662 8.33481 1.90874 8.47354 1.90874 8.61821C1.90874 8.76287 1.9662 8.90161 2.0685 9.0039C2.17079 9.1062 2.30953 9.16366 2.45419 9.16366H2.72692V18.9818H2.45419ZM19.0796 9.16366V18.9818H15.8069V9.16366H19.0796ZM13.6251 9.16366V18.9818H10.3524V9.16366H13.6251ZM4.89783 9.16366H8.17055V18.9818H4.89783V9.16366Z" fill="#FCC85E"/>
<path d="M1.09079 7.09071H22.909C23.1691 7.09275 23.4215 7.00174 23.6204 6.8341C23.8194 6.66646 23.9519 6.43323 23.994 6.17649C24.0362 5.91975 23.9852 5.6564 23.8502 5.43397C23.7152 5.21153 23.5052 5.04465 23.2581 4.96344L12.4472 0.0979819C12.3065 0.0347626 12.1541 0.0020752 11.9999 0.0020752C11.8457 0.0020752 11.6932 0.0347626 11.5526 0.0979819L0.643518 5.00707C0.417197 5.11018 0.2329 5.28753 0.12117 5.50972C0.00943997 5.73191 -0.0230157 5.98561 0.0291815 6.22877C0.0813787 6.47193 0.215095 6.68996 0.408171 6.84672C0.601248 7.00348 0.842092 7.08957 1.09079 7.09071Z" fill="#FCC85E"/>
</g>
<defs>
<clipPath id="clip0_2143_968">
<rect width="24" height="24" fill="white"/>
</clipPath>
</defs>
</svg>
