<svg width="25" height="24" viewBox="0 0 25 24" fill="none" xmlns="http://www.w3.org/2000/svg">
<g clip-path="url(#clip0_2419_507)">
<mask id="mask0_2419_507" style="mask-type:luminance" maskUnits="userSpaceOnUse" x="0" y="0" width="25" height="24">
<path d="M24.5 0H0.5V24H24.5V0Z" fill="white"/>
</mask>
<g mask="url(#mask0_2419_507)">
<path d="M23.4091 21.8182H1.59091C1.30158 21.8182 1.0241 21.9331 0.81952 22.1377C0.614935 22.3423 0.5 22.6198 0.5 22.9091C0.5 23.1984 0.614935 23.4759 0.81952 23.6805C1.0241 23.8851 1.30158 24 1.59091 24H23.4091C23.6984 24 23.9759 23.8851 24.1805 23.6805C24.3851 23.4759 24.5 23.1984 24.5 22.9091C24.5 22.6198 24.3851 22.3423 24.1805 22.1377C23.9759 21.9331 23.6984 21.8182 23.4091 21.8182Z" fill="#00ADEF"/>
<path d="M2.95419 18.9818C2.66486 18.9818 2.38739 19.0968 2.1828 19.3014C1.97822 19.506 1.86328 19.7834 1.86328 20.0728C1.86328 20.3621 1.97822 20.6396 2.1828 20.8441C2.38739 21.0487 2.66486 21.1637 2.95419 21.1637H22.0342C22.3235 21.1637 22.601 21.0487 22.8056 20.8441C23.0102 20.6396 23.1251 20.3621 23.1251 20.0728C23.1251 19.7834 23.0102 19.506 22.8056 19.3014C22.601 19.0968 22.3235 18.9818 22.0342 18.9818H21.7615V9.16366H22.0342C22.1789 9.16366 22.3176 9.1062 22.4199 9.0039C22.5222 8.90161 22.5796 8.76287 22.5796 8.61821C22.5796 8.47354 22.5222 8.33481 22.4199 8.23251C22.3176 8.13022 22.1789 8.07275 22.0342 8.07275H2.95419C2.80953 8.07275 2.67079 8.13022 2.5685 8.23251C2.4662 8.33481 2.40874 8.47354 2.40874 8.61821C2.40874 8.76287 2.4662 8.90161 2.5685 9.0039C2.67079 9.1062 2.80953 9.16366 2.95419 9.16366H3.22692V18.9818H2.95419ZM19.5796 9.16366V18.9818H16.3069V9.16366H19.5796ZM14.1251 9.16366V18.9818H10.8524V9.16366H14.1251ZM5.39783 9.16366H8.67055V18.9818H5.39783V9.16366Z" fill="#00ADEF"/>
<path d="M1.59079 7.09071H23.409C23.6691 7.09275 23.9215 7.00174 24.1204 6.8341C24.3194 6.66646 24.4519 6.43323 24.494 6.17649C24.5362 5.91975 24.4852 5.6564 24.3502 5.43397C24.2152 5.21153 24.0052 5.04465 23.7581 4.96344L12.9472 0.0979819C12.8065 0.0347626 12.6541 0.0020752 12.4999 0.0020752C12.3457 0.0020752 12.1932 0.0347626 12.0526 0.0979819L1.14352 5.00707C0.917197 5.11018 0.7329 5.28753 0.62117 5.50972C0.50944 5.73191 0.476984 5.98561 0.529181 6.22877C0.581379 6.47193 0.715095 6.68996 0.908171 6.84672C1.10125 7.00348 1.34209 7.08957 1.59079 7.09071Z" fill="#00ADEF"/>
</g>
</g>
<defs>
<clipPath id="clip0_2419_507">
<rect width="24" height="24" fill="white" transform="translate(0.5)"/>
</clipPath>
</defs>
</svg>
