<svg width="24" height="25" viewBox="0 0 24 25" fill="none" xmlns="http://www.w3.org/2000/svg">
<path d="M14.25 10.1562H18.75V11.7188H14.25V10.1562ZM9.75 16.4062H8.25V14.8438H6.75V16.4062H5.25V17.9688H6.75V19.5312H8.25V17.9688H9.75V16.4062ZM5.25 7.03125H9.75V8.59375H5.25V7.03125ZM14.25 13.2812H18.75V14.8438H14.25V13.2812Z" fill="#FFC760"/>
<path d="M20.25 2.34375H3.75C3.35218 2.34375 2.97064 2.50837 2.68934 2.8014C2.40804 3.09442 2.25 3.49185 2.25 3.90625V21.0937C2.25 21.5082 2.40804 21.9056 2.68934 22.1986C2.97064 22.4916 3.35218 22.6562 3.75 22.6562H20.25C20.6478 22.6562 21.0294 22.4916 21.3107 22.1986C21.592 21.9056 21.75 21.5082 21.75 21.0937V3.90625C21.75 3.49185 21.592 3.09442 21.3107 2.8014C21.0294 2.50837 20.6478 2.34375 20.25 2.34375ZM11.25 3.90625V11.7187H3.75V3.90625H11.25ZM3.75 13.2812H11.25V21.0937H3.75V13.2812ZM12.75 21.0937V3.90625H20.25V21.0937H12.75Z" fill="#FFC760"/>
</svg>
