<?xml version="1.0" encoding="utf-8"?>
<!-- Generator: Adobe Illustrator 24.3.0, SVG Export Plug-In . SVG Version: 6.00 Build 0)  -->
<svg version="1.1" id="Layer_1" xmlns="http://www.w3.org/2000/svg" xmlns:xlink="http://www.w3.org/1999/xlink" x="0px" y="0px"
	 viewBox="0 0 32 32" style="enable-background:new 0 0 32 32;" xml:space="preserve">
<style type="text/css">
	.st0{fill:#FFFFFF;}
	.st1{fill:#3F8E1E;}
</style>
<path class="st0" d="M10,0h12c5.5,0,10,4.5,10,10v12c0,5.5-4.5,10-10,10H10C4.5,32,0,27.5,0,22V10C0,4.5,4.5,0,10,0z"/>
<path class="st1" d="M19,10.3H9.8c-0.2,0-0.4,0.2-0.4,0.4S9.6,11,9.8,11H19c0.2,0,0.4-0.2,0.4-0.4S19.2,10.3,19,10.3z"/>
<path class="st1" d="M19,13.8H9.8c-0.2,0-0.4,0.2-0.4,0.4c0,0.2,0.2,0.4,0.4,0.4H19c0.2,0,0.4-0.2,0.4-0.4
	C19.4,14,19.2,13.8,19,13.8z"/>
<path class="st1" d="M21.4,16.4c-2.8,0-5,2.2-5,5s2.2,5,5,5c2.8,0,5-2.2,5-5S24.2,16.4,21.4,16.4L21.4,16.4z M21.4,25.7
	c-2.4,0-4.3-1.9-4.3-4.3c0-2.4,1.9-4.3,4.3-4.3s4.3,1.9,4.3,4.3C25.7,23.8,23.8,25.7,21.4,25.7z"/>
<path class="st1" d="M21.4,18.5c0.2,0,0.4-0.2,0.4-0.4V18c0-0.2-0.2-0.4-0.4-0.4s-0.4,0.2-0.4,0.4v0.2
	C21.1,18.4,21.2,18.5,21.4,18.5z"/>
<path class="st1" d="M23.6,18.8l-0.1,0.1c-0.1,0.1-0.1,0.4,0,0.5c0.1,0.1,0.4,0.1,0.5,0l0.1-0.1c0.1-0.1,0.1-0.4,0-0.5
	C23.9,18.6,23.7,18.6,23.6,18.8z"/>
<path class="st1" d="M24.3,21.4c0,0.2,0.2,0.4,0.4,0.4h0.2c0.2,0,0.4-0.2,0.4-0.4s-0.2-0.4-0.4-0.4h-0.2
	C24.4,21.1,24.3,21.2,24.3,21.4z"/>
<path class="st1" d="M18.2,21.1H18c-0.2,0-0.4,0.2-0.4,0.4s0.2,0.4,0.4,0.4h0.2c0.2,0,0.4-0.2,0.4-0.4S18.4,21.1,18.2,21.1z"/>
<path class="st1" d="M23.9,23.4c-0.1-0.1-0.4-0.1-0.5,0c-0.1,0.1-0.1,0.4,0,0.5l0.1,0.1c0.1,0.1,0.4,0.1,0.5,0
	c0.1-0.1,0.1-0.4,0-0.5L23.9,23.4z"/>
<path class="st1" d="M21.4,24.3c-0.2,0-0.4,0.2-0.4,0.4v0.2c0,0.2,0.2,0.4,0.4,0.4s0.4-0.2,0.4-0.4v-0.2
	C21.8,24.4,21.6,24.3,21.4,24.3z"/>
<path class="st1" d="M18.9,23.4l-0.1,0.1c-0.1,0.1-0.1,0.4,0,0.5c0.1,0.1,0.4,0.1,0.5,0l0.1-0.1c0.1-0.1,0.1-0.4,0-0.5
	C19.2,23.3,19,23.3,18.9,23.4z"/>
<path class="st1" d="M19.3,18.8c-0.1-0.1-0.4-0.1-0.5,0c-0.1,0.1-0.1,0.4,0,0.5l0.1,0.1c0.1,0.1,0.4,0.1,0.5,0
	c0.1-0.1,0.1-0.4,0-0.5L19.3,18.8z"/>
<path class="st1" d="M22.4,21.1h-0.6v-1.5c0-0.2-0.2-0.4-0.4-0.4s-0.4,0.2-0.4,0.4v1.9c0,0.2,0.2,0.4,0.4,0.4h1
	c0.2,0,0.4-0.2,0.4-0.4C22.7,21.2,22.6,21.1,22.4,21.1z"/>
<path class="st1" d="M26.8,17.6c-0.1-0.2-0.3-0.2-0.5-0.1c-0.2,0.1-0.2,0.3-0.1,0.5c0.7,1,1.1,2.2,1.1,3.4c0,3.2-2.6,5.9-5.9,5.9
	c-3.2,0-5.9-2.6-5.9-5.9c0-3.2,2.6-5.9,5.9-5.9c1.4,0,2.8,0.5,3.9,1.5c0.1,0.1,0.4,0.1,0.5,0s0.1-0.4,0-0.5c-1.2-1-2.6-1.6-4.2-1.6
	V9.3h3c0.4,0,0.7-0.3,0.7-0.7V6.2c0-1.2-1-2.2-2.2-2.2h-8.3c-0.2,0-0.4,0.2-0.4,0.4c0,0.2,0.2,0.4,0.4,0.4h6.6
	c-0.4,0.4-0.6,0.9-0.6,1.5v8.6c-1.9,0.1-3.6,1.1-4.7,2.5H9.8c-0.2,0-0.4,0.2-0.4,0.4c0,0.2,0.2,0.4,0.4,0.4h5.9
	c-0.4,0.7-0.7,1.4-0.8,2.2H7.6V5.8c0-0.6,0.5-1.1,1.1-1.1h4.7c0.2,0,0.4-0.2,0.4-0.4c0-0.2-0.2-0.4-0.4-0.4H8.8
	c-1,0-1.8,0.8-1.8,1.8v14.4H4.4c-0.2,0-0.4,0.2-0.4,0.4v0.7c0,1.6,1.3,3,3,3h1.1c0.2,0,0.4-0.2,0.4-0.4c0-0.2-0.2-0.4-0.4-0.4H7
	c-1.2,0-2.3-1-2.3-2.3V21h10.1c0,0.1,0,0.3,0,0.4c0,0.7,0.1,1.5,0.4,2.1H9.5c-0.2,0-0.4,0.2-0.4,0.4c0,0.2,0.2,0.4,0.4,0.4h6
	c1.1,2.2,3.3,3.8,5.9,3.8c3.6,0,6.6-3,6.6-6.6C28,20,27.6,18.7,26.8,17.6L26.8,17.6z M24.6,6.2v2.4h-3V6.2c0-0.8,0.7-1.5,1.5-1.5
	C23.9,4.7,24.6,5.4,24.6,6.2L24.6,6.2z"/>
</svg>
