<svg width="25" height="25" viewBox="0 0 25 25" fill="none" xmlns="http://www.w3.org/2000/svg">
<mask id="mask0_2419_481" style="mask-type:luminance" maskUnits="userSpaceOnUse" x="1" y="0" width="23" height="25">
<path d="M24 0.5H1V24.5H24V0.5Z" fill="white"/>
</mask>
<g mask="url(#mask0_2419_481)">
<mask id="mask1_2419_481" style="mask-type:luminance" maskUnits="userSpaceOnUse" x="1" y="0" width="23" height="25">
<path d="M23.6405 0.678955H1.41211V24.0398H23.6405V0.678955Z" fill="white"/>
</mask>
<g mask="url(#mask1_2419_481)">
<path d="M2.0293 1.1813C2.08195 1.33642 2.1313 1.49233 2.17578 1.65103C2.18801 1.81428 2.18928 1.97816 2.1748 2.14127L2.17285 2.16373V22.8854L2.42188 23.0299C2.78405 23.2399 3.20676 23.3172 3.61914 23.2526H22.3447L22.3916 23.2438C22.5041 23.2225 22.619 23.2206 22.7314 23.2389L22.8438 23.2643C22.9492 23.2945 23.0485 23.3421 23.1377 23.4049C23.1381 23.409 23.1396 23.4121 23.1396 23.4147C23.1397 23.4207 23.1387 23.4235 23.1387 23.4235L23.0928 23.4723C23.074 23.4884 23.0477 23.5079 23.0117 23.5309H2.57227C2.51198 23.5309 2.45219 23.5322 2.40039 23.5338C2.34606 23.5356 2.29925 23.5374 2.25391 23.5378C2.16325 23.5385 2.10096 23.5344 2.05273 23.5241C2.00928 23.5147 1.98164 23.5009 1.95898 23.484C1.94682 23.4749 1.93121 23.4597 1.91211 23.4362V1.23013C1.9206 1.21789 1.92799 1.20816 1.93457 1.20083C1.94288 1.19159 1.94916 1.18641 1.95215 1.18423C1.95458 1.18251 1.95703 1.1813 1.95703 1.1813C1.95703 1.1813 1.96197 1.18035 1.96875 1.17935C1.97648 1.17823 1.99048 1.17693 2.01172 1.17837C2.0172 1.17875 2.02294 1.18056 2.0293 1.1813Z" fill="#00ADEF" stroke="#00ADEF"/>
<path d="M17.2214 9.03506L16.847 7.98483C17.1667 6.64236 17.9703 5.97569 18.9475 6.15834C19.9247 6.34099 20.5183 7.31816 20.1804 8.68803L23.605 12.5419V13.2816L22.7922 13.4552L19.2397 9.54648L18.3265 9.71087C17.9886 10.3136 17.6324 10.9255 17.2854 11.5373L14.3813 16.688C14.2418 17.013 13.979 17.2692 13.6507 17.4004C13.2032 17.3273 12.9931 16.9438 12.7374 16.615L8.83784 11.3912C8.71742 11.2417 8.58939 11.0984 8.45428 10.962L4.90175 13.1812C4.76481 13.2972 4.6028 13.3799 4.42848 13.4227C4.25416 13.4655 4.07229 13.4672 3.89718 13.4278C3.80586 13.309 3.69627 13.1447 3.54102 12.9072C3.66226 12.6876 3.81973 12.49 4.00677 12.3227C5.52276 11.3638 7.02961 10.4323 8.49994 9.50995C8.66579 9.52685 8.82573 9.58075 8.96798 9.66768C9.11023 9.75461 9.23116 9.87236 9.32186 10.0122L13.0936 15.0442C13.2214 15.1995 13.3584 15.3456 13.4954 15.5008C14.8818 13.435 16.1326 11.2813 17.2397 9.05333M18.2077 8.3136H19.0023V7.55561H18.1712C18.1712 7.84785 18.1712 8.05789 18.1712 8.3136" fill="#00ADEF"/>
</g>
</g>
</svg>
