<svg width="24" height="25" viewBox="0 0 24 25" fill="none" xmlns="http://www.w3.org/2000/svg">
<g clip-path="url(#clip0_4628_965)">
<path d="M0.698242 0.507233C0.758177 0.680715 0.813139 0.855267 0.863281 1.03262C0.877057 1.21086 0.878257 1.38968 0.862305 1.56778L0.860352 1.59024V23.7455L1.11133 23.8891C1.49477 24.1096 1.94196 24.1906 2.37793 24.1225H22.5977L22.6436 24.1137C22.8123 24.082 22.9863 24.0894 23.1514 24.1361C23.2749 24.1711 23.3909 24.2271 23.4941 24.3012C23.4963 24.3144 23.4989 24.3244 23.499 24.3315C23.4992 24.3467 23.4959 24.3514 23.4941 24.3549C23.486 24.3704 23.4513 24.4173 23.333 24.4906H1.25195C1.18771 24.4906 1.12428 24.4928 1.06836 24.4945C1.01003 24.4964 0.959617 24.498 0.910156 24.4984C0.810512 24.4992 0.73847 24.4939 0.681641 24.4818C0.629713 24.4707 0.594286 24.4542 0.564453 24.432C0.546637 24.4188 0.525734 24.397 0.5 24.3637V0.580475C0.539627 0.521182 0.564891 0.508893 0.571289 0.506256C0.57613 0.504289 0.611063 0.492983 0.698242 0.507233Z" fill="#FFC760" stroke="#FFC760"/>
<path d="M17.0681 8.94252L16.6638 7.8186C17.0089 6.38193 17.8767 5.66848 18.9317 5.86395C19.9868 6.05941 20.6277 7.10515 20.2628 8.57114L23.9605 12.6955V13.4871L23.0829 13.6728L19.2472 9.48983L18.2612 9.66574C17.8964 10.3108 17.5118 10.9656 17.1371 11.6204L14.0016 17.1325C13.851 17.4802 13.5672 17.7544 13.2127 17.8948C12.7296 17.8166 12.5028 17.4062 12.2267 17.0543L8.01634 11.464C7.88633 11.304 7.7481 11.1507 7.60221 11.0047L3.76655 13.3796C3.61869 13.5038 3.44377 13.5922 3.25556 13.638C3.06734 13.6838 2.87098 13.6857 2.68192 13.6435C2.58331 13.5164 2.46499 13.3405 2.29736 13.0864C2.42827 12.8513 2.59828 12.6398 2.80024 12.4609C4.43705 11.4347 6.064 10.4378 7.65151 9.45073C7.83058 9.46882 8.00327 9.5265 8.15686 9.61953C8.31045 9.71256 8.44102 9.83857 8.53894 9.98826L12.6112 15.3733C12.7493 15.5395 12.8972 15.6958 13.0451 15.862C14.542 13.6512 15.8924 11.3464 17.0878 8.96207M18.133 8.17043H18.9909V7.35925H18.0936C18.0936 7.672 18.0936 7.89678 18.0936 8.17043" fill="#FFC760"/>
</g>
<defs>
<clipPath id="clip0_4628_965">
<rect width="24" height="25" fill="white"/>
</clipPath>
</defs>
</svg>
