<svg width="24" height="25" viewBox="0 0 24 25" fill="none" xmlns="http://www.w3.org/2000/svg">
<mask id="path-1-inside-1_4628_995" fill="white">
<path d="M18.2471 15.6061V18.7311C18.2471 18.7962 18.227 18.8497 18.1869 18.8915C18.1467 18.9334 18.0953 18.9543 18.0328 18.9543H15.89C15.8275 18.9543 15.7761 18.9334 15.736 18.8915C15.6958 18.8497 15.6757 18.7962 15.6757 18.7311V18.2847C15.6757 18.2196 15.6958 18.1661 15.736 18.1242C15.7761 18.0824 15.8275 18.0614 15.89 18.0614H17.39V15.6061C17.39 15.541 17.4101 15.4875 17.4502 15.4457C17.4904 15.4038 17.5418 15.3829 17.6043 15.3829H18.0328C18.0953 15.3829 18.1467 15.4038 18.1869 15.4457C18.227 15.4875 18.2471 15.541 18.2471 15.6061ZM21.0328 18.0614C21.0328 17.3732 20.8699 16.7384 20.544 16.1571C20.2181 15.5759 19.7761 15.1155 19.2181 14.776C18.6601 14.4365 18.0507 14.2668 17.39 14.2668C16.7293 14.2668 16.1199 14.4365 15.5619 14.776C15.0038 15.1155 14.5619 15.5759 14.236 16.1571C13.9101 16.7384 13.7471 17.3732 13.7471 18.0614C13.7471 18.7497 13.9101 19.3845 14.236 19.9657C14.5619 20.547 15.0038 21.0074 15.5619 21.3469C16.1199 21.6864 16.7293 21.8561 17.39 21.8561C18.0507 21.8561 18.6601 21.6864 19.2181 21.3469C19.7761 21.0074 20.2181 20.547 20.544 19.9657C20.8699 19.3845 21.0328 18.7497 21.0328 18.0614ZM22.5328 18.0614C22.5328 19.0334 22.3029 19.9297 21.8431 20.7505C21.3833 21.5713 20.7594 22.2211 19.9715 22.7001C19.1835 23.1791 18.323 23.4186 17.39 23.4186C16.4569 23.4186 15.5965 23.1791 14.8085 22.7001C14.0206 22.2211 13.3967 21.5713 12.9369 20.7505C12.477 19.9297 12.2471 19.0334 12.2471 18.0614C12.2471 17.0895 12.477 16.1932 12.9369 15.3724C13.3967 14.5516 14.0206 13.9018 14.8085 13.4228C15.5965 12.9438 16.4569 12.7043 17.39 12.7043C18.323 12.7043 19.1835 12.9438 19.9715 13.4228C20.7594 13.9018 21.3833 14.5516 21.8431 15.3724C22.3029 16.1932 22.5328 17.0895 22.5328 18.0614ZM3.67649 1.78223C3.66531 1.78308 3.65414 1.78425 3.64301 1.78572C3.3489 1.85956 3.14657 2.14057 3.16087 2.45536V22.5446C3.15384 22.9175 3.44581 23.2216 3.80373 23.2143H11.2368V21.875H4.44658V3.0692H19.5537V11.6525H20.8394V2.45536C20.8465 2.08254 20.5545 1.7784 20.1966 1.78572H3.80373C3.76154 1.78009 3.71891 1.77892 3.67649 1.78223ZM19.0716 3.45983L15.7502 3.51563V3.68304L19.0716 3.62724V3.45983ZM19.0716 3.85045L15.7502 3.90625V4.07367L19.0716 4.01786V3.85045ZM19.0716 4.18527L15.7502 4.24108V4.40849L19.0716 4.35268V4.18527ZM19.0716 4.52009L15.7502 4.5759V4.74331L19.0716 4.6875V4.52009ZM19.0716 4.85492L15.7502 4.91072V5.07813L19.0716 5.02233V4.85492ZM8.83944 5.13393L5.51801 5.18974V5.35715L8.83944 5.30134V5.13393ZM13.768 5.13393L10.5002 5.18974V5.35715L13.768 5.30134V5.13393ZM8.83944 5.52456L5.51801 5.58036V5.74777L8.83944 5.69197V5.52456ZM13.768 5.52456L10.5002 5.58036V5.74777L13.768 5.69197V5.52456ZM8.83944 5.85938L5.51801 5.91518V6.08259L8.83944 6.02679V5.85938ZM13.768 5.85938L10.5002 5.91518V6.08259L13.768 6.02679V5.85938ZM8.83944 6.1942L5.51801 6.25001V6.41742L8.83944 6.36161V6.1942ZM13.768 6.1942L10.5002 6.25001V6.41742L13.768 6.36161V6.1942ZM8.83944 6.52902L5.51801 6.58483V6.75224L8.83944 6.69643V6.52902ZM13.768 6.52902L10.5002 6.58483V6.75224L13.768 6.69643V6.52902ZM5.25015 8.20313V8.42634V17.4107V17.5781H5.46444H11.2368V17.1875H8.78587C8.78514 17.1723 8.78725 17.1432 8.78587 17.0759C8.78455 17.0116 8.77109 16.7642 8.75908 16.6225C9.22212 16.6188 10.5801 16.6175 11.2368 16.612V16.4063C10.5775 16.4062 9.21328 16.4055 8.74904 16.4063C8.74268 16.2902 8.73339 16.2864 8.73229 16.1272C8.73207 16.0954 8.73248 15.9378 8.73229 15.904C9.19828 15.9033 10.5737 15.9039 11.2368 15.904V15.7366C10.5737 15.7365 9.19832 15.7359 8.73229 15.7366C8.73185 15.6485 8.73259 15.2795 8.73229 15.1786C9.19064 15.1778 10.5828 15.1785 11.2368 15.1786V15.0112C10.5829 15.0111 9.19069 15.0104 8.73229 15.0112C8.73206 14.9167 8.73243 14.6146 8.73229 14.5089C9.19064 14.5081 10.5828 14.5089 11.2368 14.5089V14.3241C10.5829 14.3296 9.19069 14.3309 8.73229 14.3345C8.73217 14.2126 8.73232 13.9134 8.73229 13.7765C9.19064 13.7729 10.5828 13.7716 11.2368 13.766V13.5603C10.5829 13.5602 9.19069 13.5595 8.73229 13.5603C8.7323 13.4174 8.73221 13.1613 8.73229 13.0022C9.19445 13.0015 10.5783 13.0022 11.2368 13.0022V12.8348C10.5783 12.8348 9.1945 12.834 8.73229 12.8348C8.73238 12.6687 8.73215 12.4536 8.73229 12.2698C9.19064 12.2662 10.5828 12.2649 11.2368 12.2594V12.0536C10.5829 12.0535 9.19069 12.0528 8.73229 12.0536C8.73246 11.8463 8.7321 11.6693 8.73229 11.4397C9.41453 11.4386 11.3006 11.4393 12.4287 11.4397C12.4287 11.5193 12.4288 11.5757 12.4287 11.6525H12.5894C12.5895 11.5757 12.5894 11.5193 12.5894 11.4397C13.3727 11.4401 14.0739 11.4392 15.1073 11.4397C15.1072 11.519 15.1074 11.5759 15.1073 11.6525H15.2881C15.2874 11.5759 15.2887 11.519 15.2881 11.4397C16.601 11.4404 16.6649 11.4397 18.4287 11.4397V11.6525H18.8037V8.42634V8.20313H18.5894H5.46443L5.25015 8.20313ZM5.62515 8.59376H8.57158C8.57158 8.84668 8.57164 8.80191 8.57158 9.04018C8.32086 9.04066 7.378 9.03933 7.17873 9.04018C6.36629 9.04365 5.93585 9.03758 5.7323 9.04018C5.66445 9.04105 5.65016 9.04047 5.62515 9.04018V8.59376ZM8.7323 8.59376H12.4287C12.4287 8.84668 12.4288 8.80191 12.4287 9.04018C11.3006 9.03971 9.41449 9.03904 8.7323 9.04018C8.73235 8.80192 8.73229 8.84667 8.7323 8.59376ZM12.5894 8.59376H15.1073C15.1073 8.84634 15.1074 8.80237 15.1073 9.04018C14.0701 9.03968 13.3728 9.04053 12.5894 9.04018C12.5895 8.80192 12.5894 8.84667 12.5894 8.59376ZM15.268 8.59376H18.4287V9.04018C16.6391 9.04015 16.5943 9.04081 15.2714 9.04018C15.271 8.80237 15.2681 8.84633 15.268 8.59376ZM5.62515 9.20759C5.65026 9.20788 5.66476 9.20846 5.7323 9.20759C5.93491 9.20501 6.36652 9.21106 7.17873 9.20759C7.37795 9.20674 8.32089 9.20807 8.57158 9.20759C8.57149 9.52417 8.57173 9.52371 8.57158 9.81446C8.30903 9.81651 7.3321 9.82055 7.12515 9.82143C6.31271 9.8249 5.88228 9.81883 5.67873 9.82143C5.6448 9.82187 5.64604 9.82152 5.62515 9.82143V9.20759ZM8.7323 9.20759C9.41442 9.20645 11.3006 9.20713 12.4287 9.20759C12.4286 9.51508 12.4289 9.51392 12.4287 9.79702C11.2933 9.80557 9.42013 9.80893 8.7323 9.81447C8.73245 9.52371 8.73221 9.52418 8.7323 9.20759ZM12.5894 9.20759C13.3729 9.20794 14.0701 9.20709 15.1073 9.20759C15.1072 9.50717 15.1074 9.50688 15.1073 9.78307C14.0643 9.78773 13.3779 9.78771 12.5894 9.79353C12.5896 9.51196 12.5894 9.51326 12.5894 9.20759ZM15.2747 9.20759C16.5967 9.20822 16.6411 9.20756 18.4287 9.20759V9.76563C16.6344 9.76576 16.6064 9.77742 15.2781 9.78308C15.2771 9.50687 15.2753 9.50716 15.2747 9.20759ZM5.62515 9.98884C5.64625 9.98893 5.64496 9.98928 5.67873 9.98884C5.88134 9.98626 6.31295 9.99231 7.12515 9.98884C7.33204 9.98796 8.30906 9.98932 8.57158 9.98884C8.57143 10.2496 8.57176 10.3069 8.57158 10.5469C8.30904 10.5474 7.33113 10.546 7.12515 10.5469C6.31271 10.5503 5.93585 10.5443 5.7323 10.5469C5.68141 10.5475 5.66271 10.5471 5.62515 10.5469V9.98884ZM8.7323 9.98884C9.42007 9.98773 11.2933 9.98836 12.4287 9.98884C12.4286 10.2496 12.4289 10.3069 12.4287 10.5469C11.2934 10.5464 9.42031 10.5458 8.7323 10.5469C8.73247 10.3068 8.73215 10.2496 8.7323 9.98884ZM12.5894 9.98884C13.3779 9.9892 14.0643 9.98834 15.1073 9.98884C15.1071 10.2488 15.1075 10.3077 15.1073 10.5469C14.0683 10.5464 13.3777 10.5472 12.5894 10.5469C12.5896 10.3068 12.5893 10.2496 12.5894 9.98884ZM15.2781 9.98884C16.6064 9.98947 16.6345 9.98883 18.4287 9.98884V10.5469C16.6529 10.5468 16.6034 10.5475 15.2814 10.5469C15.2801 10.3077 15.2791 10.2488 15.2781 9.98884ZM5.62515 10.7143C5.66301 10.7145 5.68164 10.7149 5.7323 10.7143C5.93491 10.7117 6.31295 10.7178 7.12515 10.7143C7.33107 10.7134 8.30907 10.7148 8.57158 10.7143C8.57141 10.9483 8.57176 11.0579 8.57158 11.2723C8.32089 11.2728 7.37707 11.2715 7.17873 11.2723C6.36629 11.2758 5.98942 11.2697 5.78587 11.2723C5.6841 11.2736 5.65147 11.2715 5.62515 11.2723V10.7143ZM8.7323 10.7143C9.42024 10.7132 11.2933 10.7138 12.4287 10.7143C12.4285 10.9483 12.4289 11.0579 12.4287 11.2723C11.3006 11.2719 9.4146 11.2712 8.7323 11.2723C8.73248 11.0579 8.73212 10.9483 8.7323 10.7143ZM12.5894 10.7143C13.3777 10.7146 14.0683 10.7138 15.1073 10.7143C15.1071 10.9474 15.1075 11.0587 15.1073 11.2723C14.074 11.2718 13.3727 11.2727 12.5894 11.2723C12.5896 11.0579 12.5893 10.9483 12.5894 10.7143ZM15.2848 10.7143C16.6058 10.7149 16.6548 10.7143 18.4287 10.7143V11.2723C16.6649 11.2723 16.601 11.273 15.2881 11.2723C15.2865 11.0587 15.2862 10.9475 15.2848 10.7143ZM7.17873 11.4397C7.37701 11.4389 8.32092 11.4402 8.57158 11.4397C8.57139 11.6693 8.57175 11.8464 8.57158 12.0536C8.33251 12.054 7.42391 12.0528 7.2323 12.0536C6.41986 12.057 5.98942 12.051 5.78587 12.0536C5.6841 12.0549 5.65147 12.1086 5.62515 12.1094V11.4955C5.64961 11.4948 5.68456 11.4968 5.78587 11.4955C5.98848 11.493 6.36652 11.4432 7.17873 11.4397ZM8.57158 12.2698C8.57144 12.4535 8.57168 12.6688 8.57158 12.8348C8.32086 12.8353 7.378 12.834 7.17873 12.8348C6.36629 12.8383 5.98942 12.8322 5.78587 12.8348C5.70954 12.8358 5.66527 12.835 5.62515 12.8348V12.2768C5.64961 12.2761 5.68456 12.2781 5.78587 12.2768C5.98848 12.2742 6.42009 12.2803 7.2323 12.2768C7.42386 12.276 8.33254 12.2717 8.57158 12.2698ZM5.78587 13.0022C5.98848 12.9996 6.36652 13.0057 7.17873 13.0022C7.37795 13.0014 8.32089 13.0027 8.57158 13.0022C8.57151 13.1613 8.57159 13.4174 8.57158 13.5603C8.33251 13.5607 7.42391 13.5595 7.2323 13.5603C6.41986 13.5637 5.98942 13.6135 5.78587 13.6161C5.6841 13.6174 5.65147 13.6153 5.62515 13.6161V13.0441C5.66512 13.0286 5.70989 13.0032 5.78587 13.0022ZM8.57158 13.7765C8.57161 13.9134 8.57146 14.2126 8.57158 14.3345C8.33251 14.3364 7.42391 14.3407 7.2323 14.3415C6.41986 14.345 5.98942 14.3389 5.78587 14.3415C5.6841 14.3428 5.65147 14.3407 5.62515 14.3415V13.7835C5.64961 13.7828 5.68456 13.7848 5.78587 13.7835C5.98848 13.7809 6.42009 13.787 7.2323 13.7835C7.42386 13.7827 8.33254 13.7783 8.57158 13.7765ZM5.62515 14.5089C5.64961 14.5082 5.68456 14.5102 5.78587 14.5089C5.98848 14.5063 6.42009 14.5124 7.2323 14.5089C7.42386 14.5081 8.33254 14.5094 8.57158 14.5089C8.57172 14.6146 8.57135 14.9167 8.57158 15.0112C8.33251 15.0116 7.42391 15.0103 7.2323 15.0112C6.41986 15.0146 5.98942 15.0086 5.78587 15.0112C5.6841 15.0125 5.65147 15.0104 5.62515 15.0112V14.5089ZM5.62515 15.1786C5.64961 15.1778 5.68456 15.1799 5.78587 15.1786C5.98848 15.176 6.42009 15.182 7.2323 15.1786C7.42386 15.1778 8.33254 15.179 8.57158 15.1786C8.57188 15.2795 8.57115 15.6485 8.57158 15.7366C8.30903 15.7371 7.3321 15.7357 7.12515 15.7366C6.31271 15.7401 5.88228 15.734 5.67873 15.7366C5.6448 15.737 5.64604 15.7367 5.62515 15.7366V15.1786ZM5.62515 15.904C5.64625 15.9041 5.64496 15.9045 5.67873 15.904C5.88134 15.9014 6.31295 15.9075 7.12515 15.904C7.33204 15.9031 8.30906 15.9045 8.57158 15.904C8.57178 15.9378 8.57137 16.0954 8.57158 16.1272C8.57267 16.2865 8.57176 16.2903 8.57158 16.4063C8.30904 16.4067 7.33113 16.4054 7.12515 16.4063C6.31271 16.4097 5.93585 16.4595 5.7323 16.4621C5.68141 16.4627 5.66271 16.4623 5.62515 16.4621V15.904ZM8.57158 16.6225C8.5708 16.764 8.57025 17.0108 8.57158 17.0759C8.57298 17.144 8.62426 17.1689 8.62515 17.1875H5.62515V16.6295C5.66301 16.6297 5.68164 16.6301 5.7323 16.6295C5.93491 16.6269 6.31295 16.6329 7.12515 16.6295C7.33107 16.6286 8.30907 16.6245 8.57158 16.6225ZM10.7144 17.913L5.3573 17.9688V18.1362L10.7144 18.0804V17.913ZM5.3573 18.3036V18.5268L10.7144 18.471V18.3036H5.3573ZM10.7144 18.6384L5.3573 18.6942V18.8616L10.7144 18.8058V18.6384ZM10.7144 18.9732L5.3573 19.029V19.1964L10.7144 19.1406V18.9732ZM10.7144 19.308L5.3573 19.3638V19.5313L10.7144 19.4755V19.308ZM10.7144 19.6429L5.3573 19.6987V19.8661L10.7144 19.8103V19.6429ZM10.7144 20.0335L5.3573 20.0893V20.2567L10.7144 20.2009V20.0335ZM10.7144 20.3683L5.3573 20.4241V20.5915L10.7144 20.5357V20.3683ZM10.7144 20.7031L5.3573 20.7589V20.9263L10.7144 20.8705V20.7031ZM10.7144 21.038L5.3573 21.0938V21.2612L10.7144 21.2054V21.038Z"/>
</mask>
<path d="M18.2471 15.6061V18.7311C18.2471 18.7962 18.227 18.8497 18.1869 18.8915C18.1467 18.9334 18.0953 18.9543 18.0328 18.9543H15.89C15.8275 18.9543 15.7761 18.9334 15.736 18.8915C15.6958 18.8497 15.6757 18.7962 15.6757 18.7311V18.2847C15.6757 18.2196 15.6958 18.1661 15.736 18.1242C15.7761 18.0824 15.8275 18.0614 15.89 18.0614H17.39V15.6061C17.39 15.541 17.4101 15.4875 17.4502 15.4457C17.4904 15.4038 17.5418 15.3829 17.6043 15.3829H18.0328C18.0953 15.3829 18.1467 15.4038 18.1869 15.4457C18.227 15.4875 18.2471 15.541 18.2471 15.6061ZM21.0328 18.0614C21.0328 17.3732 20.8699 16.7384 20.544 16.1571C20.2181 15.5759 19.7761 15.1155 19.2181 14.776C18.6601 14.4365 18.0507 14.2668 17.39 14.2668C16.7293 14.2668 16.1199 14.4365 15.5619 14.776C15.0038 15.1155 14.5619 15.5759 14.236 16.1571C13.9101 16.7384 13.7471 17.3732 13.7471 18.0614C13.7471 18.7497 13.9101 19.3845 14.236 19.9657C14.5619 20.547 15.0038 21.0074 15.5619 21.3469C16.1199 21.6864 16.7293 21.8561 17.39 21.8561C18.0507 21.8561 18.6601 21.6864 19.2181 21.3469C19.7761 21.0074 20.2181 20.547 20.544 19.9657C20.8699 19.3845 21.0328 18.7497 21.0328 18.0614ZM22.5328 18.0614C22.5328 19.0334 22.3029 19.9297 21.8431 20.7505C21.3833 21.5713 20.7594 22.2211 19.9715 22.7001C19.1835 23.1791 18.323 23.4186 17.39 23.4186C16.4569 23.4186 15.5965 23.1791 14.8085 22.7001C14.0206 22.2211 13.3967 21.5713 12.9369 20.7505C12.477 19.9297 12.2471 19.0334 12.2471 18.0614C12.2471 17.0895 12.477 16.1932 12.9369 15.3724C13.3967 14.5516 14.0206 13.9018 14.8085 13.4228C15.5965 12.9438 16.4569 12.7043 17.39 12.7043C18.323 12.7043 19.1835 12.9438 19.9715 13.4228C20.7594 13.9018 21.3833 14.5516 21.8431 15.3724C22.3029 16.1932 22.5328 17.0895 22.5328 18.0614ZM3.67649 1.78223C3.66531 1.78308 3.65414 1.78425 3.64301 1.78572C3.3489 1.85956 3.14657 2.14057 3.16087 2.45536V22.5446C3.15384 22.9175 3.44581 23.2216 3.80373 23.2143H11.2368V21.875H4.44658V3.0692H19.5537V11.6525H20.8394V2.45536C20.8465 2.08254 20.5545 1.7784 20.1966 1.78572H3.80373C3.76154 1.78009 3.71891 1.77892 3.67649 1.78223ZM19.0716 3.45983L15.7502 3.51563V3.68304L19.0716 3.62724V3.45983ZM19.0716 3.85045L15.7502 3.90625V4.07367L19.0716 4.01786V3.85045ZM19.0716 4.18527L15.7502 4.24108V4.40849L19.0716 4.35268V4.18527ZM19.0716 4.52009L15.7502 4.5759V4.74331L19.0716 4.6875V4.52009ZM19.0716 4.85492L15.7502 4.91072V5.07813L19.0716 5.02233V4.85492ZM8.83944 5.13393L5.51801 5.18974V5.35715L8.83944 5.30134V5.13393ZM13.768 5.13393L10.5002 5.18974V5.35715L13.768 5.30134V5.13393ZM8.83944 5.52456L5.51801 5.58036V5.74777L8.83944 5.69197V5.52456ZM13.768 5.52456L10.5002 5.58036V5.74777L13.768 5.69197V5.52456ZM8.83944 5.85938L5.51801 5.91518V6.08259L8.83944 6.02679V5.85938ZM13.768 5.85938L10.5002 5.91518V6.08259L13.768 6.02679V5.85938ZM8.83944 6.1942L5.51801 6.25001V6.41742L8.83944 6.36161V6.1942ZM13.768 6.1942L10.5002 6.25001V6.41742L13.768 6.36161V6.1942ZM8.83944 6.52902L5.51801 6.58483V6.75224L8.83944 6.69643V6.52902ZM13.768 6.52902L10.5002 6.58483V6.75224L13.768 6.69643V6.52902ZM5.25015 8.20313V8.42634V17.4107V17.5781H5.46444H11.2368V17.1875H8.78587C8.78514 17.1723 8.78725 17.1432 8.78587 17.0759C8.78455 17.0116 8.77109 16.7642 8.75908 16.6225C9.22212 16.6188 10.5801 16.6175 11.2368 16.612V16.4063C10.5775 16.4062 9.21328 16.4055 8.74904 16.4063C8.74268 16.2902 8.73339 16.2864 8.73229 16.1272C8.73207 16.0954 8.73248 15.9378 8.73229 15.904C9.19828 15.9033 10.5737 15.9039 11.2368 15.904V15.7366C10.5737 15.7365 9.19832 15.7359 8.73229 15.7366C8.73185 15.6485 8.73259 15.2795 8.73229 15.1786C9.19064 15.1778 10.5828 15.1785 11.2368 15.1786V15.0112C10.5829 15.0111 9.19069 15.0104 8.73229 15.0112C8.73206 14.9167 8.73243 14.6146 8.73229 14.5089C9.19064 14.5081 10.5828 14.5089 11.2368 14.5089V14.3241C10.5829 14.3296 9.19069 14.3309 8.73229 14.3345C8.73217 14.2126 8.73232 13.9134 8.73229 13.7765C9.19064 13.7729 10.5828 13.7716 11.2368 13.766V13.5603C10.5829 13.5602 9.19069 13.5595 8.73229 13.5603C8.7323 13.4174 8.73221 13.1613 8.73229 13.0022C9.19445 13.0015 10.5783 13.0022 11.2368 13.0022V12.8348C10.5783 12.8348 9.1945 12.834 8.73229 12.8348C8.73238 12.6687 8.73215 12.4536 8.73229 12.2698C9.19064 12.2662 10.5828 12.2649 11.2368 12.2594V12.0536C10.5829 12.0535 9.19069 12.0528 8.73229 12.0536C8.73246 11.8463 8.7321 11.6693 8.73229 11.4397C9.41453 11.4386 11.3006 11.4393 12.4287 11.4397C12.4287 11.5193 12.4288 11.5757 12.4287 11.6525H12.5894C12.5895 11.5757 12.5894 11.5193 12.5894 11.4397C13.3727 11.4401 14.0739 11.4392 15.1073 11.4397C15.1072 11.519 15.1074 11.5759 15.1073 11.6525H15.2881C15.2874 11.5759 15.2887 11.519 15.2881 11.4397C16.601 11.4404 16.6649 11.4397 18.4287 11.4397V11.6525H18.8037V8.42634V8.20313H18.5894H5.46443L5.25015 8.20313ZM5.62515 8.59376H8.57158C8.57158 8.84668 8.57164 8.80191 8.57158 9.04018C8.32086 9.04066 7.378 9.03933 7.17873 9.04018C6.36629 9.04365 5.93585 9.03758 5.7323 9.04018C5.66445 9.04105 5.65016 9.04047 5.62515 9.04018V8.59376ZM8.7323 8.59376H12.4287C12.4287 8.84668 12.4288 8.80191 12.4287 9.04018C11.3006 9.03971 9.41449 9.03904 8.7323 9.04018C8.73235 8.80192 8.73229 8.84667 8.7323 8.59376ZM12.5894 8.59376H15.1073C15.1073 8.84634 15.1074 8.80237 15.1073 9.04018C14.0701 9.03968 13.3728 9.04053 12.5894 9.04018C12.5895 8.80192 12.5894 8.84667 12.5894 8.59376ZM15.268 8.59376H18.4287V9.04018C16.6391 9.04015 16.5943 9.04081 15.2714 9.04018C15.271 8.80237 15.2681 8.84633 15.268 8.59376ZM5.62515 9.20759C5.65026 9.20788 5.66476 9.20846 5.7323 9.20759C5.93491 9.20501 6.36652 9.21106 7.17873 9.20759C7.37795 9.20674 8.32089 9.20807 8.57158 9.20759C8.57149 9.52417 8.57173 9.52371 8.57158 9.81446C8.30903 9.81651 7.3321 9.82055 7.12515 9.82143C6.31271 9.8249 5.88228 9.81883 5.67873 9.82143C5.6448 9.82187 5.64604 9.82152 5.62515 9.82143V9.20759ZM8.7323 9.20759C9.41442 9.20645 11.3006 9.20713 12.4287 9.20759C12.4286 9.51508 12.4289 9.51392 12.4287 9.79702C11.2933 9.80557 9.42013 9.80893 8.7323 9.81447C8.73245 9.52371 8.73221 9.52418 8.7323 9.20759ZM12.5894 9.20759C13.3729 9.20794 14.0701 9.20709 15.1073 9.20759C15.1072 9.50717 15.1074 9.50688 15.1073 9.78307C14.0643 9.78773 13.3779 9.78771 12.5894 9.79353C12.5896 9.51196 12.5894 9.51326 12.5894 9.20759ZM15.2747 9.20759C16.5967 9.20822 16.6411 9.20756 18.4287 9.20759V9.76563C16.6344 9.76576 16.6064 9.77742 15.2781 9.78308C15.2771 9.50687 15.2753 9.50716 15.2747 9.20759ZM5.62515 9.98884C5.64625 9.98893 5.64496 9.98928 5.67873 9.98884C5.88134 9.98626 6.31295 9.99231 7.12515 9.98884C7.33204 9.98796 8.30906 9.98932 8.57158 9.98884C8.57143 10.2496 8.57176 10.3069 8.57158 10.5469C8.30904 10.5474 7.33113 10.546 7.12515 10.5469C6.31271 10.5503 5.93585 10.5443 5.7323 10.5469C5.68141 10.5475 5.66271 10.5471 5.62515 10.5469V9.98884ZM8.7323 9.98884C9.42007 9.98773 11.2933 9.98836 12.4287 9.98884C12.4286 10.2496 12.4289 10.3069 12.4287 10.5469C11.2934 10.5464 9.42031 10.5458 8.7323 10.5469C8.73247 10.3068 8.73215 10.2496 8.7323 9.98884ZM12.5894 9.98884C13.3779 9.9892 14.0643 9.98834 15.1073 9.98884C15.1071 10.2488 15.1075 10.3077 15.1073 10.5469C14.0683 10.5464 13.3777 10.5472 12.5894 10.5469C12.5896 10.3068 12.5893 10.2496 12.5894 9.98884ZM15.2781 9.98884C16.6064 9.98947 16.6345 9.98883 18.4287 9.98884V10.5469C16.6529 10.5468 16.6034 10.5475 15.2814 10.5469C15.2801 10.3077 15.2791 10.2488 15.2781 9.98884ZM5.62515 10.7143C5.66301 10.7145 5.68164 10.7149 5.7323 10.7143C5.93491 10.7117 6.31295 10.7178 7.12515 10.7143C7.33107 10.7134 8.30907 10.7148 8.57158 10.7143C8.57141 10.9483 8.57176 11.0579 8.57158 11.2723C8.32089 11.2728 7.37707 11.2715 7.17873 11.2723C6.36629 11.2758 5.98942 11.2697 5.78587 11.2723C5.6841 11.2736 5.65147 11.2715 5.62515 11.2723V10.7143ZM8.7323 10.7143C9.42024 10.7132 11.2933 10.7138 12.4287 10.7143C12.4285 10.9483 12.4289 11.0579 12.4287 11.2723C11.3006 11.2719 9.4146 11.2712 8.7323 11.2723C8.73248 11.0579 8.73212 10.9483 8.7323 10.7143ZM12.5894 10.7143C13.3777 10.7146 14.0683 10.7138 15.1073 10.7143C15.1071 10.9474 15.1075 11.0587 15.1073 11.2723C14.074 11.2718 13.3727 11.2727 12.5894 11.2723C12.5896 11.0579 12.5893 10.9483 12.5894 10.7143ZM15.2848 10.7143C16.6058 10.7149 16.6548 10.7143 18.4287 10.7143V11.2723C16.6649 11.2723 16.601 11.273 15.2881 11.2723C15.2865 11.0587 15.2862 10.9475 15.2848 10.7143ZM7.17873 11.4397C7.37701 11.4389 8.32092 11.4402 8.57158 11.4397C8.57139 11.6693 8.57175 11.8464 8.57158 12.0536C8.33251 12.054 7.42391 12.0528 7.2323 12.0536C6.41986 12.057 5.98942 12.051 5.78587 12.0536C5.6841 12.0549 5.65147 12.1086 5.62515 12.1094V11.4955C5.64961 11.4948 5.68456 11.4968 5.78587 11.4955C5.98848 11.493 6.36652 11.4432 7.17873 11.4397ZM8.57158 12.2698C8.57144 12.4535 8.57168 12.6688 8.57158 12.8348C8.32086 12.8353 7.378 12.834 7.17873 12.8348C6.36629 12.8383 5.98942 12.8322 5.78587 12.8348C5.70954 12.8358 5.66527 12.835 5.62515 12.8348V12.2768C5.64961 12.2761 5.68456 12.2781 5.78587 12.2768C5.98848 12.2742 6.42009 12.2803 7.2323 12.2768C7.42386 12.276 8.33254 12.2717 8.57158 12.2698ZM5.78587 13.0022C5.98848 12.9996 6.36652 13.0057 7.17873 13.0022C7.37795 13.0014 8.32089 13.0027 8.57158 13.0022C8.57151 13.1613 8.57159 13.4174 8.57158 13.5603C8.33251 13.5607 7.42391 13.5595 7.2323 13.5603C6.41986 13.5637 5.98942 13.6135 5.78587 13.6161C5.6841 13.6174 5.65147 13.6153 5.62515 13.6161V13.0441C5.66512 13.0286 5.70989 13.0032 5.78587 13.0022ZM8.57158 13.7765C8.57161 13.9134 8.57146 14.2126 8.57158 14.3345C8.33251 14.3364 7.42391 14.3407 7.2323 14.3415C6.41986 14.345 5.98942 14.3389 5.78587 14.3415C5.6841 14.3428 5.65147 14.3407 5.62515 14.3415V13.7835C5.64961 13.7828 5.68456 13.7848 5.78587 13.7835C5.98848 13.7809 6.42009 13.787 7.2323 13.7835C7.42386 13.7827 8.33254 13.7783 8.57158 13.7765ZM5.62515 14.5089C5.64961 14.5082 5.68456 14.5102 5.78587 14.5089C5.98848 14.5063 6.42009 14.5124 7.2323 14.5089C7.42386 14.5081 8.33254 14.5094 8.57158 14.5089C8.57172 14.6146 8.57135 14.9167 8.57158 15.0112C8.33251 15.0116 7.42391 15.0103 7.2323 15.0112C6.41986 15.0146 5.98942 15.0086 5.78587 15.0112C5.6841 15.0125 5.65147 15.0104 5.62515 15.0112V14.5089ZM5.62515 15.1786C5.64961 15.1778 5.68456 15.1799 5.78587 15.1786C5.98848 15.176 6.42009 15.182 7.2323 15.1786C7.42386 15.1778 8.33254 15.179 8.57158 15.1786C8.57188 15.2795 8.57115 15.6485 8.57158 15.7366C8.30903 15.7371 7.3321 15.7357 7.12515 15.7366C6.31271 15.7401 5.88228 15.734 5.67873 15.7366C5.6448 15.737 5.64604 15.7367 5.62515 15.7366V15.1786ZM5.62515 15.904C5.64625 15.9041 5.64496 15.9045 5.67873 15.904C5.88134 15.9014 6.31295 15.9075 7.12515 15.904C7.33204 15.9031 8.30906 15.9045 8.57158 15.904C8.57178 15.9378 8.57137 16.0954 8.57158 16.1272C8.57267 16.2865 8.57176 16.2903 8.57158 16.4063C8.30904 16.4067 7.33113 16.4054 7.12515 16.4063C6.31271 16.4097 5.93585 16.4595 5.7323 16.4621C5.68141 16.4627 5.66271 16.4623 5.62515 16.4621V15.904ZM8.57158 16.6225C8.5708 16.764 8.57025 17.0108 8.57158 17.0759C8.57298 17.144 8.62426 17.1689 8.62515 17.1875H5.62515V16.6295C5.66301 16.6297 5.68164 16.6301 5.7323 16.6295C5.93491 16.6269 6.31295 16.6329 7.12515 16.6295C7.33107 16.6286 8.30907 16.6245 8.57158 16.6225ZM10.7144 17.913L5.3573 17.9688V18.1362L10.7144 18.0804V17.913ZM5.3573 18.3036V18.5268L10.7144 18.471V18.3036H5.3573ZM10.7144 18.6384L5.3573 18.6942V18.8616L10.7144 18.8058V18.6384ZM10.7144 18.9732L5.3573 19.029V19.1964L10.7144 19.1406V18.9732ZM10.7144 19.308L5.3573 19.3638V19.5313L10.7144 19.4755V19.308ZM10.7144 19.6429L5.3573 19.6987V19.8661L10.7144 19.8103V19.6429ZM10.7144 20.0335L5.3573 20.0893V20.2567L10.7144 20.2009V20.0335ZM10.7144 20.3683L5.3573 20.4241V20.5915L10.7144 20.5357V20.3683ZM10.7144 20.7031L5.3573 20.7589V20.9263L10.7144 20.8705V20.7031ZM10.7144 21.038L5.3573 21.0938V21.2612L10.7144 21.2054V21.038Z" fill="white" stroke="white" stroke-width="0.2" mask="url(#path-1-inside-1_4628_995)"/>
</svg>
