<svg width="20" height="20" viewBox="0 0 20 20" fill="none" xmlns="http://www.w3.org/2000/svg">
<path d="M18.4493 10.3673V1.2599C18.4493 0.934985 18.1859 0.67157 17.861 0.67157H2.09837C1.77345 0.67157 1.51004 0.934985 1.51004 1.2599V11.0934C1.22623 11.1347 0.948773 11.2449 0.703322 11.4271C-0.0704495 11.9758 -0.253459 13.2037 0.394684 13.9609L3.04464 17.1735C4.68498 19.0933 6.4275 19.3285 9.01795 19.3285C11.2409 19.3285 12.2348 19.3383 14.1722 18.8969L16.0587 18.4456C16.3645 18.8728 16.8502 19.1495 17.3961 19.1495H18.3254C19.2488 19.1495 20 18.3581 20 17.3854V12.1262C20 11.1973 19.315 10.4344 18.4493 10.3673ZM15.8049 11.5776L15.021 11.1794C13.7321 10.5288 12.242 10.5048 10.9327 11.1134C10.5755 11.2539 9.79647 11.7253 9.39237 11.7095H6.67224C5.76998 11.7095 5.0359 12.4436 5.0359 13.3459V13.7749C5.03084 13.7696 5.02555 13.7645 5.02057 13.7591L3.0781 11.6507C2.96055 11.5231 2.82849 11.4163 2.68674 11.3307V5.49368H7.50136V7.65034C7.50136 7.97525 7.76477 8.23867 8.08969 8.23867H11.8021C12.127 8.23867 12.3904 7.97525 12.3904 7.65034V5.49368H17.2727V10.3673C16.5853 10.4204 16.0121 10.9122 15.8049 11.5776ZM8.67798 5.49368H11.2137V7.06201H8.67798V5.49368ZM17.2727 4.31702H12.3904V1.84823H17.2727V4.31702H17.2727ZM11.2138 1.84823V4.31706H8.67802V1.84823H11.2138ZM7.50132 1.84823V4.31706H2.6867V1.84823H7.50132ZM13.8991 17.7523C12.1094 18.1622 11.0315 18.1456 9.03905 18.1456C6.60729 18.1456 5.43232 18.1063 3.95239 16.4247L1.30244 13.2121C0.841501 12.6119 1.67638 11.9034 2.2127 12.4479L4.15517 14.5564C4.66855 15.098 5.31457 15.3962 6.11082 15.4137H11.4963C11.8212 15.4137 12.0846 15.1503 12.0846 14.8254C12.0846 14.5005 11.8212 14.237 11.4963 14.237H6.21252V13.3458C6.21252 13.0924 6.41871 12.8861 6.6722 12.8861H9.39233C10.0051 12.93 10.8896 12.4183 11.4288 12.1804C12.4093 11.7244 13.5254 11.7425 14.4895 12.2291L15.7216 12.8549V17.3163L13.8991 17.7523ZM18.8234 17.3854C18.8234 17.7093 18.6 17.9728 18.3254 17.9728H17.3961C17.1216 17.9728 16.8982 17.7093 16.8982 17.3854V12.1262C16.8982 11.8022 17.1216 11.5386 17.3961 11.5386H18.3254C18.6 11.5386 18.8234 11.8022 18.8234 12.1262V17.3854Z" fill="white"/>
</svg>
