<?xml version="1.0" encoding="utf-8"?>
<!-- Generator: Adobe Illustrator 25.4.1, SVG Export Plug-In . SVG Version: 6.00 Build 0)  -->
<svg version="1.1" id="Layer_1" xmlns="http://www.w3.org/2000/svg" xmlns:xlink="http://www.w3.org/1999/xlink" x="0px" y="0px"
	 viewBox="0 0 24 24" style="enable-background:new 0 0 24 24;" xml:space="preserve">
<style type="text/css">
	.st0{fill:#3F8E1E;}
</style>
<g>
	<path class="st0" d="M20,12c0,3.2,0,6.4,0,9.6c0,0.7-0.2,1.2-0.8,1.5c-0.2,0.1-0.5,0.2-0.7,0.2c-4.3,0-8.6,0-12.9,0
		c-0.9,0-1.6-0.7-1.6-1.6c0-2.8,0-5.7,0-8.5C4,9.5,4,6,4,2.4c0-0.7,0.2-1.2,0.8-1.5C5,0.8,5.3,0.7,5.6,0.7c4.3,0,8.6,0,12.9,0
		c0.9,0,1.6,0.7,1.6,1.6C20,5.6,20,8.8,20,12z M19.3,12c0-3.2,0-6.4,0-9.6c0-0.7-0.3-1-1-1c-4.2,0-8.4,0-12.6,0c-0.7,0-1,0.3-1,0.9
		c0,6.4,0,12.8,0,19.2c0,0.6,0.3,0.9,0.9,0.9c4.2,0,8.5,0,12.7,0c0.6,0,0.9-0.3,0.9-0.9C19.3,18.4,19.3,15.2,19.3,12z"/>
	<path class="st0" d="M12,3.1c1.7,0,3.4,0,5.1,0c0.6,0,1,0.4,1,1c0,1,0,2.1,0,3.1c0,0.6-0.4,1-1,1c-3.4,0-6.8,0-10.2,0
		c-0.6,0-1-0.4-1-1c0-1,0-2.1,0-3.1c0-0.6,0.4-1,1-1C8.6,3.1,10.3,3.1,12,3.1z M12,7.4c1.7,0,3.3,0,5,0c0.3,0,0.3,0,0.4-0.3
		c0-1,0-2,0-2.9c0-0.3-0.1-0.3-0.3-0.3c-3.3,0-6.7,0-10,0c-0.3,0-0.3,0-0.3,0.4c0,1,0,1.9,0,2.9c0,0.4,0,0.4,0.4,0.4
		C8.7,7.4,10.4,7.4,12,7.4z"/>
	<path class="st0" d="M7.6,17.4c0.3,0,0.6,0,0.8,0c0.5,0,0.8,0.3,0.8,0.8c0,0.5,0,1.1,0,1.6c0,0.5-0.3,0.8-0.7,0.8
		c-0.6,0-1.2,0-1.9,0c-0.5,0-0.8-0.4-0.8-0.8c0-0.5,0-1.1,0-1.6c0-0.5,0.3-0.8,0.8-0.8C7.1,17.4,7.3,17.4,7.6,17.4
		C7.6,17.4,7.6,17.4,7.6,17.4z M7.6,20C7.6,20,7.6,20,7.6,20c0.3,0,0.5,0,0.8,0c0.2,0,0.2,0,0.2-0.2c0-0.5,0-0.9,0-1.4
		c0-0.2,0-0.2-0.2-0.2c-0.5,0-1,0-1.5,0c-0.1,0-0.2,0-0.2,0.2c0,0.5,0,0.9,0,1.4c0,0.2,0.1,0.2,0.2,0.2C7.1,19.9,7.4,20,7.6,20z"/>
	<path class="st0" d="M16.4,17.4c0.3,0,0.6,0,0.8,0c0.5,0,0.9,0.3,0.9,0.9c0,0.5,0,1.1,0,1.6c0,0.5-0.3,0.8-0.8,0.8
		c-0.6,0-1.2,0-1.9,0c-0.4,0-0.7-0.3-0.7-0.8c0-0.5,0-1.1,0-1.6c0-0.5,0.3-0.8,0.8-0.8C15.8,17.4,16.1,17.4,16.4,17.4
		C16.4,17.4,16.4,17.4,16.4,17.4z M16.4,20C16.4,20,16.4,20,16.4,20c0.3,0,0.5,0,0.8,0c0.1,0,0.2,0,0.2-0.2c0-0.5,0-1,0-1.5
		c0-0.1-0.1-0.2-0.2-0.2c-0.5,0-1,0-1.6,0c-0.2,0-0.2,0.1-0.2,0.2c0,0.5,0,0.9,0,1.4c0,0.1,0.1,0.2,0.2,0.2C15.9,20,16.1,20,16.4,20
		z"/>
	<path class="st0" d="M16.4,13.4c0.3,0,0.6,0,0.8,0c0.5,0,0.8,0.3,0.8,0.8c0,0.5,0,1.1,0,1.6c0,0.5-0.3,0.9-0.9,0.9
		c-0.6,0-1.1,0-1.7,0c-0.5,0-0.9-0.3-0.9-0.9c0-0.5,0-1,0-1.6c0-0.5,0.3-0.8,0.9-0.9C15.8,13.4,16.1,13.4,16.4,13.4
		C16.4,13.4,16.4,13.4,16.4,13.4z M16.4,15.9c0.3,0,0.5,0,0.8,0c0.2,0,0.2,0,0.2-0.2c0-0.5,0-0.9,0-1.4c0-0.2,0-0.2-0.2-0.2
		c-0.5,0-1,0-1.5,0c-0.1,0-0.2,0-0.2,0.2c0,0.5,0,0.9,0,1.4c0,0.2,0.1,0.2,0.2,0.2C15.9,15.9,16.1,16,16.4,15.9z"/>
	<path class="st0" d="M12,9.4c0.3,0,0.6,0,0.9,0c0.5,0,0.8,0.3,0.8,0.8c0,0.6,0,1.1,0,1.7c0,0.5-0.4,0.8-0.8,0.8c-0.6,0-1.1,0-1.7,0
		c-0.6,0-0.9-0.3-0.9-0.9c0-0.5,0-1.1,0-1.6c0-0.5,0.3-0.8,0.8-0.8C11.4,9.4,11.7,9.4,12,9.4z M13,10.1c-0.6,0-1.2,0-1.8,0
		c0,0-0.1,0.1-0.1,0.2c0,0.5,0,1,0,1.5c0,0.1,0.1,0.2,0.2,0.2c0.5,0,1,0,1.6,0c0.1,0,0.2-0.1,0.2-0.1C13,11.3,13,10.7,13,10.1z"/>
	<path class="st0" d="M7.6,16.7c-0.3,0-0.6,0-0.8,0c-0.5,0-0.8-0.3-0.8-0.8c0-0.5,0-1.1,0-1.6c0-0.5,0.3-0.8,0.8-0.8
		c0.6,0,1.2,0,1.9,0c0.4,0,0.7,0.3,0.8,0.8c0,0.6,0,1.2,0,1.7c0,0.5-0.3,0.8-0.8,0.8C8.2,16.7,7.9,16.7,7.6,16.7z M7.6,16
		c0.3,0,0.5,0,0.8,0c0.1,0,0.2-0.1,0.2-0.2c0-0.5,0-0.9,0-1.4c0-0.1,0-0.2-0.2-0.2c-0.5,0-1,0-1.6,0c-0.1,0-0.2,0.1-0.2,0.2
		c0,0.5,0,1,0,1.4c0,0.2,0.1,0.2,0.2,0.2C7.1,15.9,7.4,15.9,7.6,16z"/>
	<path class="st0" d="M13.6,19c0,0.3,0,0.6,0,0.8c0,0.4-0.3,0.8-0.7,0.8c-0.6,0-1.2,0-1.8,0c-0.4,0-0.7-0.4-0.7-0.8
		c0-0.6,0-1.1,0-1.7c0-0.5,0.3-0.8,0.8-0.8c0.6,0,1.1,0,1.7,0c0.5,0,0.8,0.3,0.8,0.8C13.6,18.5,13.6,18.8,13.6,19z M12,18.1
		c-0.2,0-0.5,0-0.7,0c-0.2,0-0.2,0.1-0.2,0.2c0,0.5,0,0.9,0,1.4c0,0.2,0,0.2,0.2,0.2c0.5,0,0.9,0,1.4,0c0.2,0,0.2-0.1,0.2-0.2
		c0-0.5,0-0.9,0-1.4c0-0.2-0.1-0.2-0.2-0.2C12.5,18.1,12.2,18.1,12,18.1z"/>
	<path class="st0" d="M10.4,15c0-0.3,0-0.5,0-0.8c0-0.5,0.3-0.8,0.8-0.8c0.5,0,1.1,0,1.6,0c0.5,0,0.9,0.3,0.9,0.9c0,0.5,0,1,0,1.6
		c0,0.5-0.3,0.8-0.8,0.8c-0.5,0-1.1,0-1.6,0c-0.5,0-0.8-0.3-0.8-0.8C10.4,15.6,10.4,15.3,10.4,15z M12.9,15c0-0.2,0-0.5,0-0.7
		c0-0.1,0-0.2-0.2-0.2c-0.5,0-1,0-1.4,0c-0.1,0-0.2,0.1-0.2,0.2c0,0.5,0,1,0,1.5c0,0.1,0.1,0.2,0.2,0.2c0.5,0,0.9,0,1.4,0
		c0.2,0,0.2-0.1,0.2-0.2C12.9,15.5,12.9,15.3,12.9,15z"/>
	<path class="st0" d="M16.4,9.4c0.3,0,0.6,0,0.9,0c0.5,0,0.8,0.3,0.8,0.8c0,0.5,0,1.1,0,1.6c0,0.5-0.3,0.8-0.8,0.8
		c-0.6,0-1.3,0-1.9,0c-0.5,0-0.7-0.4-0.7-0.8c0-0.5,0-1.1,0-1.6c0-0.6,0.3-0.9,0.9-0.9C15.8,9.4,16.1,9.4,16.4,9.4z M16.4,11.9
		C16.4,11.9,16.4,11.9,16.4,11.9c0.3,0,0.5,0,0.8,0c0.2,0,0.2,0,0.2-0.2c0-0.5,0-0.9,0-1.4c0-0.1,0-0.2-0.2-0.2c-0.5,0-1,0-1.5,0
		c-0.2,0-0.2,0-0.2,0.2c0,0.5,0,0.9,0,1.4c0,0.2,0.1,0.2,0.2,0.2C15.9,11.9,16.1,11.9,16.4,11.9z"/>
	<path class="st0" d="M7.6,9.4c0.3,0,0.6,0,0.9,0c0.5,0,0.8,0.3,0.8,0.8c0,0.6,0,1.1,0,1.7c0,0.5-0.3,0.8-0.8,0.8
		c-0.6,0-1.2,0-1.8,0c-0.4,0-0.8-0.3-0.8-0.8c0-0.6,0-1.1,0-1.7c0-0.4,0.3-0.8,0.8-0.8C7,9.4,7.3,9.4,7.6,9.4
		C7.6,9.4,7.6,9.4,7.6,9.4z M7.6,10.1C7.6,10.1,7.6,10.1,7.6,10.1c-0.2,0-0.5,0-0.7,0c-0.2,0-0.2,0.1-0.2,0.2c0,0.4,0,0.9,0,1.3
		c0,0.2,0.1,0.3,0.3,0.3c0.5,0,1,0,1.5,0c0.2,0,0.2-0.1,0.2-0.2c0-0.5,0-0.9,0-1.4c0-0.2-0.1-0.2-0.2-0.2
		C8.1,10.1,7.9,10.1,7.6,10.1z"/>
</g>
</svg>
