<svg width="22" height="22" viewBox="0 0 22 22" fill="none" xmlns="http://www.w3.org/2000/svg">
<path d="M17.476 0.666016H4.52409C2.0295 0.666016 0 2.69552 0 5.19011C0 7.69678 2.0506 9.7142 4.49711 9.7142H6.5291V6.16954C6.5291 4.5821 7.82053 3.29063 9.40792 3.29063H9.4142C10.9982 3.29403 12.2869 4.5855 12.2869 6.16954V9.7142H17.476C19.9705 9.7142 22 7.6847 22 5.19011C22 2.69552 19.9705 0.666016 17.476 0.666016ZM18.7562 4.55924L16.178 7.13737C15.9264 7.38908 15.5183 7.38912 15.2665 7.13737L13.9775 5.8483C13.7258 5.59659 13.7258 5.18852 13.9775 4.93681C14.2291 4.6851 14.6373 4.6851 14.889 4.93681L15.7223 5.7701L17.8447 3.64775C18.0964 3.39603 18.5045 3.39603 18.7562 3.64775C19.0079 3.89946 19.0079 4.30757 18.7562 4.55924Z" fill="white"/>
<path d="M15.1476 11.5281L10.9984 11.0968V6.1695C10.9984 5.29276 10.2887 4.58155 9.41192 4.57965C8.53256 4.57776 7.81868 5.2901 7.81868 6.1695V14.416H7.80424L6.2349 13.1055C5.57296 12.5527 4.5852 12.6564 4.05238 13.3345C3.54144 13.9847 3.6401 14.9234 4.27505 15.4532L7.46045 18.1113H16.8421V13.4468C16.8421 12.4713 16.1155 11.6487 15.1476 11.5281Z" fill="white"/>
<path d="M7.81836 20.6895C7.81836 21.0454 8.10694 21.334 8.46289 21.334H16.1973C16.5532 21.334 16.8418 21.0454 16.8418 20.6895V19.4004H7.81836V20.6895Z" fill="white"/>
</svg>
