<svg width="34" height="33" viewBox="0 0 34 33" fill="none" xmlns="http://www.w3.org/2000/svg">
<mask id="mask0_2419_492" style="mask-type:luminance" maskUnits="userSpaceOnUse" x="1" y="0" width="32" height="33">
<path d="M33 0.5H1V32.5H33V0.5Z" fill="white"/>
</mask>
<g mask="url(#mask0_2419_492)">
<path d="M23.5 5.19995H10.5C8 5.19995 6 7.19995 6 9.69995C6 12.2 8.1 14.2 10.5 14.2H12.5V10.7C12.5 9.09995 13.8 7.79995 15.4 7.79995C17 7.79995 18.3 9.09995 18.3 10.7V14.2H23.5C26 14.2 28 12.2 28 9.69995C28 7.19995 26 5.19995 23.5 5.19995ZM24.8 9.09995L22.2 11.7C21.9 12 21.5 12 21.3 11.7L20 10.3C19.7 9.99995 19.7 9.59995 20 9.39995C20.3 9.09995 20.7 9.09995 20.9 9.39995L21.7 10.2L23.8 8.09995C24.1 7.79995 24.5 7.79995 24.7 8.09995C25 8.39995 25 8.79995 24.8 9.09995Z" fill="#00ADEF"/>
<path d="M21.0998 16.0001L16.9998 15.6001V10.7001C16.9998 9.8001 16.2998 9.1001 15.3998 9.1001C14.4998 9.1001 13.7998 9.8001 13.7998 10.7001V18.9001L12.1998 17.6001C11.4998 17.0001 10.5998 17.2001 9.99983 17.8001C9.49983 18.5001 9.59983 19.4001 10.1998 19.9001L13.3998 22.6001H22.7998V17.9001C22.7998 17.0001 22.0998 16.1001 21.0998 16.0001Z" fill="#00ADEF"/>
<path d="M13.7992 25.1999C13.7992 25.5999 14.0992 25.7999 14.3992 25.7999H22.0992C22.4992 25.7999 22.6992 25.4999 22.6992 25.1999V23.8999H13.6992V25.1999H13.7992Z" fill="#00ADEF"/>
</g>
</svg>
