<?xml version="1.0" encoding="utf-8"?>
<!-- Generator: Adobe Illustrator 22.1.0, SVG Export Plug-In . SVG Version: 6.00 Build 0)  -->
<svg version="1.1" id="Layer_1" xmlns="http://www.w3.org/2000/svg" xmlns:xlink="http://www.w3.org/1999/xlink" x="0px" y="0px"
	 viewBox="0 0 24 24" style="enable-background:new 0 0 24 24;" xml:space="preserve">
<style type="text/css">
	.st0{fill:#FD7636;}
</style>
<g>
	<path class="st0" d="M11.8,11.6c1.6,0,3-0.6,4.1-1.7s1.7-2.5,1.7-4.1s-0.6-3-1.7-4.1S13.4,0,11.8,0s-3,0.6-4.1,1.7S6.1,4.2,6.1,5.8
		s0.6,3,1.7,4.1S10.3,11.6,11.8,11.6z"/>
	<path class="st0" d="M22,18.5c0-0.5-0.1-1-0.2-1.5s-0.2-1.1-0.4-1.5c-0.2-0.5-0.4-1-0.6-1.4c-0.3-0.5-0.6-0.9-0.9-1.2
		c-0.4-0.4-0.8-0.6-1.4-0.9c-0.5-0.2-1.1-0.3-1.7-0.3c-0.2,0-0.5,0.1-0.9,0.4c-0.3,0.2-0.6,0.4-1,0.6c-0.3,0.2-0.7,0.4-1.3,0.6
		c-0.5,0.2-1,0.3-1.5,0.3s-1-0.1-1.5-0.3s-1-0.4-1.3-0.6c-0.4-0.2-0.7-0.4-1-0.6c-0.5-0.3-0.7-0.4-0.9-0.4c-0.6,0-1.2,0.1-1.7,0.3
		s-1,0.5-1.4,0.9c-0.4,0.3-0.7,0.8-0.9,1.2c-0.3,0.5-0.5,0.9-0.6,1.4s-0.3,1-0.4,1.5c-0.1,0.5-0.2,1-0.2,1.5s0,0.9,0,1.4
		c0,1.3,0.4,2.3,1.2,3C3.9,23.6,5,24,6.2,24h11.6c1.2,0,2.3-0.4,3-1.1c0.8-0.7,1.2-1.8,1.2-3C22,19.4,22,18.9,22,18.5z"/>
</g>
</svg>
