<svg width="33" height="33" viewBox="0 0 33 33" fill="none" xmlns="http://www.w3.org/2000/svg">
<g clip-path="url(#clip0_1970_1444)">
<path d="M23 5.19995H10C7.5 5.19995 5.5 7.19995 5.5 9.69995C5.5 12.2 7.6 14.2 10 14.2H12V10.7C12 9.09995 13.3 7.79995 14.9 7.79995C16.5 7.79995 17.8 9.09995 17.8 10.7V14.2H23C25.5 14.2 27.5 12.2 27.5 9.69995C27.5 7.19995 25.5 5.19995 23 5.19995ZM24.3 9.09995L21.7 11.7C21.4 12 21 12 20.8 11.7L19.5 10.3C19.2 9.99995 19.2 9.59995 19.5 9.39995C19.8 9.09995 20.2 9.09995 20.4 9.39995L21.2 10.2L23.3 8.09995C23.6 7.79995 24 7.79995 24.2 8.09995C24.5 8.39995 24.5 8.79995 24.3 9.09995Z" fill="#FCC85E"/>
<path d="M20.5998 16.0001L16.4998 15.6001V10.7001C16.4998 9.8001 15.7998 9.1001 14.8998 9.1001C13.9998 9.1001 13.2998 9.8001 13.2998 10.7001V18.9001L11.6998 17.6001C10.9998 17.0001 10.0998 17.2001 9.49983 17.8001C8.99983 18.5001 9.09983 19.4001 9.69983 19.9001L12.8998 22.6001H22.2998V17.9001C22.2998 17.0001 21.5998 16.1001 20.5998 16.0001Z" fill="#FCC85E"/>
<path d="M13.2992 25.1999C13.2992 25.5999 13.5992 25.7999 13.8992 25.7999H21.5992C21.9992 25.7999 22.1992 25.4999 22.1992 25.1999V23.8999H13.1992V25.1999H13.2992Z" fill="#FCC85E"/>
</g>
<defs>
<clipPath id="clip0_1970_1444">
<rect width="32" height="32" fill="white" transform="translate(0.5 0.5)"/>
</clipPath>
</defs>
</svg>
