<svg width="33" height="33" viewBox="0 0 33 33" fill="none" xmlns="http://www.w3.org/2000/svg">
<g clip-path="url(#clip0_1970_1441)">
<path d="M24.9006 17.2V8.1C24.9006 7.8 24.6006 7.5 24.3006 7.5H8.60061C8.30061 7.5 8.00061 7.8 8.00061 8.1V17.9C7.70061 17.9 7.40061 18.1 7.20061 18.2C6.40061 18.7 6.20061 20 6.90061 20.7L9.50061 24C11.1006 25.9 12.9006 26.2 15.5006 26.2C17.7006 26.2 18.7006 26.2 20.7006 25.8L22.6006 25.3C22.9006 25.7 23.4006 26 23.9006 26H24.8006C25.7006 26 26.5006 25.2 26.5006 24.2V18.9C26.5006 18 25.8006 17.3 24.9006 17.2ZM22.3006 18.4L21.5006 18C20.2006 17.3 18.7006 17.3 17.4006 17.9C17.0006 18 16.3006 18.5 15.9006 18.5H13.2006C12.3006 18.5 11.6006 19.2 11.6006 20.1V20.5L9.60061 18.5C9.50061 18.4 9.40061 18.3 9.20061 18.2V12.4H14.0006V14.5C14.0006 14.8 14.3006 15.1 14.6006 15.1H18.3006C18.6006 15.1 18.9006 14.8 18.9006 14.5V12.3H23.8006V17.2C23.1006 17.2 22.5006 17.7 22.3006 18.4ZM15.2006 12.3H17.7006V13.9H15.2006V12.3ZM23.8006 11.1H18.9006V8.7H23.8006V11.1ZM17.7006 8.7V11.2H15.2006V8.7H17.7006ZM14.0006 8.7V11.2H9.20061V8.7H14.0006ZM20.4006 24.6C18.6006 25 17.5006 25 15.5006 25C13.1006 25 11.9006 25 10.4006 23.3L7.80061 20.1C7.30061 19.5 8.20061 18.8 8.70061 19.3L10.6006 21.4C11.1006 21.9 11.8006 22.2 12.6006 22.3H18.0006C18.3006 22.3 18.6006 22 18.6006 21.7C18.6006 21.4 18.3006 21.1 18.0006 21.1H12.7006V20.2C12.7006 19.9 12.9006 19.7 13.2006 19.7H15.9006C16.5006 19.7 17.4006 19.2 17.9006 19C18.9006 18.5 20.0006 18.6 21.0006 19L22.2006 19.6V24.1L20.4006 24.6ZM25.3006 24.2C25.3006 24.5 25.1006 24.8 24.8006 24.8H23.9006C23.6006 24.8 23.4006 24.5 23.4006 24.2V18.9C23.4006 18.6 23.6006 18.3 23.9006 18.3H24.8006C25.1006 18.3 25.3006 18.6 25.3006 18.9V24.2Z" fill="#FCC85E"/>
</g>
<defs>
<clipPath id="clip0_1970_1441">
<rect width="32" height="32" fill="white" transform="translate(0.5 0.5)"/>
</clipPath>
</defs>
</svg>
