<svg width="24" height="25" viewBox="0 0 24 25" fill="none" xmlns="http://www.w3.org/2000/svg">
<g clip-path="url(#clip0_1970_1431)">
<mask id="mask0_1970_1431" style="mask-type:luminance" maskUnits="userSpaceOnUse" x="0" y="0" width="24" height="25">
<path d="M23.1405 0.678955H0.912109V24.0398H23.1405V0.678955Z" fill="white"/>
</mask>
<g mask="url(#mask0_1970_1431)">
<path d="M1.5293 1.1813C1.58195 1.33642 1.6313 1.49233 1.67578 1.65103C1.68801 1.81428 1.68928 1.97816 1.6748 2.14127L1.67285 2.16373V22.8854L1.92188 23.0299C2.28405 23.2399 2.70676 23.3172 3.11914 23.2526H21.8447L21.8916 23.2438C22.0041 23.2225 22.119 23.2206 22.2314 23.2389L22.3438 23.2643C22.4492 23.2945 22.5485 23.3421 22.6377 23.4049C22.6381 23.409 22.6396 23.4121 22.6396 23.4147C22.6397 23.4207 22.6387 23.4235 22.6387 23.4235L22.5928 23.4723C22.574 23.4884 22.5477 23.5079 22.5117 23.5309H2.07227C2.01198 23.5309 1.95219 23.5322 1.90039 23.5338C1.84606 23.5356 1.79925 23.5374 1.75391 23.5378C1.66325 23.5385 1.60096 23.5344 1.55273 23.5241C1.50928 23.5147 1.48164 23.5009 1.45898 23.484C1.44682 23.4749 1.43121 23.4597 1.41211 23.4362V1.23013C1.4206 1.21789 1.42799 1.20816 1.43457 1.20083C1.44288 1.19159 1.44916 1.18641 1.45215 1.18423C1.45458 1.18251 1.45703 1.1813 1.45703 1.1813C1.45703 1.1813 1.46197 1.18035 1.46875 1.17935C1.47648 1.17823 1.49048 1.17693 1.51172 1.17837C1.5172 1.17875 1.52294 1.18056 1.5293 1.1813Z" fill="#FCC85E" stroke="#FCC85E"/>
<path d="M16.7214 9.03506L16.347 7.98483C16.6667 6.64236 17.4703 5.97569 18.4475 6.15834C19.4247 6.34099 20.0183 7.31816 19.6804 8.68803L23.105 12.5419V13.2816L22.2922 13.4552L18.7397 9.54648L17.8265 9.71087C17.4886 10.3136 17.1324 10.9255 16.7854 11.5373L13.8813 16.688C13.7418 17.013 13.479 17.2692 13.1507 17.4004C12.7032 17.3273 12.4931 16.9438 12.2374 16.615L8.33784 11.3912C8.21742 11.2417 8.08939 11.0984 7.95428 10.962L4.40175 13.1812C4.26481 13.2972 4.1028 13.3799 3.92848 13.4227C3.75416 13.4655 3.57229 13.4672 3.39718 13.4278C3.30586 13.309 3.19627 13.1447 3.04102 12.9072C3.16226 12.6876 3.31973 12.49 3.50677 12.3227C5.02276 11.3638 6.52961 10.4323 7.99994 9.50995C8.16579 9.52685 8.32573 9.58075 8.46798 9.66768C8.61023 9.75461 8.73116 9.87236 8.82186 10.0122L12.5936 15.0442C12.7214 15.1995 12.8584 15.3456 12.9954 15.5008C14.3818 13.435 15.6326 11.2813 16.7397 9.05333M17.7077 8.3136H18.5023V7.55561H17.6712C17.6712 7.84785 17.6712 8.05789 17.6712 8.3136" fill="#FCC85E"/>
</g>
</g>
<defs>
<clipPath id="clip0_1970_1431">
<rect width="23" height="24" fill="white" transform="translate(0.5 0.5)"/>
</clipPath>
</defs>
</svg>
