<svg width="20" height="20" viewBox="0 0 20 20" fill="none" xmlns="http://www.w3.org/2000/svg">
<path d="M10 6.25C9.78437 6.25 9.60938 6.425 9.60938 6.64062C9.60938 6.85625 9.78437 7.03125 10 7.03125C10.2156 7.03125 10.3906 6.85625 10.3906 6.64062C10.3906 6.425 10.2156 6.25 10 6.25Z" fill="white"/>
<path d="M0.390625 20H19.6094C19.8251 20 20 19.8251 20 19.6094V18.0469C20 17.8311 19.8251 17.6562 19.6094 17.6562H19.2188V16.4844C19.2188 16.2686 19.0438 16.0938 18.8281 16.0938H18.4375V14.9219C18.4375 14.7061 18.2626 14.5312 18.0469 14.5312H17.6562V10.1562H18.0469C18.2626 10.1562 18.4375 9.98137 18.4375 9.76562V8.59375H19.6094C19.8251 8.59375 20 8.41887 20 8.20312V6.64062C20 6.63879 19.9998 6.63707 19.9997 6.63523C19.9979 6.50223 19.9301 6.38469 19.8248 6.31488C19.8239 6.31434 19.8232 6.31371 19.8223 6.31316L10.213 0.0631641C10.0835 -0.0210547 9.91648 -0.0210547 9.78703 0.0631641L0.177656 6.31316C0.0716016 6.38203 0 6.50496 0 6.64062V8.20312C0 8.41887 0.174922 8.59375 0.390625 8.59375H1.5625V9.76562C1.5625 9.98137 1.73742 10.1562 1.95312 10.1562H2.34375V14.5312H1.95312C1.73742 14.5312 1.5625 14.7061 1.5625 14.9219V16.0938H1.17188C0.956172 16.0938 0.78125 16.2686 0.78125 16.4844V17.6562H0.390625C0.174922 17.6562 0 17.8311 0 18.0469V19.6094C0 19.8251 0.174922 20 0.390625 20ZM13.75 17.6562V16.875H18.4375V17.6562H13.75ZM7.03125 17.6562V16.875H12.9688V17.6562H7.03125ZM5.85938 14.5312H5.46875V10.1562H5.85938C6.07508 10.1562 6.25 9.98137 6.25 9.76562V8.59375H13.75V9.76562C13.75 9.98137 13.9249 10.1562 14.1406 10.1562H14.5312V14.5312H14.1406C13.9249 14.5312 13.75 14.7061 13.75 14.9219V16.0938C13.4768 16.0938 13.242 16.0938 12.9688 16.0938V9.76562C12.9688 9.54988 12.7938 9.375 12.5781 9.375H7.42188C7.20617 9.375 7.03125 9.54988 7.03125 9.76562V16.0938C6.75801 16.0938 6.52324 16.0938 6.25 16.0938V14.9219C6.25 14.7061 6.07508 14.5312 5.85938 14.5312ZM10.3906 16.0938V10.1562H12.1875V16.0938H10.3906ZM7.8125 16.0938V10.1562H9.60938V16.0938H7.8125ZM14.5312 16.0938V15.3125H17.6562V16.0938H14.5312ZM16.875 14.5312H15.3125V10.1562H16.875V14.5312ZM17.6562 9.375H14.5312V8.59375H17.6562V9.375ZM0.78125 7.03125H8.4375C8.6532 7.03125 8.82812 6.85637 8.82812 6.64062C8.82812 6.42488 8.6532 6.25 8.4375 6.25H1.70766L10 0.856602L18.2923 6.25H11.5625C11.3468 6.25 11.1719 6.42488 11.1719 6.64062C11.1719 6.85637 11.3468 7.03125 11.5625 7.03125H19.2188V7.8125H0.78125V7.03125ZM5.46875 8.59375V9.375H2.34375V8.59375H5.46875ZM4.6875 10.1562V14.5312H3.125V10.1562H4.6875ZM2.34375 15.3125C3.30289 15.3125 4.50879 15.3125 5.46875 15.3125V16.0938H2.34375V15.3125ZM1.5625 16.875H6.25V17.6562H1.5625V16.875ZM0.78125 18.4375H19.2188V19.2188H0.78125V18.4375Z" fill="white"/>
<path d="M10 5.46875C10.8616 5.46875 11.5625 4.76781 11.5625 3.90625C11.5625 3.87875 11.5619 3.85176 11.5604 3.82477C11.5176 2.99414 10.8325 2.34375 10 2.34375C9.13844 2.34375 8.4375 3.04469 8.4375 3.90625C8.4375 4.76781 9.13844 5.46875 10 5.46875ZM10 3.125C10.4165 3.125 10.7593 3.45039 10.7802 3.86574C10.7803 3.86691 10.7803 3.86805 10.7804 3.86922C10.7811 3.88148 10.7812 3.89375 10.7812 3.90625C10.7812 4.33703 10.4308 4.6875 10 4.6875C9.56922 4.6875 9.21875 4.33703 9.21875 3.90625C9.21875 3.47547 9.56922 3.125 10 3.125Z" fill="white"/>
</svg>
