<?xml version="1.0" encoding="utf-8"?>
<!-- Generator: Adobe Illustrator 24.3.0, SVG Export Plug-In . SVG Version: 6.00 Build 0)  -->
<svg version="1.1" id="Layer_1" xmlns="http://www.w3.org/2000/svg" xmlns:xlink="http://www.w3.org/1999/xlink" x="0px" y="0px"
	 viewBox="0 0 32 32" style="enable-background:new 0 0 32 32;" xml:space="preserve">
<style type="text/css">
	.st0{fill:#FFFFFF;}
	.st1{fill:#3F8E1E;}
</style>
<path class="st0" d="M10,0h12c5.5,0,10,4.5,10,10v12c0,5.5-4.5,10-10,10H10C4.5,32,0,27.5,0,22V10C0,4.5,4.5,0,10,0z"/>
<path class="st1" d="M16,12.2c-0.2,0-0.4,0.2-0.4,0.4S15.8,13,16,13c0.2,0,0.4-0.2,0.4-0.4S16.2,12.2,16,12.2z"/>
<path class="st1" d="M6.4,26h19.2c0.2,0,0.4-0.2,0.4-0.4V24c0-0.2-0.2-0.4-0.4-0.4h-0.4v-1.2c0-0.2-0.2-0.4-0.4-0.4h-0.4v-1.2
	c0-0.2-0.2-0.4-0.4-0.4h-0.4v-4.4H24c0.2,0,0.4-0.2,0.4-0.4v-1.2h1.2c0.2,0,0.4-0.2,0.4-0.4v-1.6c0,0,0,0,0,0c0-0.1-0.1-0.3-0.2-0.3
	c0,0,0,0,0,0l-9.6-6.3c-0.1-0.1-0.3-0.1-0.4,0l-9.6,6.3C6.1,12.4,6,12.5,6,12.6v1.6c0,0.2,0.2,0.4,0.4,0.4h1.2v1.2
	c0,0.2,0.2,0.4,0.4,0.4h0.4v4.4H8c-0.2,0-0.4,0.2-0.4,0.4v1.2H7.2c-0.2,0-0.4,0.2-0.4,0.4v1.2H6.4C6.2,23.7,6,23.8,6,24v1.6
	C6,25.8,6.2,26,6.4,26z M19.8,23.7v-0.8h4.7v0.8H19.8z M13,23.7v-0.8H19v0.8H13z M11.9,20.5h-0.4v-4.4h0.4c0.2,0,0.4-0.2,0.4-0.4
	v-1.2h7.5v1.2c0,0.2,0.2,0.4,0.4,0.4h0.4v4.4h-0.4c-0.2,0-0.4,0.2-0.4,0.4v1.2c-0.3,0-0.5,0-0.8,0v-6.3c0-0.2-0.2-0.4-0.4-0.4h-5.2
	c-0.2,0-0.4,0.2-0.4,0.4v6.3c-0.3,0-0.5,0-0.8,0v-1.2C12.2,20.7,12.1,20.5,11.9,20.5z M16.4,22.1v-5.9h1.8v5.9H16.4z M13.8,22.1
	v-5.9h1.8v5.9H13.8z M20.5,22.1v-0.8h3.1v0.8H20.5z M22.9,20.5h-1.6v-4.4h1.6V20.5z M23.7,15.4h-3.1v-0.8h3.1V15.4z M6.8,13h7.7
	c0.2,0,0.4-0.2,0.4-0.4c0-0.2-0.2-0.4-0.4-0.4H7.7L16,6.9l8.3,5.4h-6.7c-0.2,0-0.4,0.2-0.4,0.4c0,0.2,0.2,0.4,0.4,0.4h7.7v0.8H6.8
	V13z M11.5,14.6v0.8H8.3v-0.8H11.5z M10.7,16.2v4.4H9.1v-4.4H10.7z M8.3,21.3c1,0,2.2,0,3.1,0v0.8H8.3V21.3z M7.6,22.9h4.7v0.8H7.6
	V22.9z M6.8,24.4h18.4v0.8H6.8V24.4z"/>
<path class="st1" d="M16,11.5c0.9,0,1.6-0.7,1.6-1.6c0,0,0-0.1,0-0.1c0-0.8-0.7-1.5-1.6-1.5c-0.9,0-1.6,0.7-1.6,1.6
	C14.4,10.8,15.1,11.5,16,11.5z M16,9.1c0.4,0,0.8,0.3,0.8,0.7c0,0,0,0,0,0c0,0,0,0,0,0c0,0.4-0.4,0.8-0.8,0.8
	c-0.4,0-0.8-0.4-0.8-0.8C15.2,9.5,15.6,9.1,16,9.1z"/>
</svg>
