<?xml version="1.0" encoding="utf-8"?>
<!-- Generator: Adobe Illustrator 24.3.0, SVG Export Plug-In . SVG Version: 6.00 Build 0)  -->
<svg version="1.1" id="Layer_1" xmlns="http://www.w3.org/2000/svg" xmlns:xlink="http://www.w3.org/1999/xlink" x="0px" y="0px"
	 viewBox="0 0 24 24" style="enable-background:new 0 0 24 24;" xml:space="preserve">
<style type="text/css">
	.st0{fill:#FFFFFF;}
	.st1{fill:#317D3D;}
</style>
<path class="st0" d="M21.4,23.6H2.6c-1.2,0-2.2-1-2.2-2.2V2.6c0-1.2,1-2.2,2.2-2.2h18.8c1.2,0,2.2,1,2.2,2.2v18.8
	C23.6,22.6,22.6,23.6,21.4,23.6z"/>
<path class="st1" d="M16.3,2.2H3.4C2,2.2,0.8,3.3,0.8,4.7v11.3c0,0.5,0.6,0.8,1,0.5L5.5,14c0.3-0.2,0.7-0.3,1-0.3h7.9
	c1.4,0,2.5-1.1,2.5-2.5V2.9C16.9,2.5,16.6,2.2,16.3,2.2z M13.1,10.1H5.5c-0.4,0-0.7-0.3-0.7-0.7c0-0.4,0.3-0.7,0.7-0.7h7.6
	c0.4,0,0.7,0.3,0.7,0.7C13.8,9.8,13.5,10.1,13.1,10.1z M13.1,7.1H5.5c-0.4,0-0.7-0.3-0.7-0.7c0-0.4,0.3-0.7,0.7-0.7h7.6
	c0.4,0,0.7,0.3,0.7,0.7C13.8,6.8,13.5,7.1,13.1,7.1z"/>
<path class="st1" d="M23.2,9.8v11.3c0,0.5-0.6,0.8-1,0.5l-3.6-2.6c-0.3-0.2-0.7-0.3-1-0.3H9.6c-1.4,0-2.5-1.1-2.5-2.5V15h7.3
	c2.1,0,3.8-1.7,3.8-3.8V7.3h2.4C22,7.3,23.2,8.4,23.2,9.8L23.2,9.8z"/>
</svg>
