<svg width="24" height="24" viewBox="0 0 24 24" fill="none" xmlns="http://www.w3.org/2000/svg">
<g clip-path="url(#clip0)">
<path d="M15.0194 2.827H5.79785C5.60365 2.827 5.44629 2.98436 5.44629 3.17856C5.44629 3.37276 5.60365 3.53012 5.79785 3.53012H15.0194C15.2136 3.53012 15.371 3.37276 15.371 3.17856C15.371 2.98436 15.2136 2.827 15.0194 2.827Z" fill="white"/>
<path d="M15.0194 6.33267H5.79785C5.60365 6.33267 5.44629 6.49003 5.44629 6.68423C5.44629 6.87844 5.60365 7.0358 5.79785 7.0358H15.0194C15.2136 7.0358 15.371 6.87844 15.371 6.68423C15.371 6.49003 15.2136 6.33267 15.0194 6.33267Z" fill="white"/>
<path d="M15.0194 9.83841H5.79785C5.60365 9.83841 5.44629 9.99577 5.44629 10.19C5.44629 10.3842 5.60365 10.5415 5.79785 10.5415H15.0194C15.2136 10.5415 15.371 10.3842 15.371 10.19C15.371 9.99577 15.2136 9.83841 15.0194 9.83841Z" fill="white"/>
<path d="M17.4104 12.4026C14.6511 12.4026 12.4062 14.6474 12.4062 17.4067C12.4062 20.166 14.651 22.4109 17.4104 22.4109C20.1697 22.4109 22.4145 20.166 22.4145 17.4067C22.4145 14.6474 20.1697 12.4026 17.4104 12.4026ZM17.4104 21.7078C15.0388 21.7078 13.1094 19.7784 13.1094 17.4067C13.1094 15.0351 15.0388 13.1057 17.4104 13.1057C19.782 13.1057 21.7114 15.0351 21.7114 17.4067C21.7114 19.7784 19.7819 21.7078 17.4104 21.7078Z" fill="white"/>
<path d="M17.4111 14.5376C17.6053 14.5376 17.7627 14.3803 17.7627 14.1861V14.025C17.7627 13.8308 17.6053 13.6734 17.4111 13.6734C17.2169 13.6734 17.0596 13.8308 17.0596 14.025V14.1861C17.0596 14.3803 17.2169 14.5376 17.4111 14.5376Z" fill="white"/>
<path d="M19.5539 14.7669L19.44 14.8807C19.3026 15.018 19.3026 15.2406 19.4398 15.3779C19.577 15.5151 19.7996 15.5154 19.937 15.378L20.0509 15.2642C20.1882 15.1269 20.1883 14.9043 20.051 14.767C19.9137 14.6296 19.6911 14.6297 19.5539 14.7669Z" fill="white"/>
<path d="M20.2803 17.4067C20.2803 17.6009 20.4376 17.7583 20.6318 17.7583H20.7929C20.9871 17.7583 21.1445 17.6009 21.1445 17.4067C21.1445 17.2125 20.9871 17.0552 20.7929 17.0552H20.6318C20.4376 17.0552 20.2803 17.2126 20.2803 17.4067Z" fill="white"/>
<path d="M14.1904 17.0552H14.0293C13.8351 17.0552 13.6777 17.2125 13.6777 17.4067C13.6777 17.6009 13.8351 17.7583 14.0293 17.7583H14.1904C14.3846 17.7583 14.5419 17.6009 14.5419 17.4067C14.5419 17.2125 14.3845 17.0552 14.1904 17.0552Z" fill="white"/>
<path d="M19.937 19.4356C19.7996 19.2982 19.577 19.2983 19.4398 19.4357C19.3026 19.573 19.3026 19.7956 19.44 19.9329L19.5539 20.0467C19.691 20.1839 19.9137 20.184 20.051 20.0466C20.1883 19.9093 20.1882 19.6867 20.0509 19.5494L19.937 19.4356Z" fill="white"/>
<path d="M17.4111 20.2759C17.2169 20.2759 17.0596 20.4333 17.0596 20.6275V20.7885C17.0596 20.9827 17.2169 21.1401 17.4111 21.1401C17.6053 21.1401 17.7627 20.9827 17.7627 20.7885V20.6275C17.7627 20.4333 17.6053 20.2759 17.4111 20.2759Z" fill="white"/>
<path d="M14.8848 19.4355L14.7709 19.5494C14.6336 19.6867 14.6336 19.9093 14.7709 20.0466C14.9083 20.1839 15.1308 20.1839 15.2681 20.0466L15.382 19.9327C15.5193 19.7954 15.5193 19.5728 15.382 19.4355C15.2447 19.2983 15.0221 19.2983 14.8848 19.4355Z" fill="white"/>
<path d="M15.2681 14.7669C15.1308 14.6297 14.9082 14.6297 14.7709 14.7669C14.6336 14.9043 14.6336 15.1268 14.7709 15.2641L14.8848 15.378C15.0222 15.5153 15.2447 15.5152 15.382 15.378C15.5193 15.2406 15.5193 15.0181 15.382 14.8808L15.2681 14.7669Z" fill="white"/>
<path d="M18.3694 17.0552H17.7627V15.5512C17.7627 15.357 17.6053 15.1997 17.4111 15.1997C17.2169 15.1997 17.0596 15.357 17.0596 15.5512V17.4067C17.0596 17.6009 17.2169 17.7583 17.4111 17.7583H18.3694C18.5636 17.7583 18.7209 17.6009 18.7209 17.4067C18.7209 17.2125 18.5636 17.0552 18.3694 17.0552Z" fill="white"/>
<path d="M22.7588 13.5578C22.6452 13.4003 22.4255 13.3648 22.268 13.4782C22.1105 13.5918 22.0749 13.8115 22.1884 13.969C22.9136 14.9748 23.2969 16.1636 23.2969 17.4071C23.2969 20.6527 20.6564 23.2932 17.4109 23.2932C14.1653 23.2932 11.5248 20.6527 11.5248 17.4071C11.5248 14.1616 14.1653 11.5211 17.4109 11.5211C18.842 11.5211 20.2216 12.0412 21.2955 12.9855C21.4413 13.1136 21.6635 13.0995 21.7917 12.9536C21.9199 12.8078 21.9057 12.5856 21.7598 12.4574C20.6038 11.4409 19.1314 10.8639 17.5958 10.8209V5.32628H20.5978C20.9722 5.32628 21.2769 5.0216 21.2769 4.64711V2.19663C21.2769 0.961425 20.2537 0.00442505 19.1209 0.00442505H10.8583C10.6641 0.00442505 10.5067 0.161784 10.5067 0.355988C10.5067 0.550191 10.6641 0.70755 10.8583 0.70755H17.4779C17.115 1.09886 16.8926 1.62213 16.8926 2.19663V10.8383C15.0025 10.9861 13.3338 11.9348 12.2266 13.3445H5.79802C5.60381 13.3445 5.44645 13.5018 5.44645 13.696C5.44645 13.8903 5.60381 14.0476 5.79802 14.0476H11.7446C11.3459 14.7176 11.0623 15.4637 10.922 16.2587H3.64612V1.81971C3.64612 1.20649 4.14506 0.70755 4.75828 0.70755H9.45263C9.64683 0.70755 9.80419 0.550191 9.80419 0.355988C9.80419 0.161784 9.64683 0.00442505 9.45263 0.00442505H4.75828C3.75731 0.00442505 2.943 0.818738 2.943 1.81971V16.2587H0.351562C0.157359 16.2587 0 16.4161 0 16.6103V17.2917C0 18.9205 1.32516 20.2456 2.95392 20.2456H4.08614C4.28034 20.2456 4.4377 20.0882 4.4377 19.894C4.4377 19.6998 4.28034 19.5424 4.08614 19.5424H2.95392C1.71281 19.5424 0.703125 18.5328 0.703125 17.2917V16.9618H10.837C10.8271 17.1091 10.8217 17.2575 10.8217 17.4071C10.8217 18.1542 10.9469 18.8725 11.177 19.5424H5.49178C5.29758 19.5424 5.14022 19.6998 5.14022 19.894C5.14022 20.0882 5.29758 20.2456 5.49178 20.2456H11.4651C12.5274 22.462 14.7933 23.9964 17.4108 23.9964C21.0441 23.9964 24 21.0404 24 17.4072C24 16.0151 23.5708 14.684 22.7588 13.5578ZM20.5738 2.19663V4.62316H17.5958V2.19663C17.5958 1.37552 18.2637 0.70755 19.0848 0.70755C19.9058 0.70755 20.5738 1.37552 20.5738 2.19663Z" fill="white"/>
</g>
<defs>
<clipPath id="clip0">
<rect width="24" height="24" fill="white"/>
</clipPath>
</defs>
</svg>
