<svg width="22" height="22" viewBox="0 0 22 22" fill="none" xmlns="http://www.w3.org/2000/svg">
<g clip-path="url(#clip0_1970_1427)">
<path d="M17.0802 11.6801V1.82007C17.0803 1.6653 17.0195 1.51673 16.911 1.40637C16.8025 1.296 16.655 1.23269 16.5002 1.23007H1.84023C1.76192 1.22874 1.68412 1.24302 1.61138 1.27207C1.53864 1.30113 1.47241 1.34438 1.41656 1.3993C1.36071 1.45422 1.31636 1.51971 1.28608 1.59195C1.25581 1.66419 1.24022 1.74174 1.24023 1.82007V15.2401C1.24023 15.3992 1.30345 15.5518 1.41597 15.6643C1.52849 15.7769 1.6811 15.8401 1.84023 15.8401H11.9402C11.8719 16.7265 12.0647 17.6135 12.4949 18.3915C12.9251 19.1696 13.5738 19.8045 14.3609 20.218C15.1479 20.6314 16.0389 20.8052 16.9236 20.7179C17.8084 20.6306 18.6482 20.286 19.3392 19.7267C20.0303 19.1673 20.5424 18.4178 20.8122 17.5707C21.082 16.7236 21.0977 15.816 20.8574 14.9601C20.6171 14.1041 20.1313 13.3373 19.46 12.7544C18.7888 12.1715 17.9614 11.798 17.0802 11.6801ZM16.5002 19.5501C15.6091 19.5501 14.7545 19.1961 14.1244 18.5659C13.4942 17.9358 13.1402 17.0812 13.1402 16.1901C13.1402 15.2989 13.4942 14.4443 14.1244 13.8142C14.7545 13.1841 15.6091 12.8301 16.5002 12.8301C17.3914 12.8301 18.246 13.1841 18.8761 13.8142C19.5062 14.4443 19.8602 15.2989 19.8602 16.1901C19.8602 17.0812 19.5062 17.9358 18.8761 18.5659C18.246 19.1961 17.3914 19.5501 16.5002 19.5501ZM2.44023 2.42007H6.57023V7.63007C6.57022 7.70971 6.58607 7.78855 6.61684 7.86201C6.64762 7.93546 6.69271 8.00206 6.74949 8.0579C6.80627 8.11375 6.8736 8.15774 6.94755 8.1873C7.02151 8.21685 7.1006 8.23139 7.18023 8.23007C7.29347 8.23253 7.40488 8.20119 7.50023 8.14007L9.17023 7.04007L10.8302 8.14007C10.9625 8.22576 11.1227 8.25696 11.2774 8.22713C11.4322 8.19731 11.5693 8.10877 11.6602 7.98007C11.729 7.87657 11.7639 7.75427 11.7602 7.63007V2.42007H15.8802V11.7201C15.0426 11.8248 14.2507 12.161 13.5936 12.691C12.9364 13.2209 12.4401 13.9236 12.1602 14.7201H2.44023V2.42007ZM10.5602 6.50007L9.50023 5.83007C9.40181 5.76676 9.28726 5.7331 9.17023 5.7331C9.05321 5.7331 8.93866 5.76676 8.84023 5.83007L7.77023 6.50007V2.42007H10.5602V6.50007Z" fill="#FCC85E"/>
<path d="M18.4991 16.72H17.0691V14.92C17.073 14.8359 17.0603 14.7519 17.0318 14.6728C17.0033 14.5936 16.9595 14.5209 16.9028 14.4586C16.8462 14.3964 16.7778 14.346 16.7017 14.3102C16.6256 14.2744 16.5431 14.2539 16.4591 14.25C16.2893 14.242 16.1234 14.3018 15.9977 14.4162C15.8721 14.5306 15.797 14.6902 15.7891 14.86V17.36C15.7891 17.444 15.8056 17.5272 15.8378 17.6049C15.8699 17.6825 15.9171 17.7531 15.9765 17.8125C16.0359 17.8719 16.1065 17.9191 16.1841 17.9513C16.2618 17.9834 16.345 18 16.4291 18H18.4991C18.6688 18 18.8316 17.9325 18.9516 17.8125C19.0716 17.6925 19.1391 17.5297 19.1391 17.36C19.1391 17.1902 19.0716 17.0274 18.9516 16.9074C18.8316 16.7874 18.6688 16.72 18.4991 16.72Z" fill="#FCC85E"/>
</g>
<defs>
<clipPath id="clip0_1970_1427">
<rect width="21.27" height="20.98" fill="white" transform="translate(0.5 0.5)"/>
</clipPath>
</defs>
</svg>
