<svg width="200" height="200" viewBox="0 0 200 200" fill="none" xmlns="http://www.w3.org/2000/svg">
<path d="M95.5001 172.5C94.7001 171.6 93.5001 171.5 92.5001 171.1C85.6001 168.3 81.3001 163.1 79.2001 156.1C77.3001 155 75.3001 155.5 73.5001 155.4C63.9001 155.4 54.2001 155.4 44.6001 155.4C43.3001 155.4 41.9001 155.5 40.6001 155.4C36.7001 155 35.2001 151.9 37.4001 148.5C38.0001 147.6 38.8001 146.7 39.6001 145.9C50.7001 132.9 56.1001 117.8 56.0001 100.7C56.0001 94.1 55.5001 87.5 56.8001 80.9C59.9001 65.3 68.7001 54.4 83.1001 47.9C84.3001 47.4 85.5001 46.8 86.6001 46.4C87.8001 44.2 87.1001 41.8 87.3001 39.6C88.0001 32.5 93.0001 27.6 99.9001 27.6C106.7 27.6 111.9 32.5 112.4 39.6C112.6 41.7 112.6 43.7 112.7 45.6C114 47.2 115.8 47.4 117.3 48.1C134.2 56.2 143 69.6 143.9 88.2C144.1 92.7 143.9 97.3 143.9 101.8C143.9 118.3 149.3 132.8 159.9 145.4C161.8 147.7 164.6 149.8 162.9 153.2C161.3 156.4 158 155.3 155.2 155.4C143.9 155.5 132.6 155.4 121.7 155.4C119.8 156.6 119.9 158.3 119.3 159.6C116.9 164.8 113.1 168.5 107.9 170.9C106.7 171.4 105.3 171.4 104.4 172.5C101.5 172.5 98.5001 172.5 95.5001 172.5ZM50.9001 146.5C83.6001 146.5 116.3 146.5 149 146.5C149.2 144.7 148 143.8 147.3 142.7C141.3 133.2 137.6 122.9 136 111.7C134.9 104 135.2 96.3 135.3 88.5C135.6 69.5 119.4 52.6 99.1001 53C81.0001 53.4 64.9001 68.5 64.7001 87.3C64.6001 92 64.7001 96.7 64.7001 101.5C64.5001 116.1 60.7001 129.8 53.0001 142.2C52.2001 143.4 50.9001 144.5 50.9001 146.5ZM88.5001 155.6C91.9001 162.3 95.9001 164.5 102.3 163.6C106.8 163 109.9 160.1 110.9 155.6C103.6 155.6 96.3001 155.6 88.5001 155.6ZM103.9 44.1C104.6 41 104.5 38.4 102 36.7C100.5 35.7 98.7001 35.8 97.4001 37.1C95.4001 39.2 95.2001 41.6 96.3001 44.2C98.9001 44.6 101.2 44.7 103.9 44.1Z" fill="white"/>
<path d="M36.5005 84C37.5005 69 43.3005 55.8 53.8005 44.6C54.3005 44.1 54.8005 43.5 55.4005 43C57.1005 41.8 58.9005 41.7 60.6005 43C62.4005 44.3 62.6005 46.4 61.3005 48.5C60.6005 49.6 59.7005 50.6 58.8005 51.6C50.8005 60.6 46.1005 71.1 45.2005 83.2C45.1005 85.1 44.9005 87 44.5005 88.8C44.0005 91.2 42.2005 92.6 40.2005 92.4C38.1005 92.2 36.7005 90.6 36.5005 88.1C36.4005 86.9 36.5005 85.6 36.5005 84Z" fill="white"/>
<path d="M163.4 84.1C163.4 85.8 163.6 87.5 163.4 89.2C163.1 91.4 161.4 92.5 159.5 92.5C157.7 92.5 156.1 91.5 155.7 89.6C155.2 87.4 155 85.1 154.8 82.9C153.8 71 149.2 60.7 141.3 51.8C140.4 50.8 139.5 49.8 138.8 48.8C137.4 46.7 137.7 44.7 139.3 43.2C140.8 41.8 143.1 41.8 145 43.3C146 44.1 146.9 45.2 147.7 46.2C157 56.4 162.9 70.6 163.4 84.1Z" fill="white"/>
</svg>
