<svg width="201" height="200" viewBox="0 0 201 200" fill="none" xmlns="http://www.w3.org/2000/svg">
<path d="M96.0001 172.5C95.2001 171.6 94.0001 171.5 93.0001 171.1C86.1001 168.3 81.8001 163.1 79.7001 156.1C77.8001 155 75.8001 155.5 74.0001 155.4C64.4001 155.4 54.7001 155.4 45.1001 155.4C43.8001 155.4 42.4001 155.5 41.1001 155.4C37.2001 155 35.7001 151.9 37.9001 148.5C38.5001 147.6 39.3001 146.7 40.1001 145.9C51.2001 132.9 56.6001 117.8 56.5001 100.7C56.5001 94.1 56.0001 87.5 57.3001 80.9C60.4001 65.3 69.2001 54.4 83.6001 47.9C84.8001 47.4 86.0001 46.8 87.1001 46.4C88.3001 44.2 87.6001 41.8 87.8001 39.6C88.5001 32.5 93.5001 27.6 100.4 27.6C107.2 27.6 112.4 32.5 112.9 39.6C113.1 41.7 113.1 43.7 113.2 45.6C114.5 47.2 116.3 47.4 117.8 48.1C134.7 56.2 143.5 69.6 144.4 88.2C144.6 92.7 144.4 97.3 144.4 101.8C144.4 118.3 149.8 132.8 160.4 145.4C162.3 147.7 165.1 149.8 163.4 153.2C161.8 156.4 158.5 155.3 155.7 155.4C144.4 155.5 133.1 155.4 122.2 155.4C120.3 156.6 120.4 158.3 119.8 159.6C117.4 164.8 113.6 168.5 108.4 170.9C107.2 171.4 105.8 171.4 104.9 172.5C102 172.5 99.0001 172.5 96.0001 172.5ZM51.4001 146.5C84.1001 146.5 116.8 146.5 149.5 146.5C149.7 144.7 148.5 143.8 147.8 142.7C141.8 133.2 138.1 122.9 136.5 111.7C135.4 104 135.7 96.3 135.8 88.5C136.1 69.5 119.9 52.6 99.6001 53C81.5001 53.4 65.4001 68.5 65.2001 87.3C65.1001 92 65.2001 96.7 65.2001 101.5C65.0001 116.1 61.2001 129.8 53.5001 142.2C52.7001 143.4 51.4001 144.5 51.4001 146.5ZM89.0001 155.6C92.4001 162.3 96.4001 164.5 102.8 163.6C107.3 163 110.4 160.1 111.4 155.6C104.1 155.6 96.8001 155.6 89.0001 155.6ZM104.4 44.1C105.1 41 105 38.4 102.5 36.7C101 35.7 99.2001 35.8 97.9001 37.1C95.9001 39.2 95.7001 41.6 96.8001 44.2C99.4001 44.6 101.7 44.7 104.4 44.1Z" fill="#00ADEF"/>
<path d="M37.0005 84C38.0005 69 43.8005 55.8 54.3005 44.6C54.8005 44.1 55.3005 43.5 55.9005 43C57.6005 41.8 59.4005 41.7 61.1005 43C62.9005 44.3 63.1005 46.4 61.8005 48.5C61.1005 49.6 60.2005 50.6 59.3005 51.6C51.3005 60.6 46.6005 71.1 45.7005 83.2C45.6005 85.1 45.4005 87 45.0005 88.8C44.5005 91.2 42.7005 92.6 40.7005 92.4C38.6005 92.2 37.2005 90.6 37.0005 88.1C36.9005 86.9 37.0005 85.6 37.0005 84Z" fill="#00ADEF"/>
<path d="M163.9 84.1C163.9 85.8 164.1 87.5 163.9 89.2C163.6 91.4 161.9 92.5 160 92.5C158.2 92.5 156.6 91.5 156.2 89.6C155.7 87.4 155.5 85.1 155.3 82.9C154.3 71 149.7 60.7 141.8 51.8C140.9 50.8 140 49.8 139.3 48.8C137.9 46.7 138.2 44.7 139.8 43.2C141.3 41.8 143.6 41.8 145.5 43.3C146.5 44.1 147.4 45.2 148.2 46.2C157.5 56.4 163.4 70.6 163.9 84.1Z" fill="#00ADEF"/>
</svg>
