<svg width="27" height="28" viewBox="0 0 27 28" fill="none" xmlns="http://www.w3.org/2000/svg">
<path d="M15.9375 11.7534H20.8125V13.3784H15.9375V11.7534ZM11.0625 18.2534H9.4375V16.6284H7.8125V18.2534H6.1875V19.8784H7.8125V21.5034H9.4375V19.8784H11.0625V18.2534ZM6.1875 8.50342H11.0625V10.1284H6.1875V8.50342ZM15.9375 15.0034H20.8125V16.6284H15.9375V15.0034Z" fill="white"/>
<path d="M22.4375 3.62842H4.5625C4.13152 3.62842 3.7182 3.79962 3.41345 4.10437C3.1087 4.40912 2.9375 4.82244 2.9375 5.25342V23.1284C2.9375 23.5594 3.1087 23.9727 3.41345 24.2775C3.7182 24.5822 4.13152 24.7534 4.5625 24.7534H22.4375C22.8685 24.7534 23.2818 24.5822 23.5865 24.2775C23.8913 23.9727 24.0625 23.5594 24.0625 23.1284V5.25342C24.0625 4.82244 23.8913 4.40912 23.5865 4.10437C23.2818 3.79962 22.8685 3.62842 22.4375 3.62842ZM12.6875 5.25342V13.3784H4.5625V5.25342H12.6875ZM4.5625 15.0034H12.6875V23.1284H4.5625V15.0034ZM14.3125 23.1284V5.25342H22.4375V23.1284H14.3125Z" fill="white"/>
</svg>
