<?xml version="1.0" encoding="utf-8"?>
<!-- Generator: Adobe Illustrator 25.4.1, SVG Export Plug-In . SVG Version: 6.00 Build 0)  -->
<svg version="1.1" id="Layer_1" xmlns="http://www.w3.org/2000/svg" xmlns:xlink="http://www.w3.org/1999/xlink" x="0px" y="0px"
	 viewBox="0 0 250 250" style="enable-background:new 0 0 250 250;" xml:space="preserve">
<style type="text/css">
	.st0{fill:none;stroke:#000000;stroke-width:0.5;stroke-miterlimit:10;}
	.st1{fill:#2E7912;}
	.st2{fill:#FFFFFF;}
	.st3{fill:none;stroke:#2E7A32;stroke-width:5;stroke-miterlimit:10;}
	.st4{fill:none;stroke:#2E7A32;stroke-width:0.5;stroke-miterlimit:10;}
</style>
<path class="st2" d="M234.2,247.2H15.8c-3,0-5.4-2.4-5.4-5.4V8.1c0-3,2.4-5.4,5.4-5.4h218.3c3,0,5.4,2.4,5.4,5.4v233.7
	C239.5,244.8,237.1,247.2,234.2,247.2z"/>
<g>
	<path class="st3" d="M94.5,123.9H76c-0.3,0-0.5-0.2-0.5-0.5v-15.8c0-0.3,0.2-0.5,0.5-0.5h18.5c0.3,0,0.5,0.2,0.5,0.5v15.8
		C95,123.7,94.8,123.9,94.5,123.9z"/>
	<path class="st3" d="M176.5,81.9H73.5c-0.3,0-0.5-0.2-0.5-0.5v-26c0-0.3,0.2-0.5,0.5-0.5h102.9c0.3,0,0.5,0.2,0.5,0.5v26
		C176.9,81.6,176.7,81.9,176.5,81.9z"/>
	<path class="st3" d="M195.6,206.5H54.4c-0.3,0-0.5-0.2-0.5-0.5V43.9c0-0.3,0.2-0.5,0.5-0.5h141.1c0.3,0,0.5,0.2,0.5,0.5v162.1
		C196.1,206.3,195.8,206.5,195.6,206.5z"/>
	<path class="st3" d="M133.9,123.9h-18.5c-0.3,0-0.5-0.2-0.5-0.5v-15.8c0-0.3,0.2-0.5,0.5-0.5h18.5c0.3,0,0.5,0.2,0.5,0.5v15.8
		C134.4,123.7,134.1,123.9,133.9,123.9z"/>
	<path class="st3" d="M173,123.9h-18.5c-0.3,0-0.5-0.2-0.5-0.5v-15.8c0-0.3,0.2-0.5,0.5-0.5H173c0.3,0,0.5,0.2,0.5,0.5v15.8
		C173.5,123.7,173.2,123.9,173,123.9z"/>
	<path class="st3" d="M94.5,158.9H76c-0.3,0-0.5-0.2-0.5-0.5v-15.8c0-0.3,0.2-0.5,0.5-0.5h18.5c0.3,0,0.5,0.2,0.5,0.5v15.8
		C95,158.7,94.8,158.9,94.5,158.9z"/>
	<path class="st3" d="M133.9,158.9h-18.5c-0.3,0-0.5-0.2-0.5-0.5v-15.8c0-0.3,0.2-0.5,0.5-0.5h18.5c0.3,0,0.5,0.2,0.5,0.5v15.8
		C134.4,158.7,134.1,158.9,133.9,158.9z"/>
	<path class="st3" d="M173,158.9h-18.5c-0.3,0-0.5-0.2-0.5-0.5v-15.8c0-0.3,0.2-0.5,0.5-0.5H173c0.3,0,0.5,0.2,0.5,0.5v15.8
		C173.5,158.7,173.2,158.9,173,158.9z"/>
	<path class="st3" d="M94.5,193.3H76c-0.3,0-0.5-0.2-0.5-0.5V177c0-0.3,0.2-0.5,0.5-0.5h18.5c0.3,0,0.5,0.2,0.5,0.5v15.8
		C95,193.1,94.8,193.3,94.5,193.3z"/>
	<path class="st3" d="M133.9,193.3h-18.5c-0.3,0-0.5-0.2-0.5-0.5V177c0-0.3,0.2-0.5,0.5-0.5h18.5c0.3,0,0.5,0.2,0.5,0.5v15.8
		C134.4,193.1,134.1,193.3,133.9,193.3z"/>
	<path class="st3" d="M173,193.3h-18.5c-0.3,0-0.5-0.2-0.5-0.5V177c0-0.3,0.2-0.5,0.5-0.5H173c0.3,0,0.5,0.2,0.5,0.5v15.8
		C173.5,193.1,173.2,193.3,173,193.3z"/>
</g>
</svg>
