<?xml version="1.0" encoding="utf-8"?>
<!-- Generator: Adobe Illustrator 25.4.1, SVG Export Plug-In . SVG Version: 6.00 Build 0)  -->
<svg version="1.1" id="Layer_1" xmlns="http://www.w3.org/2000/svg" xmlns:xlink="http://www.w3.org/1999/xlink" x="0px" y="0px"
	 viewBox="0 0 250 250" style="enable-background:new 0 0 250 250;" xml:space="preserve">
<style type="text/css">
	.st0{fill:none;stroke:#000000;stroke-width:0.5;stroke-miterlimit:10;}
	.st1{fill:#2E7912;}
	.st2{fill:#FFFFFF;}
	.st3{fill:none;stroke:#2E7A32;stroke-width:5;stroke-miterlimit:10;}
	.st4{fill:none;stroke:#2E7A32;stroke-width:0.5;stroke-miterlimit:10;}
</style>
<path class="st2" d="M234.2,247.2H15.8c-3,0-5.4-2.4-5.4-5.4V8.1c0-3,2.4-5.4,5.4-5.4h218.3c3,0,5.4,2.4,5.4,5.4v233.7
	C239.5,244.8,237.1,247.2,234.2,247.2z"/>
<g>
	<path class="st1" d="M195.3,125.1c0,28.7,0,57.4,0,86.1c0,3.2-2.1,4.9-4.9,4.9c-43.7,0-87.4,0-131,0c-2.5,0-4.1-1-4.7-3.1
		c-0.1-0.4-0.1-0.9-0.1-1.4c0-57.7,0-115.5,0-173.2c0-2.9,1.7-4.5,4.6-4.5c11.3,0,22.7,0,34,0c32.4,0,64.9,0,97.3,0
		c1.5,0,3,0.3,3.8,1.6c0.5,0.8,0.9,1.9,0.9,2.8c0.1,6.6,0,13.3,0,19.9C195.3,80.5,195.3,102.8,195.3,125.1z M187,207.7
		c0-55.2,0-110.3,0-165.5c-41.4,0-82.6,0-124,0c0,55.2,0,110.3,0,165.5C104.3,207.7,145.6,207.7,187,207.7z"/>
	<path class="st1" d="M124.9,85.7c-16.9,0-33.9,0-50.8,0c-3.5,0-5-1.5-5-5c0-9.1,0.1-18.2,0-27.3c0-3.3,2.1-5,5-5
		c34,0.1,68,0,101.9,0c3.3,0,4.9,1.6,4.9,4.9c0,9.2,0,18.3,0,27.5c0,3.3-1.5,4.9-4.9,4.9C159,85.7,141.9,85.7,124.9,85.7z
		 M77.5,77.3c31.7,0,63.3,0,95,0c0-6.9,0-13.7,0-20.6c-31.7,0-63.3,0-95,0C77.5,63.6,77.5,70.4,77.5,77.3z"/>
	<path class="st1" d="M85.6,100.1c4,0,8.1,0,12.1,0c2.8,0,4.5,1.7,4.5,4.5c0,6.7,0,13.3,0,20c0,2.8-1.7,4.5-4.5,4.5
		c-8,0-16.1,0-24.1,0c-2.8,0-4.5-1.7-4.5-4.5c0-6.7,0-13.3,0-20c0-2.8,1.7-4.5,4.6-4.5C77.6,100.1,81.6,100.1,85.6,100.1z
		 M77.5,108.5c0,4.1,0,8.2,0,12.3c5.5,0,10.9,0,16.4,0c0-4.1,0-8.2,0-12.3C88.4,108.5,83,108.5,77.5,108.5z"/>
	<path class="st1" d="M164.4,100.1c4,0,8.1,0,12.1,0c2.6,0,4.4,1.7,4.4,4.3c0,6.8,0,13.5,0,20.3c0,2.7-1.7,4.3-4.4,4.4
		c-8.1,0-16.2,0-24.3,0c-2.7,0-4.4-1.7-4.4-4.4c0-6.7,0-13.4,0-20.1c0-2.8,1.7-4.5,4.5-4.5C156.3,100.1,160.3,100.1,164.4,100.1z
		 M172.5,120.8c0-4.1,0-8.2,0-12.3c-5.5,0-10.9,0-16.3,0c0,4.1,0,8.2,0,12.3C161.6,120.8,167,120.8,172.5,120.8z"/>
	<path class="st1" d="M125,100.1c4.1,0,8.1,0,12.2,0c2.6,0,4.3,1.7,4.3,4.3c0,6.8,0,13.6,0,20.4c0,2.5-1.7,4.3-4.2,4.3
		c-8.2,0-16.4,0-24.6,0c-2.5,0-4.2-1.8-4.3-4.3c0-6.8,0-13.6,0-20.4c0-2.5,1.8-4.3,4.3-4.3C116.8,100.1,120.9,100.1,125,100.1z
		 M133.2,120.8c0-4.1,0-8.2,0-12.3c-5.5,0-10.9,0-16.4,0c0,4.1,0,8.2,0,12.3C122.3,120.8,127.7,120.8,133.2,120.8z"/>
	<path class="st1" d="M85.6,199.5c-3.9,0-7.9,0-11.8,0c-3,0-4.7-1.7-4.7-4.6c0-6.6,0-13.2,0-19.8c0-3,1.7-4.6,4.6-4.6
		c7.9,0,15.9,0,23.8,0c3,0,4.6,1.7,4.6,4.6c0,6.6,0,13.2,0,19.8c0,3-1.7,4.6-4.6,4.6C93.6,199.5,89.6,199.5,85.6,199.5z M93.8,191.2
		c0-4.2,0-8.3,0-12.3c-0.2,0-0.3-0.1-0.3-0.1c-5.1,0-10.2,0-15.4,0c-0.8,0-0.7,0.4-0.7,1c0,3.5,0,6.9,0,10.4c0,0.9,0.3,1.1,1.2,1.1
		c4.6,0,9.3,0,13.9,0C92.9,191.2,93.3,191.2,93.8,191.2z"/>
	<path class="st1" d="M85.7,135.3c4,0,8,0,12,0c2.8,0,4.5,1.7,4.5,4.4c0,6.7,0,13.4,0,20.1c0,2.8-1.7,4.5-4.5,4.5
		c-8,0-16.1,0-24.1,0c-2.8,0-4.5-1.7-4.5-4.5c0-6.6,0-13.3,0-19.9c0-2.9,1.7-4.6,4.6-4.6C77.7,135.3,81.7,135.3,85.7,135.3z
		 M93.8,156c0-4.1,0-8.2,0-12.3c-5.5,0-10.9,0-16.4,0c0,0.4,0,0.7,0,1c0,3.4,0,6.9,0,10.3c0,0.8,0.2,1.1,1.1,1.1c4.8,0,9.6,0,14.4,0
		C93.2,156,93.5,156,93.8,156z"/>
	<path class="st1" d="M164.3,164.3c-4,0-7.9,0-11.9,0c-3,0-4.6-1.7-4.6-4.6c0-6.6,0-13.2,0-19.8c0-3,1.7-4.6,4.6-4.6
		c7.9,0,15.9,0,23.8,0c3,0,4.6,1.7,4.6,4.6c0,6.6,0,13.2,0,19.8c0,3-1.7,4.6-4.7,4.6C172.2,164.3,168.3,164.3,164.3,164.3z
		 M172.5,156c0-4.1,0-8.2,0-12.3c-5.5,0-10.9,0-16.4,0c0,4.1,0,8.2,0,12.3C161.6,156,167,156,172.5,156z"/>
	<path class="st1" d="M164.4,170.5c4,0,7.9,0,11.9,0c2.9,0,4.6,1.7,4.6,4.6c0,6.6,0,13.3,0,19.9c0,2.9-1.7,4.6-4.6,4.6
		c-8,0-16,0-23.9,0c-2.9,0-4.6-1.7-4.6-4.6c0-6.6,0-13.3,0-19.9c0-2.9,1.7-4.6,4.6-4.6C156.3,170.5,160.3,170.5,164.4,170.5z
		 M156.1,191.2c0.2,0,0.4,0.1,0.6,0.1c5,0,10,0,15,0c0.7,0,0.8-0.3,0.8-0.9c0-3.5,0-7.1,0-10.6c0-0.7-0.2-1-1-1c-4.9,0-9.8,0-14.7,0
		c-0.2,0-0.5,0-0.7,0C156.1,183,156.1,187,156.1,191.2z"/>
	<path class="st1" d="M125,170.5c4,0,7.9,0,11.9,0c2.9,0,4.6,1.7,4.6,4.6c0,6.6,0,13.2,0,19.8c0,2.9-1.7,4.6-4.6,4.6c-8,0-16,0-24,0
		c-2.8,0-4.5-1.7-4.5-4.5c0-6.7,0-13.3,0-20c0-2.7,1.7-4.5,4.5-4.5C116.9,170.5,121,170.5,125,170.5z M133.2,178.9
		c-5.6,0-11,0-16.5,0c0,4.1,0,8.2,0,12.3c5.5,0,11,0,16.5,0C133.2,187,133.2,183,133.2,178.9z"/>
	<path class="st1" d="M125,135.3c4,0,7.9,0,11.9,0c2.9,0,4.6,1.7,4.6,4.6c0,6.6,0,13.2,0,19.8c0,2.9-1.7,4.6-4.6,4.6c-8,0-16,0-24,0
		c-2.8,0-4.5-1.7-4.5-4.5c0-6.7,0-13.3,0-20c0-2.7,1.7-4.5,4.5-4.5C116.9,135.3,121,135.3,125,135.3z M133.2,143.7
		c-5.6,0-11,0-16.5,0c0,4.1,0,8.2,0,12.3c5.5,0,11,0,16.5,0C133.2,151.8,133.2,147.8,133.2,143.7z"/>
</g>
</svg>
