<?xml version="1.0" encoding="utf-8"?>
<!-- Generator: Adobe Illustrator 25.4.1, SVG Export Plug-In . SVG Version: 6.00 Build 0)  -->
<svg version="1.1" id="Layer_1" xmlns="http://www.w3.org/2000/svg" xmlns:xlink="http://www.w3.org/1999/xlink" x="0px" y="0px"
	 viewBox="0 0 32 32" style="enable-background:new 0 0 32 32;" xml:space="preserve">
<style type="text/css">
	.st0{fill:#FFFFFF;}
	.st1{fill:#3F8E1E;}
</style>
<path class="st0" d="M10,0h12c5.5,0,10,4.5,10,10v12c0,5.5-4.5,10-10,10H10C4.5,32,0,27.5,0,22V10C0,4.5,4.5,0,10,0z"/>
<g>
	<path class="st1" d="M25.4,16.1c0,2.1,0,4.2,0,6.4c0,1.1-0.8,2.3-1.9,2.6c-0.3,0.1-0.6,0.1-0.9,0.1c-3.8,0-7.6,0-11.4,0
		c-0.8,0-1.6-0.2-2.2-0.9c-0.5-0.5-0.8-1.1-0.8-1.9c0-4.2,0-8.5,0-12.7c0-1.2,0.8-2.3,2.1-2.6c0.2,0,0.4,0,0.6,0c4,0,7.9,0,11.9,0
		c1.4,0,2.7,1.2,2.7,2.7C25.4,11.8,25.4,13.9,25.4,16.1z M9,16c0,2.1,0,4.2,0,6.4c0,0.6,0.2,1.1,0.7,1.5c0.4,0.3,0.8,0.4,1.3,0.4
		c3.1,0,6.1,0,9.2,0c0.8,0,1.7,0,2.5,0c0.7,0,1.2-0.3,1.6-0.9c0.2-0.4,0.3-0.8,0.3-1.2c0-1.9,0-3.8,0-5.7c0-2.2,0-4.3,0-6.5
		c0-0.5-0.1-1-0.5-1.4c-0.4-0.5-0.9-0.7-1.6-0.7c-3.8,0-7.7,0-11.5,0c-0.1,0-0.1,0-0.2,0C10.4,7.8,10,8,9.6,8.3C9.2,8.7,9,9.2,9,9.7
		C9,11.8,9,13.9,9,16z"/>
	<path class="st1" d="M10.7,8.8c0.1,0,0.3,0,0.5,0c3.7,0,7.5,0,11.2,0c0.1,0,0.2,0,0.3,0c0.5,0,0.8,0.3,0.8,0.8c0,0.7,0,1.4,0,2.1
		c0,0.5-0.4,0.8-0.9,0.9c-0.1,0-0.2,0-0.3,0c-3.7,0-7.4,0-11.2,0c-0.1,0-0.2,0-0.3,0c-0.5,0-0.9-0.4-0.9-0.9c0-0.7,0-1.3,0-2
		C10,9.3,10.2,9,10.7,8.8z M22.8,9.4c-0.2,0-0.4,0-0.6,0c-2.5,0-5,0-7.5,0c-1.2,0-2.4,0-3.5,0c-0.2,0-0.4-0.1-0.6,0.2
		c0,0.8,0,1.6,0,2.4c0.1,0,0.2,0.1,0.3,0.1c0.2,0,0.4,0,0.6,0c3.4,0,6.9,0,10.3,0c0.2,0,0.4,0,0.6,0c0.2,0,0.3,0,0.4-0.1
		C23,11,23,9.8,22.8,9.4z"/>
	<path class="st1" d="M22.8,23.2c-0.9,0-1.9,0-2.8,0c-0.3,0-0.4-0.1-0.6-0.3c-0.1-0.4-0.1-6.8,0-7.7c0.1-0.3,0.4-0.4,0.7-0.4
		c0.8,0,1.6,0,2.3,0c0.6,0,0.8,0.3,0.8,0.8c0,0.8,0,1.6,0,2.4c0,1.4,0,2.8,0,4.2C23.2,22.6,23.2,22.9,22.8,23.2z M19.9,15.4
		c-0.1,1.2-0.1,6.8,0,7.2c0.4,0,0.9,0,1.3,0c0.5,0,0.9,0,1.4,0c0.1-1.4,0-6.8-0.1-7.2C21.7,15.4,20.8,15.4,19.9,15.4z"/>
	<path class="st1" d="M13.7,23.1c-1,0-2,0-2.9,0c-0.4-0.2-0.4-0.5-0.4-0.8c0-0.7,0-1.4,0-2.1c0-0.5,0.3-0.8,0.8-0.8
		c0.8,0,1.6,0,2.4,0c0.4,0.2,0.6,0.5,0.5,0.9c0,0.7,0,1.3,0,2C14.1,22.7,14,22.8,13.7,23.1z M13.5,20.1c-0.5,0-0.9,0-1.3,0
		c-0.4,0-0.8,0-1.3,0c0,0.5,0,0.9,0,1.3c0,0.4,0,0.8,0,1.3c0.5,0,0.9,0,1.3,0c0.4,0,0.8,0,1.3,0C13.5,21.7,13.5,20.9,13.5,20.1z"/>
	<path class="st1" d="M13.7,18.5c-1,0-2,0-2.9,0c-0.3-0.2-0.4-0.5-0.4-0.8c0-0.7,0-1.4,0-2.1c0-0.7,0.4-0.9,0.9-0.9c0.7,0,1.3,0,2,0
		c0.6,0,0.9,0.3,0.9,0.9c0,0.7,0,1.4,0,2.1C14.1,18,14,18.3,13.7,18.5z M13.5,15.4c-0.5,0-0.9,0-1.3,0c-0.4,0-0.8,0-1.3,0
		c0,0.5,0,0.9,0,1.3c0,0.4,0,0.8,0,1.3c0.5,0,0.9,0,1.3,0c0.4,0,0.8,0,1.3,0C13.5,17.1,13.5,16.3,13.5,15.4z"/>
	<path class="st1" d="M18,19.4c0.4,0.2,0.5,0.5,0.5,0.9c0,0.7,0,1.3,0,2c0,0.3-0.1,0.6-0.5,0.8c-0.8,0-1.7,0-2.6,0
		c-0.4,0-0.6-0.2-0.6-0.6c0-0.9,0-1.8,0-2.6c0.2-0.3,0.4-0.5,0.8-0.5C16.4,19.4,17.2,19.4,18,19.4z M17.9,20.1
		c-0.9-0.1-2.1-0.1-2.5,0c0,0.8,0,1.6,0,2.4c0.8,0,1.7,0,2.5,0C17.9,21.7,17.9,20.9,17.9,20.1z"/>
	<path class="st1" d="M18.1,18.5c-0.9,0-1.8,0-2.7,0c-0.4,0-0.6-0.2-0.6-0.6c0-0.9,0-1.8,0-2.7c0.2-0.4,0.5-0.5,0.8-0.5
		c0.7,0,1.4,0,2.1,0c0.5,0,0.8,0.3,0.8,0.8c0,0.7,0,1.4,0,2.2C18.6,18.1,18.5,18.2,18.1,18.5z M15.4,15.4c0,0.5,0,0.9,0,1.3
		c0,0.4,0,0.8,0,1.3c0.5,0,0.9,0,1.3,0c0.4,0,0.8,0,1.3,0c0-0.4,0-0.8,0-1.2c0-0.4,0-0.8,0-1.3C17.1,15.4,16.3,15.4,15.4,15.4z"/>
	<path class="st1" d="M22.1,18.7c0.2,0.2,0.2,0.3,0,0.5c-0.6,0-1.2,0-1.8,0c-0.2-0.1-0.2-0.3,0-0.5C20.9,18.7,21.5,18.7,22.1,18.7z"
		/>
	<path class="st1" d="M22.3,19.5c0,0.2,0,0.2,0,0.4c-0.7,0-1.3,0-2,0c0-0.1-0.1-0.2-0.2-0.4c0.2-0.1,0.3-0.1,0.5-0.1
		C21.1,19.4,21.7,19.3,22.3,19.5z"/>
	<path class="st1" d="M11.3,21.6c0-0.1-0.1-0.2-0.1-0.4c0.6-0.3,1.2-0.1,1.8-0.1c0.1,0,0.2,0.1,0.4,0.1c0,0.1,0,0.2,0,0.2
		c0,0,0,0.1-0.1,0.2C12.6,21.6,11.9,21.6,11.3,21.6z"/>
	<path class="st1" d="M11.2,16.9c0-0.1-0.1-0.2-0.1-0.3c0.2-0.3,0.5-0.2,0.8-0.3c0-0.2,0-0.4,0.1-0.7c0.1,0,0.2,0,0.4,0
		c0,0.2,0,0.5,0.1,0.7c0.3,0.1,0.6-0.1,0.8,0.2c0,0.1-0.1,0.2-0.1,0.3c-0.2,0-0.4,0-0.7,0c-0.2,0.2,0.1,0.7-0.3,0.8
		c-0.4-0.2-0.1-0.5-0.3-0.8C11.7,16.9,11.5,16.9,11.2,16.9z"/>
	<path class="st1" d="M15.7,21.5c0-0.1-0.1-0.2-0.1-0.3c0.1-0.3,1.5-0.4,2.1-0.1c0,0.1,0,0.2,0,0.3c-0.1,0-0.1,0.1-0.1,0.1
		C17,21.5,16.4,21.5,15.7,21.5z"/>
	<path class="st1" d="M17.1,20.7c-0.4,0.3-0.5,0.3-0.6-0.1c0.1-0.2,0.3-0.2,0.5-0.2C17,20.5,17,20.6,17.1,20.7z"/>
	<path class="st1" d="M16.4,21.8c0.2,0,0.3,0,0.5,0c0,0.1,0,0.2,0.1,0.4c-0.2,0-0.3,0-0.5,0C16.5,22.1,16.5,22,16.4,21.8z"/>
	<path class="st1" d="M16.7,16.3c0.2-0.2,0.3-0.3,0.5-0.4c0.2,0,0.3,0.1,0.3,0.3c-0.1,0.1-0.3,0.3-0.4,0.5c0.1,0.2,0.3,0.3,0.5,0.5
		c-0.1,0.1-0.1,0.2-0.2,0.4c-0.2-0.2-0.4-0.3-0.6-0.5c-0.2,0.1-0.4,0.3-0.6,0.5c-0.1-0.1-0.2-0.2-0.3-0.3c0.2-0.2,0.3-0.4,0.5-0.6
		c-0.2-0.2-0.3-0.4-0.5-0.6c0.1-0.1,0.2-0.2,0.3-0.3C16.3,15.9,16.5,16.1,16.7,16.3z"/>
</g>
</svg>
