<svg width="28" height="28" viewBox="0 0 28 28" fill="none" xmlns="http://www.w3.org/2000/svg">
<path d="M16.4375 11.7534H21.3125V13.3784H16.4375V11.7534ZM11.5625 18.2534H9.9375V16.6284H8.3125V18.2534H6.6875V19.8784H8.3125V21.5034H9.9375V19.8784H11.5625V18.2534ZM6.6875 8.50342H11.5625V10.1284H6.6875V8.50342ZM16.4375 15.0034H21.3125V16.6284H16.4375V15.0034Z" fill="#00ADEF"/>
<path d="M22.9375 3.62842H5.0625C4.63152 3.62842 4.2182 3.79962 3.91345 4.10437C3.6087 4.40912 3.4375 4.82244 3.4375 5.25342V23.1284C3.4375 23.5594 3.6087 23.9727 3.91345 24.2775C4.2182 24.5822 4.63152 24.7534 5.0625 24.7534H22.9375C23.3685 24.7534 23.7818 24.5822 24.0865 24.2775C24.3913 23.9727 24.5625 23.5594 24.5625 23.1284V5.25342C24.5625 4.82244 24.3913 4.40912 24.0865 4.10437C23.7818 3.79962 23.3685 3.62842 22.9375 3.62842ZM13.1875 5.25342V13.3784H5.0625V5.25342H13.1875ZM5.0625 15.0034H13.1875V23.1284H5.0625V15.0034ZM14.8125 23.1284V5.25342H22.9375V23.1284H14.8125Z" fill="#00ADEF"/>
</svg>
