<svg width="27" height="27" viewBox="0 0 27 27" fill="none" xmlns="http://www.w3.org/2000/svg">
<path d="M12.1773 2.76758L22.1408 7.74932V9.96343H2.21387V7.74932L12.1773 2.76758ZM16.6056 11.0705H21.0338V19.9269H16.6056V11.0705ZM2.21387 24.3551V21.034H22.1408V24.3551H2.21387ZM9.96324 11.0705H14.3915V19.9269H9.96324V11.0705ZM3.32092 11.0705H7.74914V19.9269H3.32092V11.0705ZM3.32092 22.141V23.2481H21.0338V22.141H3.32092ZM4.42797 12.1775V18.8199H6.64208V12.1775H4.42797ZM11.0703 12.1775V18.8199H13.2844V12.1775H11.0703ZM17.7126 12.1775V18.8199H19.9267V12.1775H17.7126ZM3.32092 8.85637H21.0338V8.41355L12.1773 3.9632L3.32092 8.41355V8.85637Z" fill="white"/>
</svg>
