<svg width="23" height="24" viewBox="0 0 23 24" fill="none" xmlns="http://www.w3.org/2000/svg">
<g clip-path="url(#clip0_14303_166)">
<path d="M0.639648 0.503418C0.694512 0.66458 0.74483 0.826851 0.791016 0.991699C0.803637 1.15951 0.804929 1.32794 0.790039 1.49561L0.788086 1.51807V22.686L1.03711 22.8306C1.4038 23.0433 1.83137 23.1215 2.24902 23.0571H21.3906L21.4365 23.0483C21.5916 23.0189 21.7515 23.0255 21.9033 23.0688C22.0138 23.1004 22.1177 23.1511 22.2109 23.2173C22.2118 23.2243 22.2138 23.2298 22.2139 23.2339C22.214 23.2458 22.2121 23.2473 22.2119 23.2476C22.2069 23.2572 22.1794 23.2975 22.0771 23.3628H1.18555C1.12401 23.3628 1.06279 23.365 1.00977 23.3667C0.954373 23.3685 0.906788 23.3702 0.860352 23.3706C0.767345 23.3713 0.702784 23.3667 0.652344 23.356C0.606515 23.3461 0.576435 23.3315 0.551758 23.313C0.538129 23.3028 0.520809 23.2863 0.5 23.2603V0.560059C0.509707 0.545827 0.517812 0.534316 0.525391 0.525879C0.542259 0.507104 0.551367 0.503979 0.552734 0.503418C0.555362 0.502353 0.571901 0.496702 0.613281 0.499512C0.621277 0.500059 0.629938 0.502123 0.639648 0.503418Z" fill="#FFC760" stroke="#FFC760"/>
<path d="M16.1543 8.53913L15.7716 7.4659C16.0983 6.09404 16.9195 5.41277 17.9181 5.59942C18.9167 5.78607 19.5233 6.78464 19.178 8.1845L22.6776 12.1228V12.8787L21.847 13.056L18.2167 9.06174L17.2835 9.22973C16.9382 9.84567 16.5742 10.4709 16.2196 11.0962L13.2519 16.3597C13.1094 16.6917 12.8408 16.9536 12.5053 17.0876C12.048 17.013 11.8334 16.621 11.5721 16.285L7.58711 10.9469C7.46406 10.7941 7.33323 10.6477 7.19515 10.5083L3.56485 12.776C3.4249 12.8946 3.25934 12.9791 3.08121 13.0228C2.90307 13.0665 2.71722 13.0683 2.53828 13.028C2.44496 12.9067 2.33297 12.7387 2.17432 12.4961C2.29821 12.2716 2.45912 12.0697 2.65027 11.8988C4.19945 10.9189 5.7393 9.96699 7.24182 9.02442C7.4113 9.04168 7.57474 9.09676 7.72011 9.1856C7.86547 9.27443 7.98905 9.39475 8.08173 9.5377L11.936 14.6799C12.0667 14.8385 12.2067 14.9878 12.3466 15.1465C13.7634 13.0354 15.0415 10.8346 16.1729 8.55779M17.1622 7.80187H17.9741V7.02728H17.1248C17.1248 7.32592 17.1248 7.54056 17.1248 7.80187" fill="#FFC760"/>
</g>
<defs>
<clipPath id="clip0_14303_166">
<rect width="22.7151" height="23.8723" fill="white"/>
</clipPath>
</defs>
</svg>
