<svg width="139" height="150" viewBox="0 0 139 150" fill="none" xmlns="http://www.w3.org/2000/svg">
<g clip-path="url(#clip0_6056_791)">
<path d="M29.5003 119.9C29.4003 109.2 32.7002 99.7998 39.6002 91.7998C46.5002 83.8998 55.2002 79.2998 65.6002 77.5998C59.3002 75.8998 54.3002 72.4998 50.7002 67.0998C47.0002 61.5998 45.9002 55.5998 47.1002 49.0998C49.2002 37.7998 59.6002 28.7998 72.5002 29.6998C83.4002 30.4998 93.4001 38.4998 94.7001 51.7998C95.8001 63.5998 87.9002 74.5998 75.8002 77.2998C76.5002 77.5998 77.0002 77.8998 77.5002 77.9998C92.5002 80.5998 103 89.0998 109.2 102.9C111.6 108.2 112.7 113.8 112.2 119.7C109.9 120.4 33.4002 120.5 29.5003 119.9Z" fill="#FFC760"/>
<path d="M47.4 42.7999C42.4 54.6999 44.7 65.0998 54.1 74.0998C51.9 77.2998 48.4 78.3998 44.7 79.6998C46.4 80.1998 48 80.6998 50 81.1998C36.9 89.2998 29.7 100.8 27.7 115.7C20.5 115.7 13.6 115.7 6.59994 115.7C4.19995 103.3 14.9 82.6998 36 80.1998C34.9 79.7998 34.2 79.4999 33.5 79.2999C20.3 74.4999 15.9 58.2998 25 47.5998C30.6 41.3999 40.1 38.8999 47.4 42.7999Z" fill="#FFC760"/>
<path d="M103.1 79.7998C124 83.0998 134.1 102.2 132.5 115.1C130.4 115.7 120.7 115.9 114.1 115.4C113.9 114.7 113.5 113.9 113.4 113C111.1 99.4998 104.1 89.0998 92.4001 81.7998C92.1001 81.5998 91.9001 81.4998 91.7001 81.2998C91.6001 81.1998 91.5001 80.9998 91.2001 80.4998C92.5001 80.1998 93.7001 79.8998 94.8001 79.6998C91.5001 78.8998 88.5001 77.5998 85.6001 75.1998C96.6001 65.8998 99.3001 54.6998 93.8001 41.5998C102.3 38.0998 113.6 43.6998 117.1 53.1998C121.1 64.1998 115.7 76.0998 103.1 79.7998Z" fill="#FFC760"/>
</g>
<defs>
<clipPath id="clip0_6056_791">
<rect width="139" height="150" fill="white"/>
</clipPath>
</defs>
</svg>
