<svg width="200" height="200" viewBox="0 0 200 200" fill="none" xmlns="http://www.w3.org/2000/svg">
<g clip-path="url(#clip0_6056_805)">
<path d="M119.3 87.3007C110.2 87.3007 101.1 87.3007 92 87.3007C85.6 87.3007 79.3 87.3007 72.9 87.3007C71.7 87.3007 70.4 87.3007 69.2 87.3007C67.6 87.3007 66.1 87.2007 64.5 87.2007C63.5 87.2007 62.6 87.3007 61.6 87.3007C60.1 87.3007 58.5 87.2007 57 87.2007C56 87.2007 55 87.3007 54 87.3007C46.1 87.3007 38.2 87.2007 30.3 87.2007C29.7 87.2007 29.2 87.0007 28.7 86.6007C28.3 86.3007 27.9 86.0007 27.6 85.6007C25 83.2007 25.7 79.2007 27.7 77.5007C28.6 76.7007 29.7 75.9007 30.7 75.2007C36.3 71.2007 41.9 67.2007 47.6 63.3007C52.1 60.1007 56.6 57.0007 61.1 53.9007C64.4 51.6007 67.7 49.2007 71 46.9007C74 44.8007 77 42.7007 80 40.6007C83.6 38.1007 87.2 35.5007 90.8 33.0007C92.2 32.0007 93.7 31.0007 95.1 30.0007C97.6 28.4007 100.2 28.2007 103 29.1007C103.4 29.2007 103.8 29.5007 104.2 29.8007C107.8 32.3007 111.4 34.7007 115 37.2007C118.5 39.6007 122 42.0007 125.5 44.5007C129.1 47.0007 132.7 49.5007 136.3 52.0007C138.9 53.8007 141.5 55.6007 144 57.4007C146 58.8007 148 60.3007 150 61.7007C154.5 64.9007 159 68.0007 163.6 71.2007C166.4 73.2007 169.1 75.1007 171.9 77.1007C174.2 78.8007 174.6 81.5007 173.8 83.9007C173.2 85.7007 170.9 87.2007 169 87.2007C159.3 87.2007 149.6 87.3007 139.9 87.3007C133 87.3007 126.1 87.3007 119.3 87.3007ZM47 76.7007C82.3 76.7007 117.7 76.7007 153 76.7007C135.4 64.3007 117.9 51.8007 100.1 39.6007C82.1 51.7007 64.6 64.2007 47 76.7007Z" fill="#FFC760"/>
<path d="M97.5 171.4C84 171.4 70.5 171.4 57 171.4C51.4 171.4 45.9 171.4 40.3 171.4C36.8 171.4 33.4 171.3 29.9 171.2C29.5 171.2 29.1 171.1 28.7 171.1C27.7 171 27.3 170.6 27.1 169.6C27 169.3 27 169 27 168.7C27 167 27 165.3 27 163.6C27 163.3 27 163 27.1 162.8C27.3 161.7 27.7 161.3 28.9 161.2C30.3 161.1 31.6 161 33 161C36.5 161 40.1 161 43.6 161C44.8 161 46.1 160.9 47.3 160.9C48.4 160.9 49.5 161 50.5 161C58.5 161 66.5 160.9 74.5 160.9C80.7 160.9 86.8 160.9 93 160.9C99.2 160.9 105.3 160.9 111.5 160.9C117.7 160.9 123.9 160.9 130.1 160.9C135 160.9 140 160.9 144.9 160.9C146.3 160.9 147.6 160.9 149 160.9C150.4 160.9 151.9 161 153.3 161C158.1 161 162.9 161 167.7 161.1C168.8 161.1 169.9 161.2 170.9 161.3C172 161.4 172.4 161.7 172.6 162.8C172.7 163.2 172.7 163.7 172.7 164.1C172.7 165.6 172.7 167.1 172.7 168.6C172.7 168.9 172.7 169.2 172.7 169.4C172.5 170.7 172.2 171 170.9 171.1C169.5 171.2 168 171.2 166.6 171.3C164.9 171.4 163.1 171.4 161.4 171.4C160.2 171.4 159 171.3 157.8 171.3C151.2 171.3 144.7 171.4 138.1 171.4C124.6 171.5 111 171.4 97.5 171.4Z" fill="#FFC760"/>
<path d="M37.7999 156.8C36.6999 155.9 36.3999 154.9 36.3999 153.7C36.3999 152.1 36.3999 150.4 36.3999 148.8C36.3999 147.7 37.0999 147.1 37.7999 146.5C37.9999 146.3 38.3999 146.3 38.7999 146.3C41.5999 146.3 44.4999 146.3 47.2999 146.3C76.2999 146.3 105.2 146.3 134.2 146.3C143.1 146.3 152 146.3 160.9 146.3C162.4 146.3 163.4 147.2 163.5 148.7C163.6 150.4 163.6 152.2 163.6 153.9C163.6 154.3 163.5 154.7 163.4 155.1C163.1 156.3 162.3 156.8 161.1 156.8C145.4 156.8 129.6 156.8 113.9 156.8C97.3999 156.8 80.8999 156.8 64.3999 156.8C55.8999 156.8 47.4999 156.8 38.9999 156.8C38.5999 156.8 38.1999 156.8 37.7999 156.8Z" fill="#FFC760"/>
<path d="M155.5 92.6001C155.5 93.6001 155.5 94.7001 155.5 95.8001C155.5 110.9 155.5 126.1 155.5 141.2C155.5 142.1 155.2 142.7 154.4 143C153.8 143.2 153.2 143.5 152.6 143.5C151 143.6 149.4 143.5 147.8 143.5C146.6 143.5 145.9 142.9 145.3 142C145.1 141.7 145.1 141.3 145.1 140.9C145.1 136.6 145.1 132.3 145.1 127.9C145.1 116.5 145.1 105.2 145.1 93.8001C145.1 92.2001 146.1 91.1001 147.7 91.1001C149.4 91.0001 151.1 91.1001 152.8 91.1001C153.8 91.2001 154.7 91.6001 155.5 92.6001Z" fill="#FFC760"/>
<path d="M89.2999 92.5996C89.2999 109 89.2999 125.5 89.2999 142C88.5999 142.9 87.5999 143.4 86.4999 143.4C84.8999 143.4 83.1999 143.4 81.5999 143.4C80.3999 143.4 79.6999 142.7 79.0999 141.9C78.8999 141.7 78.8999 141.3 78.8999 140.9C78.8999 135.7 78.8999 130.4 78.8999 125.2C78.8999 114.8 78.8999 104.3 78.8999 93.8996C78.8999 92.0996 79.8999 91.0996 81.6999 91.0996C83.1999 91.0996 84.7999 91.0996 86.2999 91.0996C87.4999 91.0996 88.5999 91.4996 89.2999 92.5996Z" fill="#FFC760"/>
<path d="M56.2999 117.401C56.2999 125.301 56.2999 133.201 56.2999 141.101C56.2999 142.401 55.9999 142.801 54.6999 143.201C54.2999 143.301 53.8999 143.401 53.4999 143.401C51.8999 143.401 50.3999 143.401 48.7999 143.401C48.3999 143.401 48.0999 143.301 47.6999 143.201C46.2999 142.801 45.8999 142.201 45.8999 140.701C45.8999 127.101 45.8999 113.501 45.8999 100.001C45.8999 97.9007 45.9999 95.8007 46.0999 93.7007C46.0999 93.5007 46.1999 93.2007 46.1999 93.0007C46.3999 91.6007 46.7999 91.2007 48.1999 91.2007C50.0999 91.1007 51.9999 91.2007 53.7999 91.2007C54.1999 91.2007 54.4999 91.3007 54.8999 91.4007C55.8999 91.8007 56.2999 92.3007 56.2999 93.4007C56.2999 101.401 56.2999 109.401 56.2999 117.401Z" fill="#FFC760"/>
<path d="M122.5 142.2C121.6 143.2 120.6 143.5 119.4 143.5C118.1 143.5 116.8 143.5 115.5 143.5C114.8 143.5 114.2 143.3 113.5 143.2C112.6 142.9 112.3 142.5 112.3 141.6C112.3 141 112.3 140.5 112.3 139.9C112.2 131.1 112.2 122.2 112.1 113.4C112.1 108.2 112.1 102.9 112.1 97.7003C112.1 96.3003 112.2 94.9003 112.3 93.4003C112.4 91.9003 112.9 91.3003 114.4 91.3003C116.2 91.2003 118 91.3003 119.9 91.3003C120.3 91.3003 120.6 91.4003 121 91.5003C122.1 91.8003 122.5 92.4003 122.5 93.6003C122.5 103.1 122.5 112.6 122.5 122.1C122.5 128.5 122.5 134.8 122.5 141.2C122.5 141.5 122.5 141.9 122.5 142.2Z" fill="#FFC760"/>
</g>
<defs>
<clipPath id="clip0_6056_805">
<rect width="200" height="200" fill="white"/>
</clipPath>
</defs>
</svg>
