<?xml version="1.0" encoding="utf-8"?>
<!-- Generator: Adobe Illustrator 22.1.0, SVG Export Plug-In . SVG Version: 6.00 Build 0)  -->
<svg version="1.1" id="Layer_1" xmlns="http://www.w3.org/2000/svg" xmlns:xlink="http://www.w3.org/1999/xlink" x="0px" y="0px"
	 viewBox="0 0 24 24" style="enable-background:new 0 0 24 24;" xml:space="preserve">
<style type="text/css">
	.st0{fill:#FD7636;}
</style>
<g>
	<path class="st0" d="M12,2.6c-1,0-1.9,0.8-1.9,1.9S11,6.4,12,6.4s1.9-0.8,1.9-1.9S13,2.6,12,2.6z M12,5.4c-0.5,0-0.9-0.4-0.9-0.9
		s0.4-0.9,0.9-0.9s0.9,0.4,0.9,0.9S12.5,5.4,12,5.4z"/>
	<path class="st0" d="M23.5,21.2h-0.8v-1.4c0-0.3-0.2-0.5-0.5-0.5h-1.9v-7.5h0.5c0.3,0,0.5-0.2,0.5-0.5V9.9h0.9
		c0.3,0,0.5-0.2,0.5-0.5V7.6c0,0,0,0,0-0.1l0,0l0,0l0,0l0,0l0,0l0,0l0,0l0,0l0,0l0,0l0,0l0,0l0,0l0,0l0,0L12.3,0.1
		c-0.2-0.1-0.4-0.1-0.5,0L1.4,7.2l0,0l0,0l0,0l0,0l0,0l0,0l0,0l0,0l0,0l0,0l0,0l0,0l0,0l0,0l0,0c0,0,0,0,0,0.1v1.9
		c0,0.3,0.2,0.5,0.5,0.5h0.9v1.4c0,0.3,0.2,0.5,0.5,0.5h0.5v7.5H1.7c-0.3,0-0.5,0.2-0.5,0.5V21H0.5C0.2,21,0,21.2,0,21.5v1.9
		C0,23.8,0.2,24,0.5,24h23.1c0.3,0,0.5-0.2,0.5-0.5v-1.9C24,21.4,23.8,21.2,23.5,21.2L23.5,21.2z M20.4,10.9h-4.7v-1h4.7V10.9z
		 M19.5,11.8v7.5h-0.9v-7.5C18.6,11.8,19.5,11.8,19.5,11.8z M17.6,11.8v7.5h-0.9v-7.5C16.7,11.8,17.6,11.8,17.6,11.8z M12,1l8.8,6.1
		H3.2L12,1z M2.2,9V8.1h19.7V9H2.2z M3.6,10.9v-1h4.7v0.9H3.6V10.9z M7.3,11.8v7.5H6.4v-7.5C6.4,11.8,7.3,11.8,7.3,11.8z M5.4,11.8
		v7.5H4.5v-7.5C4.5,11.8,5.4,11.8,5.4,11.8z M8.2,11.8h0.5c0.3,0,0.5-0.2,0.5-0.5V9.9h5.6v1.4c0,0.3,0.2,0.5,0.5,0.5h0.5v7.5H8.2
		V11.8z M2.2,20.2h19.7v0.9H2.2V20.2z M23.1,23.1H0.9v-0.9H23v0.9H23.1z"/>
	<path class="st0" d="M12.9,13.5c0.3,0,0.5-0.2,0.5-0.5s-0.2-0.5-0.5-0.5h-0.5V12c0-0.3-0.2-0.5-0.5-0.5s-0.5,0.2-0.5,0.5v0.5h-0.5
		c-0.3,0-0.5,0.2-0.5,0.5v1.9c0,0.3,0.2,0.5,0.5,0.5h1.4v0.9h-1.4c-0.3,0-0.5,0.2-0.5,0.5s0.2,0.5,0.5,0.5h0.5v0.4
		c0,0.3,0.2,0.5,0.5,0.5s0.5-0.2,0.5-0.5v-0.4h0.5c0.3,0,0.5-0.2,0.5-0.5v-1.9c0-0.3-0.2-0.5-0.5-0.5h-1.4v-0.9H12.9z"/>
</g>
</svg>
