<svg width="37" height="40" viewBox="0 0 37 40" fill="none" xmlns="http://www.w3.org/2000/svg">
<g clip-path="url(#clip0_6056_815)">
<mask id="mask0_6056_815" style="mask-type:luminance" maskUnits="userSpaceOnUse" x="0" y="0" width="37" height="40">
<path d="M37 0H0V40H37V0Z" fill="white"/>
</mask>
<g mask="url(#mask0_6056_815)">
<mask id="mask1_6056_815" style="mask-type:luminance" maskUnits="userSpaceOnUse" x="0" y="0" width="37" height="40">
<path d="M37 0V40H0V0H37Z" fill="white"/>
</mask>
<g mask="url(#mask1_6056_815)">
<path fill-rule="evenodd" clip-rule="evenodd" d="M30.8315 20.0002V36.0002C30.8315 37.1668 30.5232 38.0002 29.5983 38.5002C29.2899 38.6668 28.8275 38.8335 28.5191 38.8335H8.63257C7.24514 38.8335 6.16602 37.6668 6.16602 36.1668V4.00031C6.16602 2.83365 6.47434 2.00032 7.3993 1.50032C7.70761 1.33365 8.17009 1.16699 8.63257 1.16699H28.5191C29.9066 1.16699 30.9857 2.33365 30.9857 3.83364C30.8315 9.33362 30.8315 14.6669 30.8315 20.0002ZM29.7524 20.0002V4.0003C29.7524 2.83364 29.29 2.33364 28.2108 2.33364H8.78675C7.70763 2.33364 7.24515 2.83364 7.24515 3.83364V35.8335C7.24515 36.8335 7.70763 37.3335 8.63259 37.3335H28.2108C29.1358 37.3335 29.5983 36.8335 29.5983 35.8335C29.7524 30.6668 29.7524 25.3335 29.7524 20.0002ZM10.6367 5.16699H26.361C27.286 5.16699 27.9026 5.83365 27.9026 6.83365V12.0003C27.9026 13.0003 27.286 13.6669 26.361 13.6669H10.6367C9.71182 13.6669 9.09518 13.0003 9.09518 12.0003V6.83365C9.09518 5.83365 9.71182 5.16699 10.6367 5.16699ZM18.4989 12.3336H26.2069C26.6694 12.3336 26.6694 12.3336 26.8235 11.8336V7.00027C26.8235 6.50027 26.6694 6.50027 26.3611 6.50027H10.9451C10.4826 6.50027 10.4826 6.50027 10.4826 7.16693V12.0002C10.4826 12.6669 10.4826 12.6669 11.0992 12.6669C13.4116 12.3336 16.0323 12.3336 18.4989 12.3336ZM25.2826 15.667H26.67C27.4408 15.667 27.9033 16.167 27.9033 17.0003V19.6669C27.9033 20.5003 27.4408 21.0003 26.67 21.0003H23.741C22.9702 21.0003 22.6618 20.3336 22.6618 19.6669V17.0003C22.6618 16.0003 23.1243 15.5003 24.0493 15.5003C24.3576 15.667 24.8201 15.667 25.2826 15.667ZM13.1033 15.667H10.3284C9.55766 15.667 9.09518 16.3336 9.09518 17.0003V19.8336C9.09518 20.6669 9.71182 21.1669 10.3284 21.1669H13.1033C13.8741 21.1669 14.3366 20.6669 14.3366 19.8336V17.0003C14.3366 16.167 13.8741 15.667 13.1033 15.667ZM17.1117 15.667H19.8866C20.6574 15.667 21.1199 16.167 21.1199 17.0003V19.8336C21.1199 20.6669 20.5032 21.1669 19.8866 21.1669H17.2659C16.3409 21.1669 15.8784 20.6669 15.8784 19.6669V17.0003C15.8784 16.167 16.3409 15.667 17.1117 15.667ZM24.2034 19.8336H26.5158C26.8241 19.8336 26.8241 19.8336 26.8241 19.5002V17.1669C26.8241 17.0002 26.8241 16.8336 26.5158 16.8336H24.2034C23.8951 16.8336 23.8951 16.8336 23.8951 17.1669V19.5002C23.8951 19.8336 24.0493 19.8336 24.2034 19.8336ZM10.6367 16.8336H11.7158H13.1033C13.2574 16.8336 13.4116 16.8336 13.4116 17.1669V19.5003C13.4116 19.6669 13.4116 19.8336 13.1033 19.8336H10.7909C10.4826 19.8336 10.3284 19.6669 10.3284 19.3336V17.1669C10.3284 17.0003 10.3284 16.8336 10.6367 16.8336ZM20.0407 16.8336H17.2659C17.2659 16.8336 17.1117 17.0003 17.1117 17.1669V19.6669C17.1117 19.8336 17.2659 20.0003 17.42 20.0003H19.8866C20.0407 20.0003 20.1949 19.8336 20.1949 19.8336C20.0407 18.8336 20.0407 17.8336 20.0407 16.8336ZM26.5158 22.3336H25.2825C24.82 22.3336 24.3575 22.3336 23.7409 22.167C22.8159 22.3336 22.3535 22.8336 22.3535 23.667V26.3336C22.3535 27.3336 22.9701 27.8336 23.7409 27.8336H26.3616C27.2866 27.8336 27.7491 27.1669 27.7491 26.3336V23.667C27.7491 22.8336 27.2866 22.3336 26.5158 22.3336ZM16.0326 23.6669V25.0003C16.0326 25.5003 16.0326 26.0003 16.1868 26.5003C16.1868 27.3336 16.6493 27.8336 17.4201 27.8336H19.8866C20.6574 27.8336 21.1199 27.3336 21.1199 26.5003V23.8336C21.1199 22.8336 20.5033 22.3336 19.7325 22.3336H17.2659C16.4951 22.3336 16.0326 22.8336 16.0326 23.6669ZM10.4826 27.8336H11.7159C12.1783 27.8336 12.6408 27.8336 13.4116 28.0003C14.1824 28.0003 14.6449 27.5003 14.6449 26.667V23.8336C14.4907 23.0003 14.0283 22.5003 13.4116 22.5003H10.4826C9.71183 22.5003 9.24935 23.0003 9.24935 23.8336V26.5003C9.24935 27.3336 9.71183 27.8336 10.4826 27.8336ZM26.5158 26.5003H25.2825C24.9664 26.6142 24.7224 26.5724 24.5011 26.5345C24.3986 26.517 24.301 26.5003 24.2034 26.5003C24.0492 26.5003 23.8951 26.5003 23.8951 26.1669V23.8336C23.8951 23.5003 24.0492 23.5003 24.2034 23.5003H26.5158C26.8241 23.5003 26.8241 23.5003 26.8241 23.8336V26.1669C26.8241 26.5003 26.8241 26.5003 26.5158 26.5003ZM19.8866 23.8336V26.3336C19.8866 26.5003 19.8866 26.667 19.5783 26.667H17.4201C17.2659 26.667 17.1118 26.5003 17.1118 26.3336V23.8336C17.1118 23.667 17.2659 23.5003 17.4201 23.5003H19.5783C19.8866 23.5003 19.8866 23.667 19.8866 23.8336ZM12.9492 26.667H11.7159C11.4076 26.5003 10.9451 26.5003 10.4826 26.667C10.3284 26.667 10.1743 26.667 10.1743 26.3336V24.0003C10.1743 23.8337 10.3284 23.667 10.4826 23.667H12.9492C13.2575 23.667 13.2575 23.8337 13.2575 24.0003V26.3336C13.2575 26.5003 13.1033 26.667 12.9492 26.667ZM20.9657 31.6669V33.0003C20.9657 33.6669 20.5033 34.3336 19.8866 34.3336H17.1117C16.4951 34.3336 16.0326 33.6669 16.0326 33.0003V30.1669C16.0326 29.3336 16.4951 28.8336 17.2659 28.8336H19.8866C20.6574 28.8336 21.1199 29.3336 21.1199 30.1669C20.9657 30.8336 20.9657 31.3336 20.9657 31.6669ZM12.9491 29.0003H10.1742C9.40346 29.0003 8.94098 29.5003 8.94098 30.3336V33.0003C8.94098 33.6669 9.40346 34.3336 10.1742 34.3336H13.1032C13.7199 34.3336 14.1824 33.8336 14.1824 33.0003V30.3336C14.1824 29.5003 13.7199 29.0003 12.9491 29.0003ZM25.2826 29.0003H26.5158C27.2866 29.0003 27.9033 29.5003 27.9033 30.5003V33.1669C27.9033 34.0003 27.4408 34.5002 26.67 34.5002H23.741C23.1243 34.5002 22.6618 34.0003 22.6618 33.1669V30.5003C22.6618 29.6669 23.1243 29.1669 23.8951 29.1669C24.3576 29.0003 24.8201 29.0003 25.2826 29.0003ZM19.5783 30.1669H17.4201C17.1118 30.1669 17.1118 30.3336 17.1118 30.5003V32.8336C17.1118 33.1669 17.1118 33.1669 17.4201 33.1669H19.5783C19.8866 33.1669 19.8866 33.0003 19.8866 32.8336V30.5003C19.8866 30.1669 19.7325 30.1669 19.5783 30.1669ZM25.2826 33.3336H26.5159C26.67 33.3336 26.8242 33.3336 26.8242 33.0003V30.5003C26.8242 30.3336 26.67 30.167 26.5159 30.167H24.0493C23.741 30.167 23.741 30.3336 23.741 30.5003V32.8336C23.741 33.0003 23.8951 33.1669 24.0493 33.1669C24.5118 33.3336 24.8201 33.3336 25.2826 33.3336ZM12.9491 33.3335H11.7158C11.6182 33.3335 11.5051 33.3168 11.3864 33.2993C11.1301 33.2614 10.8474 33.2196 10.6367 33.3335C10.4826 33.3335 10.3284 33.3335 10.3284 33.0002V30.6669C10.3284 30.3336 10.4826 30.3336 10.6367 30.3336H12.9491C13.2574 30.3336 13.2574 30.3336 13.2574 30.6669V33.0002C13.2574 33.3335 13.2574 33.3335 12.9491 33.3335Z" fill="#FFC760"/>
</g>
</g>
</g>
<defs>
<clipPath id="clip0_6056_815">
<rect width="37" height="40" fill="white"/>
</clipPath>
</defs>
</svg>
