<svg id="Layer_1" data-name="Layer 1" xmlns="http://www.w3.org/2000/svg" viewBox="0 0 23.9 21.4"><title>Catalogue</title><path d="M23.6,18.6h-.8V6.3A2.26,2.26,0,0,0,20.5,4H17.6V1.6a.32.32,0,0,0-.3-.3H7.9A1.58,1.58,0,0,0,6.3,2.9V4H3.4A2.33,2.33,0,0,0,1.1,6.3V18.6H.4a.27.27,0,0,0-.3.3v1.5a2.26,2.26,0,0,0,2.3,2.3H21.7A2.26,2.26,0,0,0,24,20.4h0V18.9C23.9,18.7,23.8,18.6,23.6,18.6Zm-7.2-6.2v2.1H7.9a1,1,0,1,1,0-2h8.5Zm-7.3-.5V1.9h1.8V9a.27.27,0,0,0,.3.3c.1,0,.1,0,.2-.1l1.8-1.4L15,9.2a.19.19,0,0,0,.3,0c.1,0,.2-.2.2-.3v-7h1.8v10Zm4.2-4.7c-.1,0-.1-.1-.2-.1s-.1,0-.2.1l-.6.5V1.9H14V7.7Zm1.3-5.3h.2V8.4l-.2-.2Zm-2.9,0V8.2l-.2.2V1.9Zm-4.8,1a1,1,0,0,1,1-1h.6v10H7.9a1.78,1.78,0,0,0-1,.4Zm1,12.2h8.8a.27.27,0,0,0,.3-.3h0V12.4h.4a.27.27,0,0,0,.3-.3V6.7h2.6v10H3.7V6.7H6.3v6.7h0A1.61,1.61,0,0,0,7.9,15.1ZM1.7,6.3A1.75,1.75,0,0,1,3.4,4.6H6.3V6.1H3.4a.27.27,0,0,0-.3.3V17a.27.27,0,0,0,.3.3H20.6a.27.27,0,0,0,.3-.3V6.4a.27.27,0,0,0-.3-.3H17.7V4.6h2.9a1.69,1.69,0,0,1,1.7,1.7h0V18.6H14.9c-.1,0-.2,0-.2.1l-.4.4a1.85,1.85,0,0,1-1.2.5H11a1.66,1.66,0,0,1-1.2-.5l-.4-.4c-.1-.1-.1-.1-.2-.1H1.7ZM23.3,20.4a1.69,1.69,0,0,1-1.7,1.7H2.4A1.75,1.75,0,0,1,.7,20.4h0V19.1H9l.3.3a2.06,2.06,0,0,0,1.7.7h2.1a2.84,2.84,0,0,0,1.7-.7l.3-.3h8.3v1.3Z" transform="translate(-0.1 -1.3)" fill="#fd7636"/></svg>