<svg width="200" height="200" viewBox="0 0 200 200" fill="none" xmlns="http://www.w3.org/2000/svg">
<g clip-path="url(#clip0_6056_825)">
<path d="M113.059 111.26L104.359 140.51C103.449 143.56 102.559 146.61 101.649 149.65C100.739 152.69 98.3689 154.48 95.4989 154.27C92.6289 154.06 90.7189 152.02 90.1789 148.88C87.0789 130.667 83.9723 112.46 80.8589 94.2601C80.0389 89.4101 79.2289 84.5601 78.3989 79.7101C78.3289 79.2801 78.2189 78.8601 78.0489 78.0601C77.0489 81.9301 76.1789 85.4501 75.2989 88.9601C72.9323 98.4601 70.5589 107.963 68.1789 117.47C67.3489 120.77 65.2889 122.36 61.8589 122.36H41.6189V110.9H57.9189C58.5489 108.5 59.1689 106.17 59.7689 103.83C64.3356 86.0301 68.8989 68.2334 73.4589 50.4401C74.4589 46.7101 77.3889 44.7401 80.7189 45.6801C81.8297 45.9612 82.8285 46.574 83.5824 47.4368C84.3362 48.2997 84.8094 49.3717 84.9389 50.5101C88.5456 71.6834 92.1456 92.8468 95.7389 114C96.2689 117.09 96.8089 120.18 97.5689 123.34C97.7289 122.85 97.8989 122.34 98.0389 121.88C101.026 111.413 104.026 100.95 107.039 90.4901C108.099 86.7801 111.149 84.9301 114.459 85.9801C115.379 86.2621 116.214 86.7707 116.887 87.459C117.559 88.1474 118.048 88.9936 118.309 89.9201C120.459 96.4101 122.669 102.92 124.759 109.39C125.149 110.58 125.679 110.95 126.869 110.85C128.087 110.76 129.311 110.76 130.529 110.85C130.898 110.91 131.276 110.844 131.603 110.663C131.93 110.481 132.185 110.195 132.329 109.85C133.827 107.096 136.197 104.918 139.067 103.657C141.938 102.397 145.145 102.127 148.186 102.888C151.227 103.65 153.929 105.4 155.867 107.864C157.804 110.328 158.868 113.367 158.891 116.501C158.914 119.636 157.895 122.69 155.993 125.182C154.092 127.674 151.416 129.464 148.386 130.269C145.357 131.075 142.145 130.852 139.257 129.633C136.368 128.415 133.967 126.272 132.429 123.54C132.27 123.154 131.987 122.83 131.626 122.621C131.264 122.411 130.844 122.326 130.429 122.38C127.549 122.44 124.669 122.38 121.789 122.38C118.419 122.38 116.559 121.03 115.469 117.8C114.769 115.74 114.089 113.67 113.399 111.61C113.319 111.51 113.239 111.46 113.059 111.26Z" fill="#FFC760"/>
</g>
<defs>
<clipPath id="clip0_6056_825">
<rect width="200" height="200" fill="white"/>
</clipPath>
</defs>
</svg>
