<svg id="Layer_1" data-name="Layer 1" xmlns="http://www.w3.org/2000/svg" viewBox="0 0 22.3 18.5"><title>Client Limit</title><path d="M22.4,19.9V6a2,2,0,0,0,.3-1.1,2.2,2.2,0,0,0-4.4,0,3.55,3.55,0,0,0,.2,1,9.17,9.17,0,0,1-6.6,2.4A9.09,9.09,0,0,1,5.4,5.9a1.64,1.64,0,0,0,.2-1A2.22,2.22,0,0,0,3.4,2.7,2.22,2.22,0,0,0,1.2,4.9,2,2,0,0,0,1.5,6V19.9H.8v1.3H6.1V19.9H5.4V10.4A12.66,12.66,0,0,0,12,12a12.7,12.7,0,0,0,6.6-1.7v9.5h-.8v1.3h5.3V19.8h-.7ZM20.5,4.1a.9.9,0,0,1,.9.9.82.82,0,0,1-.9.8.9.9,0,0,1-.9-.9A.82.82,0,0,1,20.5,4.1Zm-17,0a.9.9,0,0,1,.9.9.82.82,0,0,1-.9.8.9.9,0,0,1-.9-.9A.82.82,0,0,1,3.5,4.1ZM2.9,19.9V7a1.27,1.27,0,0,0,.6.1A1.27,1.27,0,0,0,4.1,7V19.9ZM12,10.8A11.44,11.44,0,0,1,5.4,8.9V7.6a11,11,0,0,0,6.6,2,13.3,13.3,0,0,0,4.5-.8,10.5,10.5,0,0,0,2.1-1.2V8.9A11.22,11.22,0,0,1,12,10.8Zm7.9,9.1V7a1.85,1.85,0,0,0,1.2,0V19.9Z" transform="translate(-0.8 -2.7)" fill="#fd7636"/></svg>