<svg width="200" height="200" viewBox="0 0 200 200" fill="none" xmlns="http://www.w3.org/2000/svg">
<g clip-path="url(#clip0_6056_829)">
<path d="M60.9 34.8003C62.2 30.6003 64.9 29.6003 68.4 29.8003C71.9 29.9003 75.2999 29.9003 78.7999 29.8003C82.1999 29.7003 84.6999 30.7003 85.7999 34.7003H90C107.6 34.7003 125.3 34.7003 142.9 34.7003C144.2 34.7003 145.6 34.7003 146.9 34.9003C150.6 35.5003 152.8 38.1003 153.1 41.7004C153.2 42.6004 153.1 43.5003 153.1 44.4004C153.1 83.0003 153.1 121.7 153.1 160.3C153.1 161.5 153.2 162.8 153 164C152.6 167.2 150 169.7 146.8 170.1C146 170.2 145.2 170.2 144.5 170.2C114.8 170.2 85.1 170.2 55.4 170.2C54.1 170.2 52.7 170.2 51.4 169.8C48.8 168.9 47.1999 166.9 46.7999 164.1C46.7 163 46.7 161.9 46.7 160.8C46.7 122.2 46.7 83.5004 46.7 44.9004C46.7 44.0004 46.7 43.1004 46.7 42.2004C46.9 38.1003 49.2 35.5003 53.2 35.0003C55.8 34.6003 58.2 34.8003 60.9 34.8003ZM147.4 164.6C148.5 162 148.6 43.3004 147.5 40.4004C144.7 39.5003 88.7 39.5003 85.6 40.5004C85.6 41.6004 85.6 42.8004 85.6 44.0004C85.6 51.0004 85.6 58.1004 85.6 65.1004C85.6 68.5004 84.2 69.4004 81.2 68.0004C78.7 66.8004 76.2 65.5004 73.6 64.2004C71 65.5004 68.4 66.8004 65.8 68.0004C63.1 69.3004 61.6 68.4004 61.3 65.3004C61.2 64.5004 61.3 63.7004 61.3 63.0004C61.3 56.5004 61.3 50.0004 61.3 43.6004C61.3 42.4004 61.2 41.2004 61.1 40.2004H52.7C51.6 43.7004 51.7 162 52.7 164.5C55.2 165.4 144.3 165.5 147.4 164.6ZM67 35.0003C66.1 37.4003 66 58.2004 66.8 61.7004C69 60.8003 71.1 59.3004 73.3 59.3004C75.6 59.3004 77.7999 60.8003 80.2999 61.8003V35.0003H67Z" fill="#FFC760"/>
<path d="M83.1004 95.1002C83.1004 91.7002 83.1004 88.4002 83.1004 85.2002C83.1004 78.5001 85.4004 76.1001 92.4004 75.8001C93.1004 72.4001 94.9004 69.4001 98.7005 68.7001C102.701 68.0001 105.3 70.1001 106.7 72.9001C109.3 73.6001 111.8 73.6001 113.601 74.8001C115.3 75.9001 116.3 78.2001 117.101 80.3002C117.401 80.4002 117.7 80.6002 118.001 80.6002C124.101 80.9002 126.7 83.5002 126.7 89.6002C126.8 101.2 126.7 112.8 126.7 124.4C126.7 126.5 126.8 128.6 126.7 130.8C126.4 138.7 121.4 143.7 113.501 143.7C107.401 143.7 101.201 144.1 95.1005 143.4C81.9005 142 73.4005 132 73.2004 118.6C73.1005 114.1 73.2004 109.7 73.2004 105.2C73.2004 98.0002 75.4005 95.6002 83.1004 95.1002ZM121.6 110.4C121.6 103.6 121.6 96.8002 121.6 90.0002C121.6 87.1002 120.9 85.8002 119.4 85.8002C117.8 85.8002 117 87.1002 117 89.9002C117 94.6002 117 99.3002 117 104C117 105.7 116.7 107.2 114.7 107.4C113.1 107.6 112.2 106.3 112.1 103.9C112.1 103.2 112.1 102.6 112.1 101.9C112.1 95.6002 112.1 89.4002 112.1 83.1002C112.1 82.2002 112.3 81.2002 111.9 80.5002C111.5 79.7002 110.5 78.6002 109.9 78.7002C109.1 78.8002 108.2 79.8002 107.7 80.6002C107.3 81.2002 107.601 82.1002 107.601 82.9002C107.601 88.6002 107.601 94.3002 107.601 100C107.601 100.8 107.601 101.6 107.501 102.3C107.301 103.8 106.601 104.9 105.001 104.9C103.401 104.9 102.701 103.8 102.601 102.2C102.601 101.4 102.601 100.6 102.601 99.9002C102.601 93.0002 102.601 86.0002 102.601 79.1002C102.601 78.2001 102.601 77.3001 102.501 76.4001C102.301 75.0001 101.801 73.6001 100.101 73.6001C98.5005 73.6001 97.8004 74.8001 97.7005 76.3001C97.6005 77.2001 97.7005 78.1001 97.7005 79.0002C97.7005 86.0002 97.7005 93.1002 97.7005 100.1C97.7005 101 97.9004 102 97.5005 102.7C97.0005 103.6 96.1005 104.5 95.3005 104.7C94.6005 104.8 93.5005 103.9 93.1005 103.2C92.7005 102.4 92.7005 101.3 92.7005 100.3C92.7005 95.6002 92.7005 90.9002 92.7005 86.2002C92.7005 85.1002 92.9005 83.9002 92.5005 82.9002C92.2005 82.1002 91.2005 81.0002 90.6005 81.0002C89.7005 81.1002 88.7005 82.0002 88.3005 82.8002C87.9005 83.6002 88.1005 84.8002 88.1005 85.8002C88.1005 95.1002 88.1005 104.3 88.1005 113.6C88.1005 115.8 87.1005 116.9 85.6005 117C84.1005 117 83.2005 115.9 83.2005 113.7C83.1005 110.4 83.2005 107 83.2005 103.6C83.2005 101.3 82.4005 100.2 80.8005 100.3C78.8005 100.4 78.6005 101.9 78.6005 103.4C78.6005 109.3 78.4005 115.3 78.7005 121.2C79.2005 130.1 86.2005 137.5 95.1005 138.3C101.501 138.9 108.001 138.8 114.501 138.6C119.301 138.5 121.701 135.7 121.701 130.7C121.6 124 121.6 117.2 121.6 110.4Z" fill="#FFC760"/>
</g>
<defs>
<clipPath id="clip0_6056_829">
<rect width="200" height="200" fill="white"/>
</clipPath>
</defs>
</svg>
