<?xml version="1.0" encoding="utf-8"?>
<!-- Generator: Adobe Illustrator 22.1.0, SVG Export Plug-In . SVG Version: 6.00 Build 0)  -->
<svg version="1.1" id="Layer_1" xmlns="http://www.w3.org/2000/svg" xmlns:xlink="http://www.w3.org/1999/xlink" x="0px" y="0px"
	 viewBox="0 0 24 24" style="enable-background:new 0 0 24 24;" xml:space="preserve">
<style type="text/css">
	.st0{fill:#FD7636;}
</style>
<g id="Contact_email">
	<path class="st0" d="M23.8,8.9l-2.6-2V0.4C21.2,0.2,21,0,20.8,0H7.2C7.1,0,7,0,7,0.1L2.9,4.2C2.8,4.3,2.8,4.4,2.8,4.5v2.4l-2.6,2
		C0.1,9,0,9.1,0,9.2v14.4C0,23.8,0.2,24,0.4,24h23.2c0.2,0,0.4-0.2,0.4-0.4V9.2C24,9.1,23.9,9,23.8,8.9z M2.8,10.7L1,9.2l1.8-1.3
		V10.7z M6,14.4c0,0.1,0,0.3,0,0.4c0,1,0.3,2.1,0.8,3l-6,5V10.1L6,14.4z M17.2,14.8c0,1.2-0.4,2.4-1.2,3.3v-0.9
		c0-1.3-0.9-2.5-2.3-2.7c0.9-1,0.9-2.5-0.1-3.4c-1-0.9-2.5-0.9-3.4,0.1c-0.9,0.9-0.9,2.4,0,3.3C8.9,14.7,8,15.9,8,17.2v0.9
		c-1.8-2.2-1.5-5.5,0.7-7.3s5.5-1.5,7.3,0.7C16.8,12.4,17.2,13.6,17.2,14.8z M8.8,17.2c0-1.1,0.9-2,2-2h2.4c1.1,0,2,0.9,2,2v1.7
		c-1.9,1.5-4.5,1.5-6.4,0C8.8,18.9,8.8,17.2,8.8,17.2z M12,14.4c-0.9,0-1.6-0.7-1.6-1.6c0-0.9,0.7-1.6,1.6-1.6s1.6,0.7,1.6,1.6
		S12.9,14.4,12,14.4z M7.2,18.5c2,2.6,5.8,3.1,8.4,1.1c0.4-0.3,0.8-0.7,1.1-1.1l5.7,4.8h-21L7.2,18.5z M17.2,17.8
		c0.5-0.9,0.8-1.9,0.8-3c0-0.1,0-0.3,0-0.4l5.2-4.3v12.7L17.2,17.8z M23,9.2l-1.8,1.4V7.9L23,9.2z M20.4,11.3l-2.6,2.1
		c-0.7-3.2-4-5.2-7.2-4.5c-2.2,0.5-4,2.3-4.5,4.5l-2.6-2.1V4.8h3.2c0.4,0,0.8-0.4,0.8-0.8V0.8h12.8v10.5H20.4z M4.2,4l2.6-2.6V4H4.2
		z"/>
	<path class="st0" d="M9.6,2.8h8.8c0.2,0,0.4-0.2,0.4-0.4S18.6,2,18.4,2H9.6C9.4,2,9.2,2.2,9.2,2.4C9.2,2.6,9.4,2.8,9.6,2.8z"/>
	<path class="st0" d="M18.4,4.4H9.6c-0.2,0-0.4,0.2-0.4,0.4c0,0.2,0.2,0.4,0.4,0.4h8.8c0.2,0,0.4-0.2,0.4-0.4
		C18.8,4.6,18.6,4.4,18.4,4.4z"/>
	<path class="st0" d="M18.4,6.8H5.6C5.4,6.8,5.2,7,5.2,7.2s0.2,0.4,0.4,0.4h12.8c0.2,0,0.4-0.2,0.4-0.4C18.8,7,18.6,6.8,18.4,6.8z"
		/>
</g>
</svg>
