<svg width="200" height="200" viewBox="0 0 200 200" fill="none" xmlns="http://www.w3.org/2000/svg">
<g clip-path="url(#clip0_6056_836)">
<path fill-rule="evenodd" clip-rule="evenodd" d="M134.7 134.7C132.1 133.1 119.4 125.4 117 124.3C114.6 123.1 112.8 122.6 110.8 125.1C108.8 127.6 103 133.2 101.3 134.8C99.4996 136.5 97.9996 136.5 95.3996 135C92.7996 133.4 84.2996 129.9 74.7996 119.7C67.3996 111.9 62.6996 102.6 61.3996 99.8001C60.0996 97.0001 61.5996 95.7001 63.0996 94.4001C64.3996 93.3001 66.0996 91.5001 67.5996 90.1001C67.9996 89.7001 68.2996 89.3001 68.6996 88.9001C69.3996 88.0001 69.9996 87.1001 70.6996 85.8001C71.7996 84.1001 71.4996 82.5001 70.8996 81.1001C70.2996 79.7001 66.0996 66.0001 64.2996 60.4C62.5996 54.8 60.1996 55.6 58.5996 55.4C56.9996 55.3 55.2996 54.8 53.4996 54.7C51.6996 54.5 48.6996 55 45.9996 57.4C43.2996 59.9 35.6996 65.8001 34.5996 79.0001C34.2996 82.1001 34.5996 85.2001 35.1996 88.3001C37.0996 98.0001 42.2996 106.3 43.1996 107.8C44.3996 109.7 59.2996 139.2 85.7996 152.4C112.4 165.5 112.7 162 117.7 161.9C122.7 161.9 134.3 156.9 137.1 150.8C139.9 144.8 140.4 139.4 139.8 138.2C139 137.2 137.3 136.3 134.7 134.7Z" fill="#FFC760"/>
<path fill-rule="evenodd" clip-rule="evenodd" d="M150.1 87.0002H113.5L97.3999 105.4V48.7002H150.1V87.0002Z" fill="#FFC760"/>
</g>
<defs>
<clipPath id="clip0_6056_836">
<rect width="200" height="200" fill="white"/>
</clipPath>
</defs>
</svg>
