<svg width="200" height="200" viewBox="0 0 200 200" fill="none" xmlns="http://www.w3.org/2000/svg">
<g clip-path="url(#clip0_6056_858)">
<path d="M34.8 48.6V164.3H133.3C133.4 162.6 133.5 161 133.5 159.5C133.5 145.3 133.5 131.1 133.5 116.9C133.5 115.6 133.4 114.2 133.7 112.9C134.1 111 135.5 109.5 137.4 109.8C138.7 110 140.2 111.3 140.9 112.6C141.6 113.8 141.5 115.5 141.5 116.9C141.5 132.9 141.5 148.8 141.5 164.8C141.5 166 141.4 167.2 141.2 168.3C140.9 170.7 139.5 172 137.1 172C136.1 172 135 172 134 172C100.7 172 67.5 172 34.2 172C33 172 31.8 172.1 30.7 171.9C28.5 171.7 27.2 170.4 27.1 168.2C27 167.2 27 166.1 27 165.1C27 125.9 27 86.7 27 47.6C27 41.3 27.8 40.5 34.2 40.5C63 40.5 91.9 40.5 120.7 40.5C122.2 40.5 123.7 40.6 125.1 40.9C126.9 41.3 127.8 42.6 127.8 44.5C127.8 46.4 126.9 47.7 125.1 48.1C123.5 48.5 121.9 48.5 120.3 48.5C93.7 48.5 67.1 48.5 40.5 48.5H34.8V48.6Z" fill="#FFC760"/>
<path d="M164 54.9999C166.4 56.6999 168.4 57.9999 170.3 59.2999C173.4 61.5999 173.9 63.2999 171.8 66.3999C164.3 77.3999 156.8 88.3999 149.2 99.2999C147 102.5 144.2 102.7 142.3 100.2C140.9 98.2999 141.7 96.5999 142.9 94.8999C146.9 88.9999 150.9 83.1999 154.9 77.2999C157.7 73.1999 160.6 68.9999 163.6 64.5999C162.4 63.6999 161.3 62.7999 159.8 61.5999C158.8 62.9999 157.9 64.0999 157.1 65.2999C145.1 83.3999 133.1 101.5 121.2 119.7C119.1 122.9 116.8 125 112.9 125.6C110 126 107.2 127 104.3 127.6C100.9 128.3 99.1999 127.3 98.4998 123.9C97.5998 119.7 96.7998 115.5 96.5998 111.2C96.4998 109.4 97.6998 107.3 98.7998 105.6C111.8 85.7999 124.8 66.0999 137.9 46.3999C141.2 41.2999 144.6 36.2999 147.9 31.2999C150.6 27.2999 152.2 26.9999 156.2 29.7999C159.6 32.0999 163 34.4999 166.4 36.7999C172.5 40.9999 172.6 41.5999 168.6 47.6999C167.2 49.8999 165.7 52.2999 164 54.9999ZM144.7 51.2999C144.1 51.7999 143.8 51.8999 143.6 52.1999C130.9 71.2999 118.3 90.2999 105.7 109.4C105 110.5 104.9 112.2 104.9 113.5C105 115.2 105.5 116.9 105.9 118.9C109.4 117.8 112.8 118.2 115.2 114.5C126.3 97.3999 137.6 80.4999 148.8 63.4999C150.2 61.3999 151.5 59.2999 153 56.9999C150.1 55.0999 147.5 53.2999 144.7 51.2999ZM157.3 50.4999C159 47.9999 160.5 45.7999 162.1 43.2999C159 41.1999 156.3 39.2999 153.4 37.1999C151.7 39.7999 150.2 42.0999 148.6 44.4999C151.7 46.5999 154.3 48.3999 157.3 50.4999Z" fill="#FFC760"/>
<path d="M69.1996 135.599C63.6996 135.599 58.2996 135.599 52.7996 135.599C51.8996 135.599 50.9996 135.599 50.0996 135.599C46.7996 135.399 44.7996 133.699 44.8996 131.399C44.9996 129.199 46.8996 127.599 50.0996 127.599C62.7996 127.499 75.4996 127.599 88.1996 127.599C88.8996 127.599 89.8996 127.499 90.2996 127.899C91.3996 128.899 92.8996 130.099 93.1996 131.399C93.6996 133.299 92.1996 134.799 90.2996 135.299C88.9996 135.599 87.6996 135.699 86.3996 135.699C80.7996 135.599 74.9996 135.599 69.1996 135.599Z" fill="#FFC760"/>
<path d="M69 85.9004C63.4 85.9004 57.8 85.9004 52.2 85.9004C51.2 85.9004 50.1 86.0004 49.1 85.8004C46.7 85.5004 45 83.8004 45 81.9004C45 80.0004 46.6 78.4004 49.1 78.0004C50 77.9004 50.9 77.9004 51.8 77.9004C63.5 77.9004 75.1 77.9004 86.8 77.9004C87.8 77.9004 88.9 77.9004 89.9 78.1004C92 78.5004 93.5 79.8004 93.5 82.0004C93.5 84.2004 92.1 85.5004 89.9 85.9004C88.9 86.1004 87.8 86.0004 86.8 86.0004C80.8 85.9004 74.9 85.9004 69 85.9004Z" fill="#FFC760"/>
<path d="M65.5002 94.4995C70.4002 94.4995 75.3002 94.4995 80.1002 94.4995C81.1002 94.4995 82.4002 94.2995 83.1002 94.7995C84.3002 95.6995 85.5002 96.9995 85.8002 98.2995C86.3002 100.3 84.9002 101.6 82.9002 102.1C82.0002 102.3 81.2002 102.4 80.3002 102.5C70.4002 102.5 60.5002 102.5 50.6002 102.5C50.2002 102.5 49.7002 102.5 49.3002 102.4C46.5002 102 44.8002 100.4 44.9002 98.2995C44.9002 96.1995 46.7002 94.5995 49.5002 94.4995C52.3002 94.3995 55.1002 94.4995 57.9002 94.4995C60.5002 94.4995 63.0002 94.4995 65.5002 94.4995Z" fill="#FFC760"/>
<path d="M65.7003 118.9C60.5003 118.9 55.4003 119 50.2002 118.9C48.9002 118.9 47.5002 118.6 46.5002 117.9C44.1002 116.2 44.7002 112.5 47.6002 111.6C48.7002 111.2 49.9002 111.3 51.1002 111.3C60.8003 111.3 70.6003 111.3 80.3003 111.3C80.9003 111.3 81.5003 111.3 82.1003 111.3C84.8003 111.6 86.1003 112.8 86.1003 115C86.1003 117.2 84.7003 118.7 82.1003 118.8C76.6003 118.9 71.1003 118.8 65.7003 118.9Z" fill="#FFC760"/>
</g>
<defs>
<clipPath id="clip0_6056_858">
<rect width="200" height="200" fill="white"/>
</clipPath>
</defs>
</svg>
