<svg width="200" height="200" viewBox="0 0 200 200" fill="none" xmlns="http://www.w3.org/2000/svg">
<g clip-path="url(#clip0_6056_871)">
<path d="M167.6 159.4V167.6H32.3999V32.4004H40.5999V159.4H167.6ZM92.8999 79.4004L127.6 88.2004L139.4 68.2004L150 74.7004L150.6 41.2004L121.2 57.7004L131.8 64.2004L123.6 78.3004L90.5999 70.0004L54.6999 105.9L60.5999 111.8L92.8999 79.4004ZM82.8999 150.6H99.9999V90.0004L95.2999 88.8004L82.8999 101.2V150.6ZM57.6999 120.6V151.2H74.7999V110L60.6999 123.5L57.6999 120.6ZM134.1 93.5004V150.6H151.2V84.7004L143 79.4004L134.1 93.5004ZM125.3 150.6V95.9004L108.2 91.8004V150.6H125.3Z" fill="#FFC760"/>
</g>
<defs>
<clipPath id="clip0_6056_871">
<rect width="200" height="200" fill="white"/>
</clipPath>
</defs>
</svg>
