<?xml version="1.0" encoding="utf-8"?>
<!-- Generator: Adobe Illustrator 22.1.0, SVG Export Plug-In . SVG Version: 6.00 Build 0)  -->
<svg version="1.1" id="Layer_1" xmlns="http://www.w3.org/2000/svg" xmlns:xlink="http://www.w3.org/1999/xlink" x="0px" y="0px"
	 viewBox="0 0 24 24" style="enable-background:new 0 0 24 24;" xml:space="preserve">
<style type="text/css">
	.st0{fill:#FD7636;}
</style>
<path class="st0" d="M3.6,11.2c0.6,0,1.1-0.2,1.5-0.6l2.1,1c0,0.1,0,0.2,0,0.3C7.1,13,8,14,9.2,14s2.1-0.9,2.1-2.1
	c0-0.3-0.1-0.6-0.2-0.9l2.8-2.8c0.3,0.1,0.6,0.2,0.9,0.2c1.2,0,2.1-0.9,2.1-2.1c0-0.2,0-0.4-0.1-0.6l2.4-1.8
	c0.3,0.2,0.7,0.4,1.2,0.4c1.2,0,2.1-0.9,2.1-2.1S21.6,0,20.4,0s-2.1,0.9-2.1,2.1c0,0.2,0,0.4,0.1,0.6L16,4.5
	c-0.3-0.2-0.7-0.4-1.2-0.4c-1.2,0-2.1,0.9-2.1,2.1c0,0.3,0.1,0.6,0.2,0.9L10.1,10C9.8,9.9,9.5,9.8,9.2,9.8c-0.6,0-1.1,0.2-1.5,0.6
	l-2.1-1c0-0.1,0-0.2,0-0.3C5.7,7.9,4.8,7,3.6,7S1.5,7.9,1.5,9.1S2.4,11.2,3.6,11.2z"/>
<path class="st0" d="M23.2,22.5h-0.7V7.7c0-0.4-0.3-0.7-0.7-0.7H19c-0.4,0-0.7,0.3-0.7,0.7v14.8h-1.4V11.9c0-0.4-0.3-0.7-0.7-0.7
	h-2.8c-0.4,0-0.7,0.3-0.7,0.7v10.6h-1.4v-5c0-0.4-0.3-0.7-0.7-0.7H7.8c-0.4,0-0.7,0.3-0.7,0.7v5H5.7v-7.8C5.7,14.3,5.4,14,5,14H2.2
	c-0.4,0-0.7,0.3-0.7,0.7v7.8H0.8c-0.4,0-0.7,0.3-0.7,0.7s0.3,0.7,0.7,0.7h22.5c0.4,0,0.7-0.3,0.7-0.7S23.6,22.5,23.2,22.5z"/>
</svg>
