<svg width="200" height="200" viewBox="0 0 200 200" fill="none" xmlns="http://www.w3.org/2000/svg">
<g clip-path="url(#clip0_6056_951)">
<path d="M68.2007 97.9004C82.9007 98.0004 95.5007 103 105.501 114C106.701 115.3 107.801 116.9 108.801 118.3C110.901 121.2 110.801 124.1 108.801 127.1C104.101 133.9 98.2007 139.2 90.7007 142.5C74.0007 150 57.5007 149.4 41.7007 139.9C36.4007 136.7 32.1007 132.5 28.6007 127.5C26.0007 123.7 25.9007 121.7 28.6007 117.9C35.8007 107.7 45.7007 101.7 57.8007 98.9004C61.2007 98.1004 64.8007 98.1004 68.2007 97.9004ZM68.5007 103.7C60.2007 103 49.4007 110 49.4007 122.5C49.4007 134.7 58.5007 141.7 68.5007 141.7C78.5007 141.7 87.4007 134.4 87.7007 122.5C87.9007 112.1 79.0007 103.7 68.5007 103.7Z" fill="#FFC760"/>
<path d="M176.2 147.001C172 147.001 168.1 147.001 163.9 147.001C163.9 118.401 163.9 90.0009 163.9 61.6009C166.4 60.7009 172.1 60.6009 176.2 61.4009C176.2 89.8009 176.2 118.201 176.2 147.001Z" fill="#FFC760"/>
<path d="M103.902 80.7001C99.0014 85.5001 94.3014 90.2001 89.4014 95.1001C86.5014 94.3001 83.5014 93.4001 80.6014 92.6001C80.4014 91.3001 81.2014 90.8001 81.8014 90.2001C87.7014 84.2001 93.6014 78.3001 99.6014 72.4001C102.802 69.2002 104.702 69.2002 108.002 72.4001C113.202 77.4001 118.302 82.4001 123.202 87.2001C129.402 81.0001 135.802 74.6001 142.402 68.0002C141.302 66.0002 138.002 65.0002 137.602 61.8002C140.202 60.6002 153.102 60.4002 156.402 61.6002C156.402 67.4002 156.402 73.2001 156.402 79.0001C154.702 80.8001 153.702 79.1001 152.602 78.1001C151.502 77.2001 150.702 75.9001 149.302 75.2001C148.102 75.6001 147.402 76.7001 146.602 77.5001C140.602 83.4001 134.702 89.4001 128.802 95.3001C124.502 99.6001 122.802 99.6001 118.602 95.3001C113.802 90.5001 109.002 85.8001 103.902 80.7001Z" fill="#FFC760"/>
<path d="M148.9 85.2002C150.8 86.1002 152.1 86.7002 153.5 87.3002C153.5 107.1 153.5 126.9 153.5 146.9C149.3 147.3 145.1 147.9 140.9 146.9C140.3 146 140.6 145 140.5 144.1C140.5 128.4 140.5 112.8 140.4 97.1002C140.4 94.6002 141.1 92.8002 143.1 91.1002C145.2 89.5002 146.9 87.3002 148.9 85.2002Z" fill="#FFC760"/>
<path d="M130.2 147.2C126 147.2 122 147.2 117.5 147.2C117.1 133.1 117.4 119 117.3 104.4C121.8 106 126 106.4 129.9 104.1C130.7 106.5 131 141.3 130.2 147.2Z" fill="#FFC760"/>
<path d="M72.5004 110.499C69.0004 114.399 68.6003 117.699 71.1003 120.099C73.7003 122.599 77.1003 122.099 80.2003 118.799C82.5004 122.599 81.1003 128.999 77.2003 132.399C72.6003 136.399 65.3003 136.599 60.4003 132.799C55.7003 129.199 54.3003 122.199 56.8003 116.699C59.1003 111.899 66.5004 107.999 72.5004 110.499Z" fill="#FFC760"/>
</g>
<defs>
<clipPath id="clip0_6056_951">
<rect width="200" height="200" fill="white"/>
</clipPath>
</defs>
</svg>
