<svg width="200" height="200" viewBox="0 0 200 200" fill="none" xmlns="http://www.w3.org/2000/svg">
<g clip-path="url(#clip0_6056_960)">
<path d="M167.201 46.0004C167.101 41.4004 164.501 38.6004 160.001 38.0004C159.001 37.9004 158.001 37.9004 157.001 37.9004C124.301 37.9004 91.701 37.9004 59.001 37.9004C53.901 37.9004 49.701 39.0004 47.901 44.4004C46.201 44.9004 45.101 45.2004 44.001 45.5004C37.101 47.7004 33.101 52.7004 33.001 59.9004C32.901 78.6004 32.901 97.2004 33.001 115.9C33.101 125.1 39.301 132.3 48.401 134.3C50.801 134.8 53.201 135.1 56.201 135.6C56.201 137.6 56.201 139.4 56.201 141.2C56.201 146 56.201 150.9 56.201 155.7C56.201 158.9 57.601 161.1 61.501 162C63.001 160.8 64.901 159.5 66.501 157.9C73.301 151.2 80.001 144.5 86.701 137.7C88.601 135.8 90.501 134.8 93.301 134.8C102.801 134.9 112.301 134.9 121.801 134.8C124.301 134.8 126.201 135.5 128.001 137.4C131.601 141.2 135.201 144.8 138.901 148.4C139.901 149.4 141.101 150.1 143.101 151.5C143.601 148.8 144.101 147.1 144.101 145.4C144.201 138.7 144.101 132.1 144.201 125.4C144.201 123.8 144.401 122.2 144.501 120C149.201 120 153.501 120 157.701 120C164.901 119.9 167.301 117.6 167.301 110.4C167.301 96.7004 167.301 83.1004 167.301 69.4004C167.201 61.7004 167.201 53.9004 167.201 46.0004ZM94.001 125.9C88.601 125.6 84.401 127 80.901 131.2C77.301 135.5 73.001 139.3 69.001 143.3C68.001 144.3 66.901 145.2 65.201 146.8C65.201 142.2 65.201 138.4 65.201 134.6C65.201 127.1 64.101 126.1 56.401 126C55.601 126 54.701 125.9 53.901 126C47.501 126.7 42.401 121.6 41.501 114.9C41.401 113.9 41.401 112.9 41.401 111.9C41.401 95.9004 41.401 80.0004 41.401 64.0004C41.401 60.8004 41.601 57.6004 44.501 55.5004C45.201 55.0004 46.201 54.7004 48.001 54.0004V59.9004C48.001 75.9004 48.001 91.8004 48.001 107.8C48.001 109 48.001 110.1 48.001 111.3C48.201 117.3 50.901 120.1 57.001 120.1C66.801 120.2 76.601 120.1 86.501 120.1C92.801 120.1 99.201 120.4 105.501 120C110.101 119.7 113.001 121.7 115.501 125.9C107.901 125.9 100.901 126.2 94.001 125.9Z" fill="#FFC760"/>
<path d="M73.101 69.0004V76.3004H85.9011V81.4004H73.101V91.5004H66.701V63.9004H87.601V69.0004H73.101Z" fill="#FFC760"/>
<path d="M108.901 85.6004H96.101L93.701 91.5004H87.201L99.501 63.9004H105.801L118.101 91.5004H111.401L108.901 85.6004ZM106.901 80.7004L102.501 70.1004L98.101 80.7004H106.901Z" fill="#FFC760"/>
<path d="M150.401 94.5004C148.601 96.7004 146.001 97.9004 142.901 97.9004C138.801 97.9004 135.901 96.4004 131.701 91.9004C124.101 91.0004 118.801 85.2004 118.801 77.7004C118.801 69.5004 125.201 63.4004 133.901 63.4004C142.601 63.4004 149.001 69.4004 149.001 77.7004C149.001 84.2004 145.001 89.3004 139.101 91.2004C140.401 92.6004 141.601 93.1004 143.001 93.1004C144.701 93.1004 146.201 92.4004 147.501 91.0004L150.401 94.5004ZM133.901 86.5004C138.801 86.5004 142.501 82.9004 142.501 77.7004C142.501 72.5004 138.801 68.9004 133.901 68.9004C129.001 68.9004 125.301 72.5004 125.301 77.7004C125.301 82.9004 129.001 86.5004 133.901 86.5004Z" fill="#FFC760"/>
</g>
<defs>
<clipPath id="clip0_6056_960">
<rect width="200" height="200" fill="white"/>
</clipPath>
</defs>
</svg>
