<svg width="139" height="150" viewBox="0 0 139 150" fill="none" xmlns="http://www.w3.org/2000/svg">
<g clip-path="url(#clip0_6056_980)">
<path d="M115.1 31.5002C116.2 31.5002 117.1 30.6002 117.1 29.6002V25.6002C117.1 20.1002 112.7 15.7002 107.201 15.7002H35.8001C30.3001 15.7002 25.9001 20.1002 25.9001 25.6002V114.6H29.9001V25.6002C29.9001 22.3002 32.5001 19.7002 35.8001 19.7002H99.1001C97.8001 21.5002 97.1001 23.5002 97.1001 25.6002V124.5C97.0001 127.8 94.2001 130.3 90.8001 130.1C87.8001 130 85.3001 127.5 85.2001 124.5V120.5C85.2001 119.4 84.3001 118.5 83.2001 118.5H12.1001C11.0001 118.5 10.1001 119.4 10.1001 120.4V124.4C10.1001 129.9 14.5001 134.3 20.0001 134.3H91.2001C96.7001 134.3 101.1 129.9 101.1 124.4V31.5002H115.1ZM20.0001 130.4C16.7001 130.4 14.1001 127.8 14.1001 124.5V122.5H81.3001V124.5C81.3001 126.6 82.1001 128.6 83.3001 130.4H20.0001ZM107.1 19.7002C110.4 19.7002 113 22.3002 113 25.6002V27.6002H101V25.6002C101.2 22.3002 103.8 19.7002 107.1 19.7002Z" fill="#FFC760"/>
<path d="M53.6001 46.4004H73.4001V50.3004H53.6001V46.4004Z" fill="#FFC760"/>
<path d="M59.699 38.4004H79.499V42.4004H59.699V38.4004Z" fill="#FFC760"/>
<path d="M47.699 38.4004H55.699V42.4004H47.699V38.4004Z" fill="#FFC760"/>
<path d="M43.699 56.2002H91.199V60.2002H43.699V56.2002Z" fill="#FFC760"/>
<path d="M35.7991 56.2002H39.6991V60.2002H35.7991V56.2002Z" fill="#FFC760"/>
<path d="M43.699 64.2002H75.399V68.2002H43.699V64.2002Z" fill="#FFC760"/>
<path d="M79.2991 64.2002H91.1991V68.2002H79.2991V64.2002Z" fill="#FFC760"/>
<path d="M43.699 72.0996H91.199V76.0996H43.699V72.0996Z" fill="#FFC760"/>
<path d="M35.7991 72.0996H39.6991V76.0996H35.7991V72.0996Z" fill="#FFC760"/>
<path d="M43.699 80H55.599V83.9H43.699V80Z" fill="#FFC760"/>
<path d="M59.699 80H91.299V83.9H59.699V80Z" fill="#FFC760"/>
<path d="M43.699 87.9004H75.399V91.9004H43.699V87.9004Z" fill="#FFC760"/>
<path d="M35.7991 87.9004H39.6991V91.9004H35.7991V87.9004Z" fill="#FFC760"/>
<path d="M43.699 95.7998H91.199V99.7998H43.699V95.7998Z" fill="#FFC760"/>
<path d="M79.2991 87.9004H91.1991V91.9004H79.2991V87.9004Z" fill="#FFC760"/>
<path d="M122.999 47.4H120.999C121.099 43 117.699 39.4 113.399 39.3C109.099 39.2 105.499 42.6 105.299 46.8V110.7C105.299 111 105.399 111.3 105.599 111.6L111.499 123.5C111.999 124.5 113.099 124.9 114.099 124.4C114.499 124.1 114.899 123.9 114.999 123.5L120.899 111.6C120.999 111.3 121.199 111 121.199 110.7V51.3001H123.199C124.299 51.3001 125.099 52.2001 125.099 53.3001V75.1001H129.099V53.3001C128.899 50.1001 126.199 47.4 122.999 47.4ZM113.099 43.4C115.199 43.4 116.999 45.2 117.099 47.4H109.199C109.099 45.2 110.799 43.4 113.099 43.4ZM116.999 108.7H109.099V79.0001H116.999V108.7ZM116.999 75.1001H109.099V71.1001H116.999V75.1001ZM113.099 118.1L110.299 112.6H115.799L113.099 118.1ZM116.999 67.1001H109.099V51.3001H116.999V67.1001Z" fill="#FFC760"/>
</g>
<defs>
<clipPath id="clip0_6056_980">
<rect width="139" height="150" fill="white"/>
</clipPath>
</defs>
</svg>
