<svg width="200" height="200" viewBox="0 0 200 200" fill="none" xmlns="http://www.w3.org/2000/svg">
<g clip-path="url(#clip0_6056_1026)">
<path d="M48.7997 40.8002C49.3997 37.7002 49.8997 35.0002 50.5997 31.6002C52.7997 31.6002 54.8997 31.3002 56.8997 31.7002C70.5997 34.4002 84.2997 37.3002 98.0997 40.0002C101 40.6002 104 40.8002 107 40.8002C118.8 40.9002 130.7 40.8002 142.5 40.8002C150.6 40.8002 153.2 43.1002 154.5 51.2002C156.2 51.7002 157.9 52.3002 160.5 53.1002C159.9 55.1002 159.4 56.9002 158.9 59.0002C124.3 52.0002 90.3997 45.1002 56.0997 38.2002C54.9997 44.6002 53.9997 50.7002 52.8997 57.6002C50.6997 57.0002 49.0997 56.6002 47.0997 56.2002C47.2997 53.2002 47.4997 50.8002 47.6997 47.8002C45.7997 47.9002 43.8997 48.0002 41.3997 48.2002C40.6997 50.5002 40.0997 52.6002 39.3997 55.1002C47.3997 60.9002 56.1997 58.4002 63.8997 59.4002C64.6997 54.9002 65.3997 50.8002 65.9997 47.1002C70.9997 45.7002 100.8 52.3002 103.6 55.3002C103.3 56.4002 102.9 57.6002 102.4 59.2002C103.7 59.3002 104.9 59.4002 106.2 59.4002C124.6 59.3002 142.9 59.1002 161.3 58.9002C168.9 58.8002 172.2 62.0002 172.2 69.7002C172.2 79.5002 172.2 89.3002 172.2 99.6002C177.1 101 177.3 105 177 109.3C176.8 112.6 176.9 115.8 177 119.1C177.2 123.1 176.9 126.9 172.2 128.1C172.2 138.3 172.2 148.1 172.2 157.9C172.2 165.1 168.9 168.4 161.8 168.5C124.5 168.5 87.1997 168.6 49.8997 168.5C32.9997 168.5 22.8997 158.4 22.7997 141.6C22.5997 115.5 22.5997 89.3002 22.6997 63.2002C22.6997 51.5002 30.9997 43.0002 43.3997 41.4002C45.0997 41.1002 46.7997 41.0002 48.7997 40.8002ZM32.9997 53.7002C30.0997 56.5002 29.2997 60.0002 29.2997 63.5002C29.2997 89.4002 29.2997 115.2 29.3997 141.1C29.4997 154.8 36.4997 161.9 50.0997 161.9C87.0997 162 124.1 161.9 161.2 161.9C162.6 161.9 164 161.5 165.6 161.2V128.4C164.1 128.3 162.8 128.2 161.5 128.2C155.5 128.2 149.5 128.3 143.5 128.2C137.2 128.1 135.5 126.3 135.5 120.1C135.5 115.9 135.5 111.7 135.5 107.4C135.5 101.8 137.4 99.7002 143 99.5002C148.2 99.3002 153.3 99.5002 158.5 99.5002C160.9 99.5002 163.3 99.5002 165.4 99.5002V65.5002C163.3 65.5002 161.5 65.5002 159.8 65.5002C126.1 65.6002 92.2997 65.7002 58.5997 65.7002C54.3997 65.7002 50.0997 65.5002 45.9997 64.9002C39.4997 63.9002 34.1997 61.3002 32.9997 53.7002ZM171 106H141.7V121.9H171V106ZM96.6997 59.2002C96.6997 59.0002 96.7997 58.8002 96.7997 58.6002C88.4997 56.8002 80.0997 55.0002 71.5997 53.1002C70.9997 55.4002 70.5997 57.2002 70.0997 59.1002H96.6997V59.2002ZM146.9 49.8002C147 49.4002 147.1 49.0002 147.3 48.6002C144.6 46.2002 141.2 47.9002 138.1 48.1002C141 48.7002 143.9 49.2002 146.9 49.8002Z" fill="#FFC760"/>
</g>
<defs>
<clipPath id="clip0_6056_1026">
<rect width="200" height="200" fill="white"/>
</clipPath>
</defs>
</svg>
