<?xml version="1.0" encoding="utf-8"?>
<!-- Generator: Adobe Illustrator 23.0.4, SVG Export Plug-In . SVG Version: 6.00 Build 0)  -->
<svg version="1.1" id="Layer_1" xmlns="http://www.w3.org/2000/svg" xmlns:xlink="http://www.w3.org/1999/xlink" x="0px" y="0px"
	 viewBox="0 0 24 24" style="enable-background:new 0 0 24 24;" xml:space="preserve">
<style type="text/css">
	.st0{fill:#484E87;}
</style>
<g id="Outline">
	<path class="st0" d="M21.2,3.2c0.2,0,0.4-0.2,0.4-0.4V2c0-1.1-0.9-2-2-2H5.2c-1.1,0-2,0.9-2,2v18H4V2c0-0.7,0.5-1.2,1.2-1.2H18
		c-0.3,0.3-0.4,0.8-0.4,1.2v20c0,0.7-0.5,1.2-1.2,1.2c-0.7,0-1.2-0.5-1.2-1.2v-0.8c0-0.2-0.2-0.4-0.4-0.4H0.4C0.2,20.8,0,21,0,21.2
		V22c0,1.1,0.9,2,2,2h14.4c1.1,0,2-0.9,2-2V3.2H21.2z M2,23.2c-0.7,0-1.2-0.5-1.2-1.2v-0.4h13.6V22c0,0.4,0.1,0.9,0.4,1.2H2z
		 M19.6,0.8c0.7,0,1.2,0.5,1.2,1.2v0.4h-2.4V2C18.4,1.3,18.9,0.8,19.6,0.8z"/>
	<path class="st0" d="M8.4,4.4c0,0.3,0.1,0.6,0.4,0.8C8.7,5.8,9.1,6.3,9.7,6.4c0.1,0,0.2,0,0.3,0c0.4,0.5,1,0.5,1.5,0.2
		c0.1-0.1,0.1-0.1,0.2-0.2c0.6,0.1,1.1-0.3,1.2-0.9c0-0.1,0-0.2,0-0.3c0.5-0.4,0.5-1,0.2-1.5c-0.1-0.1-0.1-0.1-0.2-0.2
		c0.1-0.6-0.3-1.1-0.9-1.2c-0.1,0-0.2,0-0.3,0c-0.4-0.5-1-0.5-1.5-0.2C10.1,2.3,10,2.3,10,2.4C9.4,2.3,8.9,2.7,8.8,3.3
		c0,0.1,0,0.2,0,0.3C8.5,3.8,8.4,4.1,8.4,4.4L8.4,4.4z M9.4,4.2c0.2,0,0.3-0.3,0.3-0.5c0,0,0-0.1,0-0.1c-0.1-0.1,0-0.3,0.1-0.3
		c0.1,0,0.2,0,0.3,0c0.2,0.1,0.4,0.1,0.5-0.1c0,0,0-0.1,0-0.1c0-0.1,0.2-0.2,0.3-0.2C10.9,2.8,11,2.9,11,3c0,0.2,0.3,0.3,0.5,0.3
		c0,0,0.1,0,0.1,0c0.1-0.1,0.3,0,0.3,0.1c0,0.1,0,0.2,0,0.3c-0.1,0.2-0.1,0.4,0.1,0.5c0,0,0.1,0,0.1,0c0.1,0,0.2,0.2,0.2,0.3
		c0,0.1-0.1,0.2-0.2,0.2c-0.2,0-0.3,0.3-0.3,0.5c0,0,0,0.1,0,0.1c0.1,0.1,0,0.3-0.1,0.3c-0.1,0-0.2,0-0.3,0
		c-0.2-0.1-0.4-0.1-0.5,0.1c0,0,0,0.1,0,0.1C11,5.9,10.9,6,10.7,6c-0.1,0-0.2-0.1-0.2-0.2c0-0.2-0.3-0.3-0.5-0.3c0,0-0.1,0-0.1,0
		c-0.1,0.1-0.3,0-0.3-0.1c0-0.1,0-0.2,0-0.3c0.1-0.2,0.1-0.4-0.1-0.5c0,0-0.1,0-0.1,0c-0.1,0-0.2-0.2-0.2-0.3
		C9.2,4.3,9.3,4.2,9.4,4.2L9.4,4.2z"/>
	<path class="st0" d="M8.8,9.2h4V10h-4V9.2z"/>
	<path class="st0" d="M10,7.6h4v0.8h-4V7.6z"/>
	<path class="st0" d="M7.6,7.6h1.6v0.8H7.6V7.6z"/>
	<path class="st0" d="M6.8,11.2h9.6V12H6.8V11.2z"/>
	<path class="st0" d="M5.2,11.2H6V12H5.2V11.2z"/>
	<path class="st0" d="M6.8,12.8h6.4v0.8H6.8V12.8z"/>
	<path class="st0" d="M14,12.8h2.4v0.8H14V12.8z"/>
	<path class="st0" d="M6.8,14.4h9.6v0.8H6.8V14.4z"/>
	<path class="st0" d="M5.2,14.4H6v0.8H5.2V14.4z"/>
	<path class="st0" d="M6.8,16h2.4v0.8H6.8V16z"/>
	<path class="st0" d="M10,16h6.4v0.8H10V16z"/>
	<path class="st0" d="M6.8,17.6h6.4v0.8H6.8V17.6z"/>
	<path class="st0" d="M5.2,17.6H6v0.8H5.2V17.6z"/>
	<path class="st0" d="M6.8,19.2h9.6V20H6.8V19.2z"/>
	<path class="st0" d="M14,17.6h2.4v0.8H14V17.6z"/>
	<path class="st0" d="M22.8,6.4h-0.4c0-0.9-0.7-1.6-1.6-1.6c-0.9,0-1.6,0.7-1.6,1.6v12.8c0,0.1,0,0.1,0,0.2l0,0l1.2,2.4
		c0.1,0.2,0.3,0.3,0.5,0.2c0.1,0,0.1-0.1,0.2-0.2l1.2-2.4l0,0c0-0.1,0-0.1,0-0.2v-12h0.4c0.2,0,0.4,0.2,0.4,0.4V12H24V7.6
		C24,6.9,23.5,6.4,22.8,6.4z M20.8,5.6c0.4,0,0.8,0.4,0.8,0.8H20C20,6,20.4,5.6,20.8,5.6z M21.6,18.8H20v-6h1.6V18.8z M21.6,12H20
		v-0.8h1.6V12z M20.8,20.7l-0.6-1.1h1.1L20.8,20.7z M21.6,10.4H20V7.2h1.6V10.4z"/>
</g>
</svg>
