<svg width="37" height="37" viewBox="0 0 37 37" fill="none" xmlns="http://www.w3.org/2000/svg">
<path d="M19.425 9.24995C19.425 7.778 20.0097 6.36634 21.0506 5.32551C22.0914 4.28468 23.503 3.69995 24.975 3.69995C26.447 3.69995 27.8586 4.28468 28.8994 5.32551C29.9403 6.36634 30.525 7.778 30.525 9.24995V12.95L32.967 15.0201C33.1113 15.1427 33.2145 15.3067 33.2626 15.4898C33.3107 15.673 33.3015 15.8665 33.2361 16.0442C33.1708 16.222 33.0524 16.3753 32.8971 16.4837C32.7418 16.592 32.557 16.65 32.3676 16.65H17.5806C17.3913 16.6497 17.2068 16.5913 17.0517 16.4829C16.8967 16.3744 16.7787 16.221 16.7135 16.0434C16.6484 15.8657 16.6393 15.6724 16.6875 15.4894C16.7357 15.3064 16.8388 15.1426 16.983 15.0201L19.425 12.95V9.24995ZM24.975 20.35C24.4009 20.3503 23.8408 20.1725 23.372 19.8411C22.9032 19.5098 22.5486 19.0412 22.3573 18.5H27.5909C27.3995 19.0412 27.045 19.5098 26.5762 19.8411C26.1073 20.1725 25.5473 20.3503 24.9732 20.35M11.1 11.1H17.575V9.24995H11.1C10.6093 9.24995 10.1388 9.44486 9.79185 9.7918C9.44491 10.1387 9.25 10.6093 9.25 11.1V29.6C9.25 30.0906 9.44491 30.5612 9.79185 30.9081C10.1388 31.255 10.6093 31.45 11.1 31.45H22.2C23.1813 31.45 24.1224 31.0601 24.8163 30.3662C25.5102 29.6724 25.9 28.7313 25.9 27.75V22.1075C25.2896 22.232 24.6604 22.232 24.05 22.1075V27.75C24.05 28.2406 23.8551 28.7112 23.5081 29.0581C23.1612 29.405 22.6907 29.6 22.2 29.6H11.1V11.1Z" fill="#FCC85E"/>
</svg>
