<svg width="200" height="200" viewBox="0 0 200 200" fill="none" xmlns="http://www.w3.org/2000/svg">
<g clip-path="url(#clip0_6056_797)">
<path d="M160 55.0001C159.86 55.4001 159.71 55.7901 159.59 56.1901C159.197 57.5903 158.499 58.8865 157.547 59.9859C156.595 61.0854 155.411 61.9611 154.082 62.5505C152.752 63.1399 151.309 63.4284 149.855 63.3955C148.401 63.3626 146.972 63.009 145.67 62.3601C145.403 62.1846 145.09 62.0911 144.77 62.0911C144.45 62.0911 144.137 62.1846 143.87 62.3601C138.431 65.6334 132.978 68.8767 127.511 72.0901C127.258 72.2147 127.048 72.4135 126.911 72.66C126.773 72.9065 126.714 73.1891 126.741 73.4701C126.674 75.8075 125.789 78.0475 124.242 79.8005C122.694 81.5536 120.581 82.7089 118.27 83.0655C115.959 83.4221 113.596 82.9576 111.592 81.7526C109.588 80.5477 108.07 78.6785 107.301 76.4701C107.099 75.9123 106.706 75.4445 106.191 75.1501C101.191 72.6201 96.1905 70.1501 91.1905 67.6501C90.9669 67.5082 90.7009 67.4485 90.4382 67.4814C90.1754 67.5142 89.9323 67.6375 89.7505 67.8301C88.3652 68.9841 86.6815 69.7223 84.8941 69.9595C83.1068 70.1966 81.2888 69.9229 79.6505 69.1701C79.4038 69.0351 79.1213 68.9799 78.8419 69.0122C78.5625 69.0444 78.3 69.1625 78.0905 69.3501C72.1638 73.7834 66.2438 78.1934 60.3305 82.5801C60.0719 82.7349 59.8791 82.9793 59.7887 83.2669C59.6984 83.5545 59.7168 83.8652 59.8405 84.1401C60.3994 86.0063 60.3711 87.9992 59.7593 89.8488C59.1475 91.6984 57.982 93.3152 56.4205 94.4801C54.9521 95.7343 53.1318 96.5037 51.209 96.6827C49.2862 96.8617 47.3552 96.4417 45.6805 95.4801C43.9192 94.6439 42.4585 93.285 41.4976 91.5886C40.5366 89.8922 40.1221 87.9407 40.3105 86.0001C40.4087 84.4108 40.8895 82.8687 41.7121 81.5053C42.5347 80.1418 43.6746 78.9974 45.0348 78.1695C46.395 77.3416 47.9352 76.8547 49.5241 76.7504C51.1131 76.646 52.7037 76.9272 54.1605 77.5701C54.5016 77.7639 54.8961 77.8423 55.2853 77.7936C55.6745 77.7449 56.0376 77.5719 56.3205 77.3001C61.9805 73.0401 67.6472 68.8034 73.3205 64.5901C73.631 64.4517 73.8754 64.198 74.0023 63.8826C74.1292 63.5673 74.1286 63.215 74.0005 62.9001C73.6232 61.6219 73.5068 60.281 73.6581 58.9569C73.8095 57.6329 74.2256 56.3528 74.8816 55.1928C75.5376 54.0328 76.4202 53.0165 77.4769 52.2045C78.5335 51.3924 79.7427 50.8011 81.0325 50.4658C82.3222 50.1304 83.6663 50.0579 84.9847 50.2524C86.3031 50.4469 87.5689 50.9045 88.7069 51.5981C89.8448 52.2917 90.8317 53.207 91.6088 54.2896C92.386 55.3722 92.9374 56.6 93.2305 57.9001C93.4305 58.7901 93.3505 59.7501 93.4605 60.6701C93.5257 61.0082 93.6621 61.3286 93.8605 61.6101C93.9205 61.7301 94.1205 61.7601 94.2605 61.8301L108.001 68.6401C108.753 67.2589 109.82 66.0745 111.116 65.1831C112.412 64.2917 113.899 63.7185 115.458 63.5101C117.017 63.3016 118.603 63.4637 120.087 63.9832C121.572 64.5027 122.912 65.365 124.001 66.5001L140.55 56.6501C139.371 52.2901 140.29 48.5601 143.74 45.7301C145.042 44.6548 146.597 43.9291 148.258 43.6214C149.919 43.3138 151.63 43.4343 153.231 43.9717C154.832 44.5091 156.27 45.4456 157.409 46.6928C158.548 47.94 159.35 49.4568 159.74 51.1001C159.82 51.3901 159.92 51.6801 160.02 51.9601L160 55.0001Z" fill="#FFC760"/>
<path d="M160 154.11C159.08 155.97 157.59 156.58 155.54 156.52C151.69 156.39 147.83 156.52 143.97 156.52C141.28 156.52 140.07 155.31 140.07 152.59V87.2396C140.07 84.6196 141.32 83.3596 143.93 83.3496C147.83 83.3496 151.72 83.3996 155.62 83.3496C157.62 83.3496 159.18 83.9396 160 85.8896V154.11Z" fill="#FFC760"/>
<path d="M73.5 123.26V94.2595C73.5 91.1695 74.65 90.0195 77.71 90.0195C81.6 90.0195 85.5 90.0195 89.39 90.0195C92.31 90.0195 93.47 91.1895 93.48 94.1395V118.8C93.48 129.97 93.48 141.15 93.48 152.33C93.4819 153.4 93.1613 154.445 92.56 155.33C92.2481 155.661 91.8736 155.927 91.4582 156.112C91.0428 156.298 90.5947 156.399 90.14 156.41C85.74 156.51 81.33 156.48 76.93 156.41C74.85 156.41 73.57 154.99 73.55 152.76C73.55 149.29 73.55 145.83 73.55 142.36L73.5 123.26Z" fill="#FFC760"/>
<path d="M126.73 129.93V152.35C126.73 155.29 125.55 156.48 122.65 156.48H110.74C107.98 156.48 106.74 155.27 106.74 152.48C106.74 141.027 106.74 129.58 106.74 118.14C106.74 114.56 106.74 110.98 106.74 107.4C106.74 104.53 107.93 103.33 110.74 103.32C114.74 103.32 118.74 103.32 122.74 103.32C125.42 103.32 126.67 104.57 126.67 107.26C126.717 114.82 126.737 122.377 126.73 129.93Z" fill="#FFC760"/>
<path d="M60.201 136.56C60.201 141.86 60.201 147.15 60.201 152.45C60.201 155.33 59.041 156.45 56.201 156.45C52.151 156.45 48.101 156.45 44.051 156.45C41.601 156.45 40.311 155.15 40.311 152.7C40.311 141.913 40.311 131.127 40.311 120.34C40.311 117.94 41.561 116.62 43.951 116.6C48.151 116.56 52.3544 116.56 56.561 116.6C58.991 116.6 60.221 117.89 60.231 120.31C60.211 125.74 60.201 131.15 60.201 136.56Z" fill="#FFC760"/>
</g>
<defs>
<clipPath id="clip0_6056_797">
<rect width="200" height="200" fill="white"/>
</clipPath>
</defs>
</svg>
