<svg width="200" height="200" viewBox="0 0 200 200" fill="none" xmlns="http://www.w3.org/2000/svg">
<g clip-path="url(#clip0_6056_841)">
<path d="M76.5588 52.72C76.5588 51.36 76.5588 50.15 76.5588 48.93C76.532 48.3979 76.6136 47.8658 76.7987 47.3663C76.9838 46.8667 77.2686 46.4099 77.6357 46.0238C78.0028 45.6377 78.4446 45.3303 78.9342 45.1202C79.4238 44.9101 79.951 44.8018 80.4838 44.8018C81.0166 44.8018 81.5438 44.9101 82.0334 45.1202C82.5231 45.3303 82.9649 45.6377 83.332 46.0238C83.6991 46.4099 83.9838 46.8667 84.169 47.3663C84.3541 47.8658 84.4357 48.3979 84.4088 48.93C84.4088 50.14 84.4088 51.36 84.4088 52.63H115.849V49.4C115.849 46.66 117.379 44.88 119.739 44.86C122.099 44.84 123.739 46.65 123.739 49.46V52.71H128.629C131.548 52.6475 134.441 53.2781 137.069 54.55C144.269 58.12 148.069 63.98 148.479 71.98C149.452 88.8939 149.536 105.847 148.729 122.77C148.668 126.205 148.334 129.629 147.729 133.01C146.787 137.105 144.54 140.782 141.326 143.488C138.111 146.194 134.104 147.781 129.909 148.01C114.739 148.95 99.5688 149.21 84.3788 148.67C78.9488 148.47 73.4788 148.38 68.0988 147.67C59.3289 146.5 52.4989 138.67 51.9389 129.81C50.8324 112.328 50.6955 94.7974 51.5289 77.3C51.5794 73.9907 51.9139 70.6919 52.5289 67.44C53.5577 63.2785 55.9378 59.5758 59.2965 56.9121C62.655 54.2483 66.8024 52.7739 71.0888 52.72C72.8488 52.7 74.5988 52.72 76.5588 52.72ZM59.2089 84.18C59.1725 84.3782 59.1491 84.5786 59.1389 84.78C58.6689 99.67 58.8289 114.56 59.8289 129.43C60.0398 132.21 61.2422 134.822 63.2172 136.789C65.1921 138.757 67.8082 139.949 70.5888 140.15C74.2288 140.4 77.8688 140.54 81.4988 140.7C97.57 141.407 113.668 141.223 129.719 140.15C132.501 139.945 135.116 138.745 137.085 136.769C139.054 134.792 140.245 132.173 140.439 129.39C141.439 114.56 141.609 99.72 141.139 84.87C141.112 84.6365 141.065 84.4057 140.999 84.18H59.2089ZM140.919 76.24C140.802 73.7875 140.502 71.3473 140.019 68.94C138.229 62.47 130.799 58.83 123.719 60.78V64.07C123.719 66.66 122.069 68.45 119.719 68.42C117.369 68.39 115.849 66.63 115.829 64.11C115.829 62.95 115.829 61.78 115.829 60.64H84.4188C84.4188 61.92 84.4188 63.14 84.4188 64.36C84.4457 64.8921 84.3641 65.4241 84.179 65.9237C83.9938 66.4233 83.7091 66.88 83.342 67.2661C82.9748 67.6522 82.5331 67.9596 82.0434 68.1697C81.5538 68.3798 81.0266 68.4881 80.4938 68.4881C79.961 68.4881 79.4338 68.3798 78.9442 68.1697C78.4546 67.9596 78.0128 67.6522 77.6457 67.2661C77.2786 66.88 76.9938 66.4233 76.8087 65.9237C76.6236 65.4241 76.542 64.8921 76.5688 64.36C76.5688 63.15 76.5688 61.93 76.5688 60.62C74.6888 60.62 72.9388 60.62 71.1888 60.62C68.9279 60.6487 66.7258 61.3445 64.8588 62.62C59.9989 66 59.3589 70.89 59.6389 76.24H140.919Z" fill="#FFC760"/>
<path d="M80.4803 95.9404C81.6478 95.9385 82.7895 96.2836 83.7605 96.9318C84.7315 97.58 85.4879 98.5022 85.9337 99.5812C86.3796 100.661 86.4947 101.848 86.2645 102.992C86.0342 104.137 85.4691 105.187 84.6407 106.01C83.8124 106.833 82.7582 107.391 81.6121 107.613C80.466 107.835 79.2797 107.712 78.2038 107.259C77.1278 106.806 76.2109 106.043 75.5693 105.068C74.9277 104.092 74.5904 102.948 74.6003 101.781C74.6187 100.231 75.2453 98.7495 76.3452 97.6571C77.4451 96.5647 78.9302 95.9482 80.4803 95.9404Z" fill="#FFC760"/>
<path d="M106 101.771C106.012 102.939 105.677 104.084 105.036 105.06C104.396 106.037 103.48 106.801 102.404 107.256C101.328 107.711 100.142 107.836 98.9951 107.614C97.8483 107.393 96.7932 106.836 95.9639 106.014C95.1345 105.191 94.5684 104.141 94.3373 102.996C94.1063 101.851 94.2208 100.664 94.6663 99.5836C95.1118 98.504 95.8682 97.5812 96.8394 96.9325C97.8106 96.2838 98.9527 95.9385 100.12 95.9404C101.668 95.9507 103.15 96.5667 104.249 97.6564C105.348 98.7461 105.977 100.223 106 101.771Z" fill="#FFC760"/>
<path d="M119.791 95.9404C120.959 95.9405 122.1 96.2878 123.07 96.9382C124.04 97.5885 124.795 98.5126 125.239 99.5929C125.683 100.674 125.795 101.862 125.562 103.006C125.329 104.15 124.761 105.2 123.93 106.021C123.1 106.841 122.043 107.397 120.896 107.616C119.749 107.835 118.563 107.709 117.488 107.252C116.413 106.796 115.498 106.03 114.859 105.052C114.221 104.074 113.887 102.929 113.901 101.761C113.922 100.212 114.551 98.7326 115.653 97.6436C116.755 96.5547 118.242 95.9429 119.791 95.9404Z" fill="#FFC760"/>
<path d="M86.3801 121.49C86.376 122.657 86.0254 123.797 85.3726 124.765C84.7199 125.731 83.7945 126.483 82.7138 126.924C81.6331 127.364 80.4459 127.474 79.3028 127.239C78.1597 127.003 77.1123 126.434 76.2934 125.602C75.4746 124.772 74.9212 123.715 74.7035 122.569C74.4858 121.422 74.6136 120.237 75.0708 119.163C75.5279 118.089 76.2937 117.176 77.271 116.538C78.2483 115.9 79.3931 115.567 80.5601 115.581C82.1119 115.604 83.5921 116.237 84.681 117.344C85.77 118.448 86.3803 119.939 86.3801 121.49Z" fill="#FFC760"/>
<path d="M106.001 121.45C106.005 122.617 105.662 123.759 105.016 124.731C104.37 125.703 103.449 126.461 102.372 126.909C101.294 127.357 100.107 127.474 98.963 127.247C97.8183 127.02 96.767 126.457 95.9425 125.631C95.118 124.805 94.5574 123.753 94.3319 122.608C94.1064 121.463 94.2262 120.277 94.676 119.2C95.1258 118.123 95.8854 117.204 96.8584 116.559C97.8313 115.915 98.9738 115.574 100.141 115.58C101.693 115.593 103.177 116.216 104.273 117.314C105.37 118.413 105.99 119.898 106.001 121.45Z" fill="#FFC760"/>
<path d="M125.68 121.5C125.674 122.667 125.321 123.807 124.666 124.773C124.012 125.74 123.084 126.49 122.002 126.928C120.92 127.367 119.732 127.474 118.589 127.236C117.447 126.998 116.4 126.425 115.583 125.591C114.766 124.757 114.215 123.7 114.001 122.552C113.786 121.404 113.917 120.219 114.378 119.146C114.838 118.073 115.607 117.162 116.587 116.527C117.567 115.892 118.713 115.562 119.88 115.58C121.431 115.606 122.909 116.242 123.995 117.35C125.08 118.458 125.686 119.949 125.68 121.5Z" fill="#FFC760"/>
</g>
<defs>
<clipPath id="clip0_6056_841">
<rect width="200" height="200" fill="white"/>
</clipPath>
</defs>
</svg>
