<svg width="200" height="200" viewBox="0 0 200 200" fill="none" xmlns="http://www.w3.org/2000/svg">
<g clip-path="url(#clip0_6056_851)">
<path d="M71.6499 166.371V113.871C74.6499 113.871 77.5499 114.021 80.4399 113.871C85.3861 113.479 90.2156 112.166 94.6799 110.001C95.4763 109.631 96.3418 109.433 97.2199 109.421C107.63 109.421 118.04 109.421 128.45 109.421C129.1 109.463 129.752 109.372 130.364 109.152C130.977 108.932 131.539 108.589 132.014 108.144C132.489 107.699 132.867 107.161 133.126 106.564C133.385 105.966 133.519 105.322 133.519 104.671C133.519 104.02 133.385 103.376 133.126 102.778C132.867 102.181 132.489 101.643 132.014 101.198C131.539 100.753 130.977 100.41 130.364 100.19C129.752 99.97 129.1 99.8784 128.45 99.9206C122.16 99.9206 115.86 99.9206 109.57 99.9206C109.23 99.9206 108.9 99.9206 108.29 99.9206C113.087 94.4944 116.471 87.9681 118.14 80.9206H125.91C131.51 80.9206 137.12 80.9206 142.72 80.9206C143.391 80.8739 144.064 80.9708 144.695 81.2049C145.325 81.4389 145.899 81.8048 146.377 82.278C146.855 82.7511 147.225 83.3208 147.465 83.9489C147.706 84.5771 147.81 85.2492 147.77 85.9206C147.77 112.488 147.77 139.061 147.77 165.641C147.77 165.881 147.77 166.131 147.77 166.481L71.6499 166.371ZM109.65 128.371C115.85 128.371 122.047 128.371 128.24 128.371C131.24 128.371 133.44 126.431 133.48 123.681C133.52 120.931 131.35 118.861 128.23 118.861H91.2299C88.0699 118.861 85.9199 120.801 85.9199 123.611C85.9199 126.421 88.0899 128.371 91.2399 128.371C97.3532 128.398 103.48 128.404 109.62 128.391L109.65 128.371ZM109.65 137.891H91.2199C88.0299 137.891 85.8899 139.791 85.8599 142.601C85.8299 145.411 88.0099 147.401 91.1399 147.401H128.14C131.27 147.401 133.44 145.401 133.42 142.611C133.4 139.821 131.23 137.891 128.06 137.891H109.65Z" fill="#FFC760"/>
<path d="M59.7203 48.13C61.9103 50.02 62.5103 51.81 61.7203 53.86C60.9303 55.91 59.2503 57 56.5603 57C53.8703 57 50.9103 57 48.0803 57C47.415 57.0329 46.7502 56.9261 46.1286 56.6865C45.5071 56.4469 44.9426 56.0797 44.4716 55.6087C44.0006 55.1377 43.6334 54.5732 43.3938 53.9517C43.1542 53.3301 43.0474 52.6653 43.0803 52C43.0803 49.17 43.0803 46.35 43.0803 43.52C43.0803 40.52 44.4203 38.61 46.8703 38.07C49.3203 37.53 51.1403 38.78 52.4703 41.69L53.6303 40.86C58.775 36.9955 64.8168 34.5008 71.1892 33.6095C77.5615 32.7182 84.0559 33.4597 90.0634 35.7644C96.0709 38.069 101.395 41.8614 105.536 46.786C109.677 51.7106 112.5 57.6062 113.74 63.92C118.03 84.62 103.68 105.44 82.8103 108.81C77.8062 109.669 72.6807 109.519 67.7357 108.367C62.7907 107.215 58.1261 105.086 54.0167 102.104C49.9072 99.1217 46.4359 95.3476 43.8072 91.0037C41.1785 86.6598 39.4455 81.8338 38.7103 76.81C38.4717 75.0935 38.3481 73.3629 38.3403 71.63C38.3022 70.9878 38.3957 70.3446 38.6151 69.7399C38.8345 69.1352 39.1753 68.5818 39.6163 68.1135C40.0574 67.6453 40.5896 67.2722 41.1801 67.017C41.7706 66.7619 42.4071 66.6302 43.0503 66.63C45.7503 66.63 47.7203 68.71 47.8403 71.63C48.3303 83.63 53.9603 92.42 64.8403 97.44C82.1103 105.44 102.49 93.81 104.7 74.97C105.251 70.8131 104.878 66.5859 103.608 62.5898C102.337 58.5936 100.201 54.9269 97.3516 51.8508C94.5019 48.7748 91.0087 46.3652 87.1211 44.7939C83.2335 43.2225 79.0471 42.528 74.8603 42.76C69.3947 43.0187 64.1275 44.887 59.7203 48.13Z" fill="#FFC760"/>
<path d="M162.001 166.41H152.521V81.9995C152.521 77.7395 150.841 76.0595 146.591 76.0595H119.051V66.5795C119.451 66.5795 119.881 66.5195 120.321 66.5195H156.751C160.011 66.5195 162.001 68.4395 162.001 71.6395C162.001 102.92 162.001 134.203 162.001 165.49C162.001 165.74 162.001 166 162.001 166.41Z" fill="#FFC760"/>
<path d="M71.58 66.5103C71.58 63.3003 71.58 60.3304 71.58 57.3604C71.58 54.3904 73.58 52.2204 76.38 52.2404C77.0207 52.2491 77.6532 52.3866 78.2398 52.6446C78.8263 52.9026 79.355 53.276 79.7944 53.7424C80.2338 54.2088 80.5749 54.7589 80.7975 55.3598C81.0201 55.9607 81.1195 56.6003 81.09 57.2404C81.09 61.8004 81.09 66.3603 81.09 70.9203C81.1365 71.5916 81.0396 72.2652 80.8056 72.8962C80.5716 73.5271 80.2059 74.101 79.7329 74.5797C79.2599 75.0584 78.6904 75.4309 78.0623 75.6724C77.4342 75.9139 76.7618 76.0188 76.09 75.9803C71.4766 75.9803 66.8666 75.9803 62.26 75.9803C61.0002 75.9803 59.792 75.4799 58.9012 74.5891C58.0104 73.6983 57.51 72.4901 57.51 71.2303C57.51 69.9705 58.0104 68.7623 58.9012 67.8716C59.792 66.9808 61.0002 66.4803 62.26 66.4803C65.3 66.4903 68.36 66.5103 71.58 66.5103Z" fill="#FFC760"/>
</g>
<defs>
<clipPath id="clip0_6056_851">
<rect width="200" height="200" fill="white"/>
</clipPath>
</defs>
</svg>
