<svg xmlns="http://www.w3.org/2000/svg" viewBox="0 0 25 25"><defs><style>.cls-1{fill:#edf4fc;}.cls-2{fill:#fd7636;}.cls-3{fill:#fff;}</style></defs><title>Asset 3</title><g id="Layer_2" data-name="Layer 2"><g id="Layer_1-2" data-name="Layer 1"><path class="cls-1" d="M21.9,5.9a2.7,2.7,0,0,1-2.8-2.8,2.2,2.2,0,0,1,.1-.8h-7a.5.5,0,0,0-.5.5V18.6a.5.5,0,0,0,.5.5H22.9a.5.5,0,0,0,.5-.5V5.5a2.4,2.4,0,0,1-1.5.4Z"/><path class="cls-2" d="M11.7,3.3h-.1a2,2,0,0,0-1.1.3,2.2,2.2,0,0,0-1.8-1H7.6A4,4,0,0,0,3.7,6.4V8.1a1.4,1.4,0,0,1,1.2-.3V7.6l.2-.2h.1a3.9,3.9,0,0,0,4-1.3h.3a3.2,3.2,0,0,0,2.2.9Z"/><path class="cls-3" d="M11.7,7a3.2,3.2,0,0,1-2.2-.9H9.2a3.8,3.8,0,0,1-4,1.3L5,7.6H5v3a3.7,3.7,0,0,0,3.7,3.7,3.8,3.8,0,0,0,3-1.6Z"/><path class="cls-2" d="M20.1,20.7h-.2v-.2a.3.3,0,0,0-.3-.3.3.3,0,0,0-.3.3v.2h-.2a.3.3,0,0,0-.3.3.3.3,0,0,0,.3.3h.2v.2a.3.3,0,0,0,.3.3.3.3,0,0,0,.3-.3v-.2h.2a.3.3,0,0,0,.3-.3A.3.3,0,0,0,20.1,20.7Z"/><circle class="cls-2" cx="5.5" cy="0.7" r="0.3"/><circle class="cls-2" cx="23.6" cy="20.9" r="0.3"/><circle class="cls-2" cx="18.6" cy="23.1" r="0.3"/><path class="cls-2" d="M4.3,2.6a.7.7,0,0,1-.7-.7H3.5a.8.8,0,0,1-.7.7H2.7c0,.1,0,.1.1.1a.8.8,0,0,1,.7.7h.1a.7.7,0,0,1,.7-.7Z"/><path class="cls-2" d="M4.6,13.4a.6.6,0,0,1-.6-.5H4a.5.5,0,0,1-.5.5h0c.2.1.5.3.5.6H4a.9.9,0,0,1,.6-.6Z"/><path class="cls-3" d="M5,10.6V7.8A1.5,1.5,0,0,0,3.2,9.1a1.4,1.4,0,0,0,1.3,1.7H5v-.2Z"/><path class="cls-3" d="M16.7,19.1H12.2a.5.5,0,0,1-.5-.5V15.7l-.6-.3a1.1,1.1,0,0,1-.6-1.1v-.5a4.1,4.1,0,0,1-1.8.5,4.1,4.1,0,0,1-1.9-.5v.5a1.1,1.1,0,0,1-.6,1.1l-.9.4-.7.3-2.7.7A1.4,1.4,0,0,0,.7,18.2L.2,24a.7.7,0,0,0,.6.7H16.4c.4,0,.7-.2.7-.6h0Z"/><path class="cls-3" d="M11.7,15.7l-.6-.3a1.1,1.1,0,0,1-.6-1.1v-.5a4.1,4.1,0,0,1-1.8.5,4.1,4.1,0,0,1-1.9-.5v.5a1.1,1.1,0,0,1-.6,1.1l-.7.3a3.8,3.8,0,0,0,3.2,1.8,3.8,3.8,0,0,0,3-1.6Z"/><path class="cls-2" d="M8.7,12.5A2,2,0,0,1,7,11.6c-.1-.1,0-.2.1-.3s.2-.1.3.1a1.6,1.6,0,0,0,2,.4l.5-.4c.1-.2.2-.2.3-.1s.2.2.1.3A1.8,1.8,0,0,1,8.7,12.5Z"/><circle class="cls-2" cx="7.1" cy="9.5" r="0.4"/><circle class="cls-2" cx="10.3" cy="9.5" r="0.4"/><path class="cls-2" d="M4.7,11.1a1.8,1.8,0,0,1,0-3.6H5l.2.3v3c0,.2-.1.3-.2.3ZM4.7,8a1.3,1.3,0,1,0,0,2.6h0Z"/><path class="cls-2" d="M16.4,25H.9a.9.9,0,0,1-.9-.9H0l.5-5.8a1.8,1.8,0,0,1,1.3-1.7l2.8-.6.6-.3.9-.4a1,1,0,0,0,.5-.8v-.6a.2.2,0,0,1,.2-.2h.1a3.6,3.6,0,0,0,3.5,0c.1-.1.2,0,.3.1h0v.5a1.1,1.1,0,0,0,.5.9l.6.2v3.2c0,.2.1.3.2.3h4.6a.2.2,0,0,1,.2.2l.4,4.9a.9.9,0,0,1-.8,1ZM7.1,14.2h0a1.3,1.3,0,0,1-.8,1.3l-.9.5-.7.2L1.9,17a1.4,1.4,0,0,0-1,1.2L.5,24.1a.4.4,0,0,0,.4.4H16.4a.4.4,0,0,0,.4-.4h0l-.3-4.7H12.2a.9.9,0,0,1-.8-.8V15.8l-.4-.2a1.3,1.3,0,0,1-.8-1.3h0a3.4,3.4,0,0,1-3.1,0Z"/><path class="cls-2" d="M8.7,17.7a4,4,0,0,1-3.4-1.8.6.6,0,0,1,.1-.4h0l.7-.3a1,1,0,0,0,.5-.8v-.6a.2.2,0,0,1,.2-.2h.1a3.6,3.6,0,0,0,3.5,0c.1-.1.2,0,.3.1h0v.5a1.1,1.1,0,0,0,.5.9l.6.2v.5h-.1a3.7,3.7,0,0,1-3.1,1.7ZM5.9,15.8a3.4,3.4,0,0,0,4.8.7,2.3,2.3,0,0,0,.7-.7l-.4-.2a1.3,1.3,0,0,1-.8-1.3h0a3.4,3.4,0,0,1-3.1,0h0a1.3,1.3,0,0,1-.8,1.3Z"/><circle class="cls-2" cx="21.9" cy="3.1" r="2.8"/><path class="cls-1" d="M21.3,4.2l-.9-.8a.5.5,0,0,1,.7-.7h0l.5.5,1.1-1.1a.5.5,0,0,1,.7.7h0L22,4.2a.5.5,0,0,1-.7,0Z"/><path class="cls-2" d="M21.9,6.2a3.1,3.1,0,0,1-3.1-3.1,3.1,3.1,0,0,1,6.2,0A3.1,3.1,0,0,1,21.9,6.2Zm0-5.7a2.6,2.6,0,0,0-2.6,2.6,2.6,2.6,0,0,0,5.2,0A2.6,2.6,0,0,0,21.9.5Z"/><path class="cls-2" d="M22.9,19.4H12.2a.8.8,0,0,1-.8-.8V2.8a.7.7,0,0,1,.8-.7h7a.2.2,0,0,1,.2.2h0a2.6,2.6,0,0,0,3.9,2.9.2.2,0,0,1,.4.1h0V18.6a.8.8,0,0,1-.8.8ZM12.2,2.6c-.2,0-.3.1-.3.2V18.6a.3.3,0,0,0,.3.3H22.9a.3.3,0,0,0,.3-.3V5.9a3.2,3.2,0,0,1-4.1-1.5,2.8,2.8,0,0,1-.2-1.8Z"/><path class="cls-2" d="M3.7,8.4c-.1,0-.2-.1-.2-.3V6.4A4.1,4.1,0,0,1,7.6,2.3H8.7a2.2,2.2,0,0,1,1.8,1,1.7,1.7,0,0,1,1.2-.2.2.2,0,0,1,.2.2V7a.2.2,0,0,1-.2.2h-.1a3.5,3.5,0,0,1-2.2-.9A4.6,4.6,0,0,1,5.2,7.7h0A.2.2,0,0,1,5,8H4.7a1.1,1.1,0,0,0-.8.3ZM7.6,2.8A3.6,3.6,0,0,0,4,6.4V7.7l.7-.2c.1-.2.3-.4.5-.3A3.9,3.9,0,0,0,9,6c.2-.2.4-.3.6-.1h.1a2.4,2.4,0,0,0,1.7.8V3.6l-.8.2c-.1.1-.3.1-.3-.1a2.2,2.2,0,0,0-1.6-.9Z"/><path class="cls-2" d="M8.7,14.6a4,4,0,0,1-4-4v-3l.2-.3h.3A3.9,3.9,0,0,0,9,6c.2-.2.4-.3.6-.1h.1a3.3,3.3,0,0,0,2,.9.2.2,0,0,1,.2.2v5.8h0A4.6,4.6,0,0,1,8.7,14.6ZM5.2,7.7v2.9a3.5,3.5,0,0,0,3.5,3.5,3.6,3.6,0,0,0,2.7-1.4V7.2a3.7,3.7,0,0,1-2-.9A4.6,4.6,0,0,1,5.2,7.7Z"/><path class="cls-2" d="M19.3,7.2H15.9a.3.3,0,0,1-.3-.3c0-.1.1-.2.3-.2h3.4a.2.2,0,0,1,.2.2C19.5,7.1,19.4,7.2,19.3,7.2Z"/><path class="cls-2" d="M21.3,9.1H15c-.2,0-.3-.1-.3-.2a.3.3,0,0,1,.3-.3h6.3c.1,0,.2.1.2.3Z"/><path class="cls-2" d="M21.3,10.4H15a.3.3,0,0,1-.3-.3c0-.1.1-.2.3-.2h6.3l.2.2C21.5,10.2,21.4,10.4,21.3,10.4Z"/><path class="cls-2" d="M21.3,11.6H15a.3.3,0,0,1-.3-.3c0-.1.1-.2.3-.2h6.3a.2.2,0,0,1,.2.2C21.5,11.5,21.4,11.6,21.3,11.6Z"/><path class="cls-2" d="M21.3,12.8H15c-.2,0-.3-.1-.3-.2a.3.3,0,0,1,.3-.3h6.3c.1,0,.2.2.2.3Z"/><path class="cls-2" d="M21.3,14.1H15a.3.3,0,0,1-.3-.3c0-.1.1-.2.3-.2h6.3a.2.2,0,0,1,.2.2C21.5,14,21.4,14.1,21.3,14.1Z"/><path class="cls-2" d="M21.3,15.3H15c-.2,0-.3-.1-.3-.2a.3.3,0,0,1,.3-.3h6.3c.1,0,.2.1.2.3Z"/><path class="cls-2" d="M13.9,9.1h-.2c-.2,0-.3-.1-.3-.2a.3.3,0,0,1,.3-.3h.2c.1,0,.2.1.2.3Z"/><path class="cls-2" d="M13.9,10.4h-.2a.3.3,0,0,1-.3-.3c0-.1.1-.2.3-.2h.2l.2.2C14.1,10.2,14,10.4,13.9,10.4Z"/><path class="cls-2" d="M13.9,11.6h-.2a.3.3,0,0,1-.3-.3c0-.1.1-.2.3-.2h.2a.2.2,0,0,1,.2.2C14.1,11.5,14,11.6,13.9,11.6Z"/><path class="cls-2" d="M13.9,12.8h-.2c-.2,0-.3-.1-.3-.2a.3.3,0,0,1,.3-.3h.2c.1,0,.2.2.2.3A.2.2,0,0,1,13.9,12.8Z"/><path class="cls-2" d="M13.9,14.1h-.2a.3.3,0,0,1-.3-.3c0-.1.1-.2.3-.2h.2a.2.2,0,0,1,.2.2C14.1,14,14,14.1,13.9,14.1Z"/><path class="cls-2" d="M13.9,15.3h-.2c-.2,0-.3-.1-.3-.2a.3.3,0,0,1,.3-.3h.2c.1,0,.2.1.2.3A.2.2,0,0,1,13.9,15.3Z"/><path class="cls-2" d="M3.2,24.7a.2.2,0,0,1-.2-.2V20.7a.2.2,0,0,1,.2-.2c.2,0,.3.1.3.2v3.8C3.5,24.6,3.4,24.7,3.2,24.7Z"/><path class="cls-2" d="M14.2,24.7c-.2,0-.3-.1-.3-.2V20.7c0-.1.1-.2.3-.2a.2.2,0,0,1,.2.2v3.8A.2.2,0,0,1,14.2,24.7Z"/></g></g></svg>