<svg width="200" height="200" viewBox="0 0 200 200" fill="none" xmlns="http://www.w3.org/2000/svg">
<g clip-path="url(#clip0_6056_875)">
<path d="M139.5 153.7C139 153.7 138.6 154 138.2 154.3C137.7 154.6 135.1 155.9 134.5 156.1C134.2 156.2 134 156.4 133.8 156.5C131.9 157.3 130 158.1 128 158.7C127 159 126.1 159.4 125.1 159.6C124.1 159.8 123.1 160.2 122.1 160.3C121.4 160.4 120.7 160.6 119.9 160.8C119.8 160.8 119.7 160.9 119.5 160.9C118.3 160.9 117.2 161.4 116 161.3C115.4 161.6 114.7 161.4 114.1 161.5C112.6 161.8 111 161.6 109.5 161.7C108 161.7 106.4 161.7 104.9 161.7C104.4 161.7 104 161.5 103.5 161.5C103 161.5 102.5 161.6 102 161.5C101.5 161.4 101.1 161.4 100.7 161.3C100.3 161.2 99.8 161.2 99.4 161.1C98.5 160.9 97.6 160.8 96.7 160.6C95.9 160.4 95.1 160.2 94.3 160.1C93.7 160.1 93.2 159.8 92.7 159.7C91.2 159.3 89.8 158.9 88.4 158.4C87.2 157.9 86.1 157.5 84.9 157C83.8 156.6 82.8 155.8 81.6 155.6C81.1 155.1 80.4 154.9 79.8 154.6C77.7 153.5 75.7 152.3 73.7 150.9C72.5 150 71.3 149.2 70.1 148.2C69.1 147.4 68.2 146.5 67.2 145.7C66 144.8 65.1 143.7 64 142.6C63.6 142.2 63.2 141.7 62.9 141.3C62.5 140.9 62.1 140.5 61.8 140.1C61.4 139.5 60.8 139 60.3 138.5C60.1 138 59.8 137.7 59.5 137.3C59.1 136.7 58.7 136.2 58.3 135.6C58.2 135.5 58 135.4 57.9 135.2C58 134.8 57.4 134.7 57.5 134.3C56.3 132.8 55.4 131.1 54.5 129.5C54 128.6 53.6 127.7 53.1 126.8C52.7 126.1 52.5 125.4 52.2 124.7C51.9 124.1 52.1 123.4 52.3 122.8C52.7 121.7 53.5 120.9 54.7 120.6C54.9 120.6 55 120.5 55.2 120.5C55.7 120.5 56.1 120.5 56.5 120.5C56.8 120.7 57 120.8 57.2 120.9C58.4 121.4 58.4 121.9 58.9 122.8C59.6 124.1 60.1 125.5 61 126.7C61.4 127.2 61.6 127.8 61.9 128.3C62.8 129.7 63.7 131.1 64.6 132.5C64.8 132.8 65.1 133.1 65.4 133.5C66.1 134.4 66.9 135.2 67.6 136.1C68.9 137.7 70.4 139 71.8 140.5C72.4 141.1 73 141.8 73.8 142.2C74.5 142.7 75.1 143.2 75.8 143.7C76.8 144.5 77.9 145.2 78.9 145.9C79 146 79.2 146 79.3 146C79.4 146.1 79.5 146.3 79.6 146.4C80.5 147 81.5 147.5 82.4 148C83.4 148.5 84.3 149.1 85.3 149.5C86.5 150 87.7 150.5 88.9 151C90 151.4 91.1 151.7 92.1 152.2C92.9 152.5 93.7 152.7 94.5 152.9C95.3 153.2 96.1 153.3 96.9 153.5C97.2 153.6 97.6 153.5 98 153.7C98.4 153.9 98.9 153.9 99.4 153.9C99.9 154 100.3 154 100.8 154.1C101.2 154.1 101.5 154.4 101.9 154.3C102.2 154.3 102.6 154.2 102.9 154.5H103C104 154.4 104.9 154.7 105.9 154.7C107.4 154.7 108.9 154.7 110.4 154.7C111.7 154.7 113.1 154.6 114.4 154.5C114.7 154.5 115.1 154.3 115.4 154.3C115.7 154.3 116 154.4 116.4 154.2C116.7 154 117.1 154.2 117.5 154.1C118.6 153.8 119.8 153.8 120.9 153.3C121.4 153.4 121.9 153.1 122.4 153C122.9 152.9 123.4 152.8 123.9 152.6C124.4 152.5 124.9 152.3 125.3 152.2C126.3 151.9 127.3 151.5 128.2 151.1C130.5 150.3 132.6 149.2 134.7 148.1C135.7 147.6 136.7 146.9 137.7 146.4C138.9 145.8 139.9 145 141 144.2C141.6 143.8 142.2 143.5 142.6 142.8C142.7 142.8 142.8 142.8 142.9 142.8C143.4 142.3 144 141.9 144.5 141.4C146.3 140 147.8 138.3 149.4 136.7C150.6 135.5 151.6 134.2 152.6 132.8C153.3 131.8 154 130.8 154.7 129.8C155.2 129.1 155.6 128.4 156 127.7C156.1 127.6 156.1 127.5 156.1 127.3C156.5 127.2 156.5 126.8 156.7 126.6C157.5 125.2 158.2 123.7 158.9 122.2C159.3 121.3 159.7 120.3 160 119.3C160.5 118 160.9 116.7 161.3 115.4C161.6 114.4 161.9 113.3 162.1 112.3C162.2 112.1 162.2 111.8 162.2 111.6C162.2 111.4 162.4 111.1 162.4 110.9C162.5 110 162.9 109 162.8 108.1C163.3 107.6 162.7 106.9 163.2 106.4C163.2 105.8 163.1 105.2 163.2 104.6C163.5 103.3 163.3 102.1 163.4 100.8C163.4 99.5004 163.4 98.3004 163.4 97.0004C163.4 96.0004 163.1 95.0004 163.2 94.0004C162.9 93.6004 163.1 93.0004 163 92.6004C162.8 92.2004 162.9 91.7004 162.8 91.3004C162.6 90.5004 162.5 89.7004 162.3 88.9004C162.1 88.2004 162 87.6004 161.8 86.9004C161.4 85.4004 161 83.9004 160.5 82.4004C159.5 79.2004 157.9 76.2004 156.4 73.2004C156.3 73.0004 156.1 72.9004 156 72.8004C156 72.2004 155.6 71.9004 155.3 71.5004C154.8 70.6004 154.1 69.8004 153.6 68.9004C153.2 68.2004 152.6 67.5004 152.1 66.8004C151.4 65.9004 150.7 65.1004 150 64.2004C148.6 62.5004 146.9 61.0004 145.3 59.4004C144.9 59.0004 144.5 58.7004 144.1 58.3004C143.7 57.9004 143.3 57.6004 142.8 57.2004C142.7 57.1004 142.6 57.1004 142.4 57.1004C142.1 56.4004 141.4 56.2004 140.9 55.8004C140.2 55.2004 139.4 54.7004 138.6 54.2004C137.8 53.7004 136.9 53.2004 136.1 52.7004C134.6 51.7004 133 51.0004 131.4 50.3004C130.2 49.7004 129 49.3004 127.8 48.8004C126.9 48.5004 126.1 48.2004 125.2 47.9004C124.3 47.6004 123.4 47.5004 122.5 47.2004C121.6 46.9004 120.6 46.8004 119.7 46.5004C119.3 46.4004 118.8 46.3004 118.4 46.3004C117.8 46.2004 117.1 46.3004 116.5 46.1004C115.9 45.9003 115.2 46.1004 114.6 45.9003C114 45.7003 113.3 45.9003 112.8 45.8004C111.6 45.5004 110.3 45.7004 109.1 45.6004C107.9 45.6004 106.6 45.6004 105.4 45.6004C105 45.6004 104.6 45.8004 104.2 45.8004C103.8 45.8004 103.3 45.7004 102.9 45.8004C102 46.0004 101.1 46.0004 100.2 46.2004C99.3 46.4004 98.4 46.3004 97.6 46.8004C96.5 46.8004 95.6 47.2004 94.6 47.4004C93.2 47.7004 91.9 48.2003 90.6 48.7003C89.2 49.2004 87.9 49.7004 86.6 50.3004C85.5 50.8004 84.4 51.3004 83.3 51.9004C82 52.6004 80.8 53.3004 79.5 54.1004C79.4 54.2004 79.4 54.3004 79.3 54.4004C78.9 54.3004 78.8 54.9004 78.4 54.8004C77.4 55.6004 76.3 56.4004 75.3 57.1004C73 58.8004 70.9 60.8004 68.9 62.9004C67.6 64.3004 66.3 65.7004 65.3 67.3004C64.4 68.0004 64 69.1004 63.3 70.0004C62.9 70.5004 62.5 71.1004 62.2 71.7004C61.2 73.5004 60.2 75.4004 59.2 77.2004C59 77.5004 59 77.8004 58.8 78.1004C58.4 78.9004 57.7 79.3004 57 79.7004C56.9 79.8004 56.8 79.8004 56.6 79.9004C56.3 79.9004 56 79.9004 55.7 79.9004C54.9 80.0004 54.2 79.7004 53.6 79.2004C52.7 78.4004 52.2 77.4004 52.2 76.2004C52.2 75.9004 52.3 75.6004 52.4 75.3004C53.1 73.9004 53.6 72.4004 54.5 71.1004C54.9 70.5004 55.2 69.8004 55.6 69.2004C56.3 67.9004 57.1 66.7004 57.9 65.6004C58 65.5004 58 65.4004 58 65.2004C58.5 65.1004 58.5 64.6004 58.7 64.4004C59.3 63.6004 60 62.9004 60.4 62.0004C61 61.5004 61.4 60.8004 62 60.2004C62.1 60.1004 62.1 60.0004 62.2 59.9004C63.7 58.4004 65.1 56.8004 66.6 55.3004C67.6 54.3004 68.6 53.4004 69.7 52.6004C70.9 51.7004 72 50.8004 73.2 50.0004C74.1 49.4004 75.1 48.7003 76 48.1003C76.4 47.8003 76.9 47.5003 77.3 47.3003C78.4 46.7003 79.4 46.2003 80.5 45.6003C81.4 45.1003 82.4 44.6003 83.4 44.2003C84.7 43.6003 86.1 43.0003 87.5 42.5003C88.5 42.2003 89.5 41.8003 90.5 41.5003C91.4 41.2003 92.2 41.0003 93.1 40.8003C93.6 40.7003 94 40.5003 94.5 40.4003C95 40.3003 95.5 40.2003 95.9 40.0003C96.3 39.9003 96.6 40.0003 97 39.8003C97.5 39.6003 98.1 39.6003 98.6 39.6003C98.9 39.6003 99.3 39.5003 99.6 39.4003C99.9 39.3003 100.3 39.5003 100.5 39.2003H100.6C101.4 39.1003 102.2 39.1003 103 39.0003C106.2 38.6003 109.4 38.9003 112.6 38.8003C113.6 38.8003 114.5 39.0003 115.5 39.0003C116.4 39.1003 117.3 39.2003 118.2 39.4003C118.7 39.5003 119.2 39.5003 119.6 39.6003C120 39.7003 120.5 39.6003 120.8 40.0003C121.6 40.0003 122.3 40.2003 123 40.4003C123.9 40.6003 124.8 40.9003 125.7 41.1003C127 41.5003 128.3 41.9003 129.7 42.4003C130.5 42.7003 131.3 43.0003 132 43.3003C132.5 43.5003 133.1 43.8003 133.6 44.0003C134.9 44.5003 136.2 45.2003 137.4 45.8003C138 46.1003 138.5 46.4003 139 46.7003C139.1 46.8003 139.2 46.8003 139.4 46.8003C139.5 46.9003 139.6 47.1003 139.7 47.2003C141.4 47.9003 142.8 49.1004 144.3 50.1004C145.4 50.8004 146.3 51.6004 147.2 52.4004C148.2 53.2004 149.1 54.0004 150.1 54.8004C151.5 55.9004 152.7 57.2004 153.9 58.4004C154.9 59.4004 155.8 60.4004 156.7 61.5004C157.7 62.9004 158.7 64.2004 159.7 65.6004C160.8 67.2004 161.8 68.8004 162.8 70.5004C163.5 71.7004 164.1 72.9004 164.7 74.2004C165.5 75.9004 166.2 77.6004 166.9 79.4004C167.4 80.7004 167.8 82.0004 168.2 83.3004C168.5 84.2004 168.8 85.2004 169 86.2004C169.1 86.9004 169.3 87.7004 169.5 88.4004C169.7 88.9004 169.6 89.5004 169.7 90.0004C169.7 90.3004 169.8 90.6004 169.9 90.9004C170 91.2004 169.8 91.5004 170.1 91.7004C170.1 91.7004 170.1 91.8004 170.1 91.9004C170.2 92.8004 170.3 93.6004 170.3 94.5004C170.3 95.2004 170.6 95.8004 170.5 96.5004C170.4 97.2004 170.4 97.9004 170.5 98.5004C170.8 99.5004 170.7 100.4 170.6 101.4C170.6 102 170.4 102.7 170.4 103.3C170.4 103.9 170.5 104.6 170.4 105.2C170.2 105.9 170.3 106.6 170.2 107.2C170 108.2 169.9 109.2 169.8 110.1C169.4 110.6 169.7 111.2 169.4 111.7C169.2 112.2 169.3 112.8 169.1 113.3C168.7 114.4 168.7 115.7 168.1 116.8C168.1 117.7 167.6 118.5 167.4 119.3C167.2 120.2 166.8 120.9 166.6 121.7C166.4 122.5 165.8 123.3 165.7 124.1C164.8 125.9 164 127.7 163.1 129.4C162.2 131.1 161.3 132.8 160.1 134.4C159.3 135.5 158.6 136.6 157.7 137.7C156.6 139.1 155.5 140.4 154.3 141.7C153.2 143 152 144.2 150.7 145.4C149.6 146.4 148.4 147.4 147.3 148.3C145.4 149.9 143.3 151.2 141.3 152.6C140.8 153 140.2 153.2 139.7 153.5C139.7 153.4 139.6 153.5 139.5 153.7Z" fill="#FFC760"/>
<path d="M93.4004 111.801C93.9004 111.801 94.2004 111.401 94.5004 111.201C95.1004 110.801 95.7004 110.201 96.3004 109.801C97.2004 109.201 97.6004 109.301 98.3004 109.901C99.6004 110.901 101 111.801 102.5 112.501C103.6 113.001 104.7 113.401 105.8 113.601C107 113.801 108.3 113.801 109.5 113.801C111.2 113.801 112.801 113.301 114.3 112.701C115.8 112.101 117.2 111.201 118.5 110.401C118.6 110.301 118.7 110.201 118.801 110.101C119.6 109.401 119.6 109.401 120.7 109.401C121.8 110.201 122.9 111.101 124.1 111.901C125.2 112.601 126.5 113.201 127.7 113.801C128.701 114.301 129.801 114.701 130.8 115.201C132.401 116.101 134 116.901 135.6 117.801C136.401 118.201 137.201 118.701 138 119.201C138.101 119.201 138.101 119.301 138.101 119.301C138.401 119.701 138.701 120.201 139 120.601C139.5 121.101 139.5 121.801 139.7 122.401C139.9 123.001 139.9 123.601 139.9 124.201C139.9 125.901 139.9 127.501 139.9 129.201C139.9 129.501 139.9 129.901 140.1 130.201C140.3 130.601 140.1 131.101 139.9 131.501C139.8 131.701 139.4 131.901 139.2 132.101C139.1 132.201 139 132.201 138.7 132.301C138.801 132.301 138.801 132.301 138.801 132.301C138.801 132.301 138.801 132.201 138.7 132.201C138.6 132.201 138.6 132.101 138.5 132.101C118.301 132.101 98.1004 132.101 77.9004 132.101C77.7004 131.901 77.5004 131.601 77.2004 131.201C77.2004 129.401 77.1005 127.301 77.2004 125.201C77.2004 124.401 77.3004 123.601 77.4004 122.901C77.6004 121.801 78.0004 120.701 78.8004 119.801C79.5004 119.001 80.4004 118.401 81.4004 117.901C81.8004 117.701 82.1004 117.401 82.5004 117.101C82.7004 117.001 83.0004 117.001 83.2004 116.901C86.1004 115.401 89.0004 114.001 92.0004 112.501C92.7004 112.401 93.0004 112.001 93.4004 111.801Z" fill="#FFC760"/>
<path d="M122.1 98.1998C122 98.2998 121.9 98.4998 121.8 98.5998C121.4 99.7998 120.7 100.9 120.2 102.1C120.1 102.4 119.6 102.6 119.8 103C119.4 103.4 119 103.7 118.7 104.2C118.3 104.9 117.7 105.3 117.2 105.9C116.3 106.9 115.2 107.6 114.1 108.2C113.3 108.6 112.5 109 111.7 109.3C111.2 109.4 110.7 109.6 110.2 109.6C109.9 109.6 109.7 109.6 109.4 109.8C109.1 109.9 108.6 110 108.3 109.7C108.2 109.6 108.1 109.6 108 109.6C106.4 109.6 104.1 108.4 103 107.8C101.8 107.1 100.8 106.2 99.9 105.2C99.4 104.6 99 104 98.5 103.4C98.4 103.3 98.3 103.3 98.2 103.2C98.1 102.6 97.7 102.2 97.4 101.7C96.9 100.9 96.5 100.1 96.2 99.1998C96.1 98.7998 95.9 98.4998 95.6 97.8998C95.7 97.9998 95.6 97.8998 95.5 97.7998C94.5 96.9998 93.9 95.8998 93.4 94.7998C93.1 94.1998 93 93.4998 92.8 92.8998C92.4 91.5998 92.6001 90.1998 92.6001 88.7998C92.6001 87.9998 92.9001 87.0998 93.8 86.5998C93.7 86.4998 93.6 86.2998 93.6 86.2998C93.9001 85.7998 93.8 85.1998 93.8 84.6998C93.7 83.6998 94 82.7998 94 81.8998C94.3 81.4998 94.1 80.9998 94.2 80.5998C94.4 80.1998 94.4 79.7998 94.6 79.3998C94.8 78.9998 94.9 78.5998 95 78.1998C95.4 76.9998 95.8 75.8998 96.6 74.8998C96.6 74.7998 96.6 74.6998 96.6 74.5998C97.4 73.4998 98.3 72.3998 99.4 71.4998C100.4 70.6998 101.4 69.8998 102.7 69.5998C103.5 68.9998 104.6 68.9998 105.5 68.5998C106.1 68.3998 106.7 68.3998 107.3 68.3998C108.3 68.3998 109.3 68.3998 110.3 68.3998C110.7 68.3998 111.1 68.2998 111.5 68.5998C111.8 68.7998 112.3 68.3998 112.7 68.7998C114 68.8998 115.2 69.3998 116.4 69.9998C116.9 70.1998 117.3 70.5998 117.7 70.7998C117.8 70.8998 118 70.8998 118.1 70.8998C118.4 71.3998 118.8 71.7998 119.3 71.9998C119.8 72.8998 120.7 73.3998 121.1 74.2998C121.2 74.4998 121.4 74.5998 121.5 74.6998C121.6 75.3998 122 75.8998 122.3 76.4998C122.8 77.5998 123.3 78.7998 123.5 79.9998C123.6 80.6998 123.8 81.4998 123.9 82.1998C124 82.7998 123.9 83.3998 124.1 83.9998C124.3 84.8998 124.2 85.8998 124.3 86.8998H124.7C124.7 86.9998 124.7 87.1998 124.8 87.2998C125.2 87.4998 125.2 87.9998 125.3 88.2998C125.5 89.0998 125.5 89.9998 125.5 90.8998C125.5 91.1998 125.4 91.4998 125.3 91.7998C125.3 92.0998 125.3 92.4998 125.3 92.7998C125.2 93.0998 125 93.3998 124.9 93.5998C124.8 95.0998 123.9 96.0998 123.2 97.2998C123 97.5998 122.8 97.8998 122.4 97.9998C122.1 97.8998 122.1 98.0998 122.1 98.1998Z" fill="#FFC760"/>
<path d="M76.2002 88.6009C76.6002 89.3009 77.1002 89.8009 77.7002 90.4008C79.4002 92.2008 81.2002 94.0008 82.9002 95.8008C83.5002 96.5008 84.2002 97.2008 84.8002 97.9008C85.2002 98.3008 85.5002 98.8008 85.4002 99.4008C85.4002 99.7008 85.4002 100.101 85.4002 100.401C85.4002 101.101 85.1002 101.701 84.7002 102.201C83.4002 103.601 81.9002 105.001 80.6002 106.501C79.4002 107.901 78.1002 109.001 76.9002 110.301C76.6002 110.601 76.4002 111.001 76.2002 111.301C75.1002 112.401 73.9002 113.301 73.0002 114.501C72.3003 115.301 71.6002 116.001 70.9002 116.701C70.4002 117.201 69.9002 117.701 69.5002 118.301C68.9002 119.001 68.2002 119.701 67.1002 119.701C66.7002 120.001 66.4002 119.801 66.0002 119.701C65.6002 119.701 65.3003 119.401 64.9002 119.501C64.8003 119.401 64.7003 119.201 64.5002 119.101C63.6002 118.501 63.1002 117.601 63.1002 116.601C63.1002 116.101 63.1002 115.701 63.2002 115.201C63.4002 114.801 63.6002 114.401 63.9002 114.101C64.9002 113.001 65.9002 112.001 66.9002 110.901C68.7003 109.001 70.6002 107.101 72.4002 105.201C72.9002 104.701 73.3003 104.201 73.7003 103.601H72.7003C59.6003 103.601 46.6003 103.601 33.5003 103.601C32.7003 103.601 32.0003 103.401 31.3003 103.001C30.4003 102.501 29.8003 101.701 29.5003 100.601C29.2003 99.6009 29.6003 98.9009 29.9003 98.1009C30.3003 97.3009 31.0003 96.8009 31.8003 96.6009C32.3003 96.4009 32.8003 96.3009 33.4003 96.3009C46.5002 96.3009 59.5002 96.3009 72.6002 96.3009H73.7002C72.5002 95.1009 71.5002 94.0008 70.4002 92.9008C68.9002 91.3009 67.3002 89.8009 65.8002 88.1009C65.2002 87.4009 64.5002 86.7009 63.8002 85.9009C62.8002 84.8009 62.7002 83.6009 63.1002 82.2009C63.4002 81.2009 64.3002 80.6009 65.2002 80.2009C65.5002 80.0009 66.0002 80.1009 66.4002 80.0009C66.7002 79.9009 67.1002 80.1009 67.5002 80.2009C68.1002 80.4009 68.9002 81.0009 69.3002 81.6009C69.4002 81.7009 69.5002 81.8009 69.6002 82.0009C71.6002 84.0009 73.5002 86.1009 75.5002 88.1009C75.9002 88.4009 76.0002 88.5009 76.2002 88.6009Z" fill="#FFC760"/>
<path d="M139.5 46.3006C139.5 46.2006 139.6 46.2006 139.6 46.1006C139.6 46.1006 139.6 46.1006 139.7 46.2006C139.6 46.3006 139.5 46.3006 139.5 46.3006Z" fill="#FFC760"/>
<path d="M141 47.1004C140.9 47.1004 140.9 47.1004 140.9 47.0004C140.9 47.0004 140.9 47.0004 141 46.9004C141 47.0004 141 47.0004 141 47.1004Z" fill="#FFC760"/>
<path d="M70.9 50.7564C71 50.7564 71 50.7564 71 50.8564C71 50.8564 71 50.8564 70.9 50.9564C70.9 50.8564 70.9 50.7564 70.9 50.7564Z" fill="#FFC760"/>
<path d="M67.4 53.4002C67.4 53.5002 67.4 53.5002 67.4 53.4002C67.3 53.4002 67.3 53.4002 67.3 53.3002C67.3 53.3002 67.3 53.3002 67.4 53.2002C67.4 53.4002 67.4 53.4002 67.4 53.4002Z" fill="#FFC760"/>
<path d="M151 53.6004C151 53.7004 151 53.7004 151 53.6004C150.9 53.6004 150.9 53.6004 150.9 53.5004C150.9 53.5004 150.9 53.5004 151 53.4004C151 53.6004 151 53.6004 151 53.6004Z" fill="#FFC760"/>
<path d="M79.2001 54.1006C79.3001 54.1006 79.3001 54.2006 79.4001 54.2006C79.4001 54.2006 79.4001 54.2006 79.3001 54.3006C79.3001 54.2006 79.2001 54.2006 79.2001 54.1006Z" fill="#FFC760"/>
<path d="M141.9 56.9256C141.9 56.8256 141.9 56.8256 141.9 56.9256C142 56.9256 142 56.9256 142 57.0256C142 57.0256 142 57.0256 141.9 57.1256C141.9 57.0256 141.9 56.9256 141.9 56.9256Z" fill="#FFC760"/>
<path d="M142.5 57.1006C142.5 57.2006 142.4 57.2006 142.4 57.3006C142.4 57.3006 142.4 57.3006 142.3 57.2006C142.3 57.2006 142.4 57.1006 142.5 57.1006Z" fill="#FFC760"/>
<path d="M74.3 58.9004L74.4 59.0004C74.4 59.0004 74.4 59.0004 74.3 59.1004C74.3 59.1004 74.3 59.0004 74.3 58.9004Z" fill="#FFC760"/>
<path d="M60.2 61.7C60.1 61.7 60.1 61.6 60 61.6C60 61.6 60 61.6 60.1 61.5C60.2 61.6 60.2 61.6 60.2 61.7C60.3 61.7 60.3 61.7 60.2 61.7Z" fill="#FFC760"/>
<path d="M68.6 63.4998C68.5 63.4998 68.5 63.3998 68.4 63.3998C68.4 63.3998 68.4 63.3998 68.5 63.2998C68.6 63.3998 68.6 63.3998 68.6 63.4998Z" fill="#FFC760"/>
<path d="M68.8 63.4998C68.8 63.3998 68.9 63.3998 68.9 63.2998C68.9 63.2998 68.9 63.2998 69 63.3998C69 63.3998 68.9 63.4998 68.8 63.4998Z" fill="#FFC760"/>
<path d="M68.8001 63.5C68.8001 63.6 68.7001 63.6 68.7001 63.7C68.7001 63.6 68.7001 63.6 68.6001 63.5H68.8001Z" fill="#FFC760"/>
<path d="M57.8001 64.9002C57.7001 64.9002 57.7001 64.8002 57.6001 64.8002C57.6001 64.8002 57.6001 64.8002 57.7001 64.7002C57.8001 64.8002 57.8001 64.8002 57.8001 64.9002C57.9001 64.9002 57.9001 64.9002 57.8001 64.9002Z" fill="#FFC760"/>
<path d="M67.9 65.2998C67.9 65.2998 68 65.2998 68 65.3998C68 65.3998 68 65.4998 67.9 65.4998C67.9 65.3998 67.9 65.3998 67.9 65.2998Z" fill="#FFC760"/>
<path d="M152.7 68.0004C152.7 67.9004 152.7 67.9004 152.8 67.9004C152.8 67.9004 152.8 67.9004 152.9 68.0004C152.8 68.0004 152.8 68.0004 152.7 68.0004Z" fill="#FFC760"/>
<path d="M117.3 69.4002C117.3 69.4002 117.2 69.4002 117.2 69.3002C117.2 69.3002 117.2 69.2002 117.3 69.2002C117.2 69.3002 117.3 69.4002 117.3 69.4002Z" fill="#FFC760"/>
<path d="M117.9 70.9002C117.9 70.8002 118 70.8002 118 70.7002C118 70.7002 118 70.7002 118.1 70.8002C118 70.8002 118 70.8002 117.9 70.9002Z" fill="#FFC760"/>
<path d="M156.1 72.7002C156.1 72.8002 156 72.8002 156 72.9002C156 72.9002 156 72.9002 155.9 72.8002C155.9 72.7002 156 72.7002 156.1 72.7002C156 72.7002 156 72.7002 156.1 72.7002Z" fill="#FFC760"/>
<path d="M96.4001 74.4998C96.3001 74.4998 96.3001 74.3998 96.2001 74.3998C96.2001 74.3998 96.2001 74.3998 96.3001 74.2998C96.3001 74.2998 96.3001 74.3998 96.4001 74.4998Z" fill="#FFC760"/>
<path d="M157.5 76.0004C157.5 75.9004 157.5 75.9004 157.6 75.9004C157.6 75.9004 157.6 75.9004 157.7 76.0004C157.6 76.0004 157.5 76.0004 157.5 76.0004Z" fill="#FFC760"/>
<path d="M58.6 79.4002C58.5 79.4002 58.5 79.4002 58.5 79.3002C58.5 79.3002 58.5 79.3002 58.6 79.2002C58.6 79.3002 58.6 79.3002 58.6 79.4002Z" fill="#FFC760"/>
<path d="M72.3 83.8002C72.3 83.8002 72.3 83.7002 72.4 83.7002C72.4 83.7002 72.5 83.7002 72.5 83.8002C72.4 83.8002 72.4 83.8002 72.3 83.8002Z" fill="#FFC760"/>
<path d="M124.5 86.7C124.4 86.7 124.4 86.6 124.3 86.6C124.3 86.6 124.3 86.6 124.4 86.5C124.4 86.5 124.5 86.6 124.5 86.7C124.5 86.6 124.5 86.6 124.5 86.7Z" fill="#FFC760"/>
<path d="M124.5 86.6006C124.6 86.6006 124.6 86.7006 124.7 86.7006C124.6 86.7006 124.6 86.7006 124.5 86.8006V86.6006Z" fill="#FFC760"/>
<path d="M92.6 87.2998C92.6 87.2998 92.6 87.3998 92.5 87.3998C92.5 87.3998 92.4 87.3998 92.4 87.2998C92.4 87.2998 92.5 87.2998 92.6 87.2998C92.5 87.2998 92.5 87.2998 92.6 87.2998Z" fill="#FFC760"/>
<path d="M76.2001 88.6004C76.2001 88.5004 76.3001 88.5004 76.3001 88.4004C76.3001 88.4004 76.3001 88.4004 76.4001 88.5004C76.3001 88.6004 76.3001 88.6004 76.2001 88.6004Z" fill="#FFC760"/>
<path d="M95.2001 98.3006C95.3001 98.2006 95.2001 98.2006 95.2001 98.3006C95.3001 98.3006 95.3001 98.3006 95.3001 98.4006C95.3001 98.4006 95.3001 98.4006 95.2001 98.5006C95.3001 98.4006 95.2001 98.3006 95.2001 98.3006Z" fill="#FFC760"/>
<path d="M122.1 98.2002C122.2 98.2002 122.2 98.3002 122.3 98.3002C122.3 98.3002 122.3 98.3002 122.2 98.4002C122.2 98.3002 122.1 98.3002 122.1 98.2002Z" fill="#FFC760"/>
<path d="M85.7 101.2C85.8 101.3 85.8 101.3 85.7 101.2C85.7 101.3 85.7 101.3 85.6 101.3C85.6 101.3 85.6 101.3 85.5 101.2C85.6 101.3 85.7 101.2 85.7 101.2Z" fill="#FFC760"/>
<path d="M119.7 103C119.8 103 119.8 103.1 119.9 103.1C119.9 103.1 119.9 103.1 119.8 103.2C119.8 103.1 119.7 103.1 119.7 103Z" fill="#FFC760"/>
<path d="M98 103.2C98 103.3 97.9 103.3 97.9 103.4C97.9 103.4 97.9 103.4 97.8 103.3C97.8 103.3 97.9 103.2 98 103.2Z" fill="#FFC760"/>
<path d="M72.2001 104.9C72.1001 104.9 72.1001 104.9 72.1001 104.8C72.1001 104.8 72.1001 104.8 72.2001 104.7C72.2001 104.8 72.2001 104.9 72.2001 104.9Z" fill="#FFC760"/>
<path d="M76.2001 111.4C76.3001 111.4 76.3001 111.5 76.4001 111.5C76.4001 111.5 76.4001 111.5 76.3001 111.6C76.3001 111.5 76.2001 111.4 76.2001 111.4Z" fill="#FFC760"/>
<path d="M92.7004 111.601L92.8004 111.701C92.8004 111.701 92.8004 111.701 92.7004 111.801C92.7004 111.701 92.6005 111.701 92.7004 111.601Z" fill="#FFC760"/>
<path d="M93.4001 111.801C93.3001 111.801 93.3001 111.701 93.2001 111.701C93.2001 111.701 93.2001 111.701 93.3001 111.601C93.3001 111.601 93.4001 111.701 93.4001 111.801Z" fill="#FFC760"/>
<path d="M72.4001 116.2C72.4001 116.3 72.4001 116.3 72.3001 116.3C72.3001 116.3 72.3001 116.3 72.2001 116.2C72.3001 116.2 72.3001 116.2 72.4001 116.2Z" fill="#FFC760"/>
<path d="M82.8001 117.2C82.7001 117.2 82.7001 117.1 82.6001 117.1C82.6001 117.1 82.6001 117.1 82.7001 117C82.7001 117 82.8001 117.1 82.8001 117.2Z" fill="#FFC760"/>
<path d="M64.9001 119.556C64.9001 119.656 64.8001 119.656 64.8001 119.756C64.8001 119.756 64.8001 119.756 64.7001 119.656C64.7001 119.556 64.8001 119.556 64.9001 119.556Z" fill="#FFC760"/>
<path d="M57.8001 120.2L57.9001 120.3C57.9001 120.3 57.9001 120.3 57.8001 120.4C57.7001 120.3 57.7001 120.3 57.8001 120.2C57.7001 120.2 57.7001 120.2 57.8001 120.2Z" fill="#FFC760"/>
<path d="M157.5 124C157.6 124 157.6 124 157.6 124.1C157.6 124.1 157.6 124.1 157.5 124.2C157.5 124.1 157.5 124.1 157.5 124Z" fill="#FFC760"/>
<path d="M156 127.4C155.9 127.4 155.9 127.3 155.8 127.3C155.8 127.3 155.8 127.3 155.9 127.2C156 127.2 156 127.3 156 127.4C156 127.3 156 127.3 156 127.4Z" fill="#FFC760"/>
<path d="M152.8 132L152.7 132.1C152.7 132.1 152.7 132.1 152.6 132C152.7 132 152.7 132 152.8 132Z" fill="#FFC760"/>
<path d="M57.9001 135.101C57.9001 135.201 57.8001 135.201 57.8001 135.301C57.8001 135.301 57.8001 135.301 57.7001 135.201C57.7001 135.201 57.8001 135.101 57.9001 135.101Z" fill="#FFC760"/>
<path d="M60.3001 138.3C60.3001 138.4 60.2001 138.4 60.2001 138.5C60.2001 138.5 60.2001 138.5 60.1001 138.4C60.1001 138.4 60.2001 138.3 60.3001 138.3Z" fill="#FFC760"/>
<path d="M74.3 140.957C74.4 140.957 74.4 140.957 74.4 141.057C74.4 141.057 74.4 141.057 74.3 141.157C74.3 141.057 74.3 140.957 74.3 140.957Z" fill="#FFC760"/>
<path d="M142.4 142.9C142.3 142.9 142.3 142.8 142.2 142.8C142.2 142.8 142.2 142.8 142.3 142.7C142.4 142.8 142.4 142.8 142.4 142.9C142.5 142.9 142.5 142.9 142.4 142.9Z" fill="#FFC760"/>
<path d="M141.9 142.9C141.9 142.9 142 142.9 142 143L141.9 143.1C142 143.1 141.9 143 141.9 142.9C141.9 143 141.9 143 141.9 142.9Z" fill="#FFC760"/>
<path d="M79.2001 145.9C79.2001 145.8 79.3001 145.8 79.3001 145.7C79.3001 145.7 79.3001 145.7 79.4001 145.8C79.3001 145.8 79.3001 145.9 79.2001 145.9Z" fill="#FFC760"/>
<path d="M72.2001 95.2C72.2001 95.2 72.1001 95.2 72.1001 95.1L72.2001 95C72.1001 95.1 72.2001 95.1 72.2001 95.2Z" fill="#FFC760"/>
<path d="M139.5 153.7C139.6 153.7 139.6 153.8 139.7 153.8C139.7 153.8 139.7 153.8 139.6 153.9C139.5 153.8 139.5 153.7 139.5 153.7Z" fill="#FFC760"/>
<path d="M121.3 74.6004C121.3 74.5004 121.4 74.5004 121.4 74.4004C121.4 74.4004 121.4 74.4004 121.5 74.5004C121.4 74.6004 121.4 74.6004 121.3 74.6004C121.3 74.7004 121.3 74.7004 121.3 74.6004Z" fill="#FFC760"/>
<path d="M140.9 153C140.9 152.9 140.9 152.9 141 152.9C141 152.9 141 152.9 141.1 153C141 153 141 153 140.9 153Z" fill="#FFC760"/>
<path d="M71 149.2C70.9 149.2 70.9 149.2 70.9 149.1C70.9 149.1 70.9 149.1 71 149C71 149.1 71 149.2 71 149.2Z" fill="#FFC760"/>
<path d="M67.3 146.525C67.3 146.425 67.3 146.425 67.3 146.525C67.4 146.525 67.4 146.525 67.4 146.625C67.4 146.625 67.4 146.625 67.3 146.725C67.3 146.525 67.3 146.525 67.3 146.525Z" fill="#FFC760"/>
<path d="M151 146.37C151 146.37 151 146.47 150.9 146.47C150.9 146.47 150.8 146.47 150.8 146.37C150.9 146.37 150.9 146.27 151 146.37C151 146.27 151 146.27 151 146.37Z" fill="#FFC760"/>
</g>
<defs>
<clipPath id="clip0_6056_875">
<rect width="200" height="200" fill="white"/>
</clipPath>
</defs>
</svg>
