<svg width="200" height="200" viewBox="0 0 200 200" fill="none" xmlns="http://www.w3.org/2000/svg">
<g clip-path="url(#clip0_6056_942)">
<path d="M137.6 28.5004C138.8 29.1004 140.1 29.6004 141.3 30.3004C146.9 33.3004 150.5 37.7004 150.6 44.3004C150.7 53.3004 150.7 62.3004 150.7 71.3004C150.7 71.8004 150.6 72.3004 150.4 73.4004C146.8 70.3004 143.5 67.5004 140 64.4004C140 63.3004 140 62.1004 140 60.8004C139.9 55.6004 139.8 50.4004 139.5 45.2004C139.3 41.7004 137.6 40.0004 134.1 39.8004C131.5 39.6004 128.8 39.7004 126.2 39.7004C104.4 39.7004 82.5999 39.7004 60.7999 39.8004C52.9999 39.9004 51.9999 41.0004 51.9999 48.8004C51.9999 83.1004 51.9999 117.4 51.9999 151.7C51.9999 152.3 51.9999 153 51.9999 153.6C52.1999 158.5 53.6999 160.2 58.5999 160.2C83.1999 160.3 107.7 160.3 132.3 160.3C132.9 160.3 133.6 160.3 134.2 160.2C137.7 159.9 139.4 158.2 139.5 154.7C139.7 149.8 139.8 145 139.9 140.1C139.9 138.6 139.9 137.2 139.9 135.6C143.3 132.7 146.6 129.8 150.1 126.8C150.3 127.7 150.6 128.2 150.6 128.7C150.6 137.5 150.6 146.3 150.6 155.1C150.6 162.5 146.6 167.3 140.1 170.3C139.4 170.6 138.8 171 138.2 171.3H53.6999C53.3999 171.1 53.1999 170.9 52.8999 170.8C44.9999 167.9 40.8999 162.5 40.8999 153.8C40.9999 117.4 40.8999 81.0004 40.8999 44.6004C40.8999 36.3004 47.6999 29.2004 55.9999 28.8004C57.0999 28.7004 58.2999 28.5004 59.3999 28.4004H137.6V28.5004Z" fill="#FFC760"/>
<path d="M117.6 64.2002C131.1 75.9002 144.9 87.9002 159.1 100.1C145.1 112.2 131.6 124 118.2 135.7C114.1 136 112.7 135 112.5 131.4C112.2 127.8 112.3 124.2 112.2 120.6C112.2 119.5 112.1 118.3 112 116.8H108.4C99.2996 116.8 90.1996 116.6 81.0997 116.9C76.8997 117 73.5997 114.1 73.7996 109.8C74.0997 103.3 73.8996 96.7002 73.8996 90.1002C73.8996 85.8002 75.9996 83.7002 80.2996 83.7002C89.5996 83.7002 98.8996 83.7002 108.3 83.7002H112.3C112.3 80.6002 112.3 77.8002 112.3 75.0002C112.3 72.8002 112.3 70.5002 112.6 68.3002C112.9 65.2002 113.8 64.5002 117.6 64.2002Z" fill="#FFC760"/>
</g>
<defs>
<clipPath id="clip0_6056_942">
<rect width="200" height="200" fill="white"/>
</clipPath>
</defs>
</svg>
