<?xml version="1.0" encoding="utf-8"?>
<!-- Generator: Adobe Illustrator 22.1.0, SVG Export Plug-In . SVG Version: 6.00 Build 0)  -->
<svg version="1.1" id="Layer_1" xmlns="http://www.w3.org/2000/svg" xmlns:xlink="http://www.w3.org/1999/xlink" x="0px" y="0px"
	 viewBox="0 0 24 24" style="enable-background:new 0 0 24 24;" xml:space="preserve">
<style type="text/css">
	.st0{fill:#FD7636;}
</style>
<g>
	<path class="st0" d="M1.5,17.1h0.8c0-0.4,0.3-0.8,0.8-0.8v-0.8C2.2,15.5,1.5,16.2,1.5,17.1z"/>
	<path class="st0" d="M2.3,19.4H1.5c0,0.8,0.7,1.5,1.5,1.5v-0.8C2.7,20.1,2.3,19.8,2.3,19.4z"/>
	<path class="st0" d="M8.5,20.1v0.8h0.8v-0.8c0.4-0.1,0.8-0.6,0.8-1s-0.2-0.8-0.6-1l-0.8-0.4c-0.1-0.1-0.2-0.2-0.2-0.3
		c0-0.2,0.1-0.3,0.3-0.3h0.1c0.2,0,0.3,0.1,0.3,0.3v0.1H10v-0.1c0-0.5-0.3-0.9-0.8-1v-0.8H8.5v0.8c-0.4,0.1-0.8,0.6-0.8,1
		s0.2,0.8,0.6,1l0.8,0.4c0.1,0.1,0.2,0.2,0.2,0.3c0,0.2-0.1,0.3-0.3,0.3H8.8c-0.2,0-0.3-0.1-0.3-0.3V19H7.7l0,0
		C7.7,19.5,8,19.9,8.5,20.1z"/>
	<path class="st0" d="M23.1,18.6c0.1-0.1,0.1-0.3,0.1-0.4v-0.8c0-0.6-0.5-1.2-1.2-1.2h-1.2V4.9l0.6-0.6L23,5.9L24,0l-5.9,1l1.6,1.6
		l-3.9,3.9l-2.3-2.3L3.7,14H1.2C0.5,14,0,14.5,0,15.1v6.2c0,0.6,0.5,1.2,1.2,1.2h13.5v0.4c0,0.6,0.5,1.2,1.2,1.2H22
		c0.6,0,1.2-0.5,1.2-1.2v-0.8c0-0.2,0-0.3-0.1-0.4c0.5-0.1,0.9-0.6,0.9-1.1v-0.8C23.9,19.2,23.6,18.8,23.1,18.6z M22.4,17.4v0.8
		c0,0.2-0.2,0.4-0.4,0.4h-5.4h-0.8c-0.2,0-0.4-0.2-0.4-0.4v-0.8c0-0.2,0.2-0.4,0.4-0.4h0.4v0.8H17V17h0.8v0.8h0.8V17h0.8v0.8h0.8V17
		H21v0.8h0.8V17H22C22.2,17.1,22.4,17.2,22.4,17.4z M7.1,14l2.2-2.2V14H7.1z M10.8,10.3V14H10v-3L10.8,10.3z M11.6,9.5l0.8-0.8V14
		h-0.8V9.5z M13.1,8l0.4-0.4L13.9,8v6h-0.8C13.1,14,13.1,8,13.1,8z M14.7,8.7l0.8,0.8V14h-0.8V8.7z M16.2,9.5L17,8.7V14
		c-0.1,0-0.3-0.1-0.4-0.1h-0.4V9.5z M17.7,15.1V8l0.8-0.8v9.1h-0.8v-0.8V15.1z M20.1,16.3h-0.8V6.4l0.8-0.8V16.3z M13.5,5.3l2.3,2.3
		l5-5l-1.1-1.1l3.4-0.6l-0.6,3.4l-1.1-1.1l-5.6,5.6l-2.3-2.3L6,14H4.8L13.5,5.3z M1.2,21.7c-0.2,0-0.4-0.2-0.4-0.4v-6.2
		c0-0.2,0.2-0.4,0.4-0.4h5.3c-1.1,0.8-1.8,2-1.8,3.5s0.7,2.7,1.8,3.5H1.2z M8.9,14.7c1.9,0,3.5,1.6,3.5,3.5s-1.6,3.5-3.5,3.5
		s-3.5-1.6-3.5-3.5S7,14.7,8.9,14.7z M13.1,18.2c0-1.4-0.7-2.7-1.8-3.5h5.3c0.2,0,0.4,0.2,0.4,0.4v0.4v0.8h-1.2
		c-0.6,0-1.2,0.5-1.2,1.2v0.8c0,0.5,0.4,1,0.9,1.1c-0.1,0.1-0.1,0.3-0.1,0.4v0.8c0,0.2,0,0.3,0.1,0.4c-0.4,0.1-0.7,0.4-0.8,0.7h-3.4
		C12.4,20.9,13.1,19.7,13.1,18.2z M22.4,22.8c0,0.2-0.2,0.4-0.4,0.4h-6.2c-0.2,0-0.4-0.2-0.4-0.4V22c0-0.2,0.2-0.4,0.4-0.4h0.4v0.8
		H17v-0.8h0.8v0.8h0.8v-0.8h0.8v0.8h0.8v-0.8H21v0.8h0.8v-0.8H22c0.2,0,0.4,0.2,0.4,0.4V22.8z M23.1,20.5c0,0.2-0.2,0.4-0.4,0.4H22
		h-5.4c-0.2,0-0.4-0.2-0.4-0.4v-0.8c0-0.2,0.2-0.4,0.4-0.4H17v0.8h0.8v-0.8h0.8v0.8h0.8v-0.8h0.8v0.8H21v-0.8h0.8v0.8h0.8v-0.8H23
		c0.2,0,0.4,0.2,0.4,0.4v0.8H23.1z"/>
	<path class="st0" d="M8.5,0.1h-7v2.3h6.9V0.1H8.5z M7.7,1.6H2.3V0.9h5.4V1.6z"/>
	<path class="st0" d="M1.5,3.2h6.9V4H1.5V3.2z"/>
	<path class="st0" d="M1.5,4.7h6.9v0.8H1.5V4.7z"/>
	<path class="st0" d="M1.5,7.8h6.9v0.8H1.5V7.8z"/>
	<path class="st0" d="M1.5,6.3h0.8V7H1.5V6.3z"/>
	<path class="st0" d="M3.1,6.3h0.8V7H3.1V6.3z"/>
	<path class="st0" d="M4.6,6.3h3.9V7H4.6V6.3z"/>
</g>
</svg>
