<svg width="200" height="200" viewBox="0 0 200 200" fill="none" xmlns="http://www.w3.org/2000/svg">
<g clip-path="url(#clip0_6056_967)">
<path d="M95.9993 163.4C95.2993 162.6 94.2993 162.5 93.3993 162.1C87.2993 159.6 83.5993 155.1 81.7993 149C80.0993 148 78.3993 148.4 76.7993 148.4C68.3993 148.4 59.9993 148.4 51.4994 148.4C50.2994 148.4 49.1994 148.5 47.9994 148.4C44.5994 148 43.2994 145.3 45.1994 142.3C45.6994 141.5 46.3994 140.8 47.0994 140C56.7993 128.6 61.4993 115.4 61.4993 100.5C61.4993 94.7 60.9993 89 62.1993 83.2C64.8993 69.6 72.5993 60 85.1993 54.3C86.1993 53.8 87.2993 53.4 88.2993 52.9C89.2993 50.9 88.7993 48.9 88.9993 47C89.5993 40.8 93.9993 36.5 99.9993 36.5C106 36.5 110.5 40.8 111 47C111.1 48.8 111.2 50.6 111.3 52.3C112.4 53.7 114 53.9 115.3 54.5C130.1 61.6 137.8 73.3 138.6 89.6C138.8 93.6 138.6 97.5 138.6 101.5C138.6 115.9 143.3 128.6 152.6 139.7C154.3 141.7 156.8 143.5 155.2 146.6C153.8 149.4 150.9 148.5 148.5 148.5C138.6 148.6 128.7 148.5 119.2 148.5C117.5 149.5 117.6 151 117.1 152.2C115 156.8 111.7 160 107.1 162C106.1 162.5 104.8 162.4 104 163.4C101.3 163.4 98.6993 163.4 95.9993 163.4ZM57.0993 140.7C85.6993 140.7 114.3 140.7 142.9 140.7C143 139.1 142 138.3 141.4 137.4C136.2 129 132.9 120.1 131.5 110.2C130.6 103.4 130.8 96.7 130.9 89.9C131.1 73.3 117 58.5 99.1993 58.9C83.3993 59.2 69.1993 72.5 69.0993 88.9C69.0993 93 69.0993 97.2 69.0993 101.3C68.8993 114.1 65.5993 126 58.7993 136.9C58.1993 138 56.9993 138.9 57.0993 140.7ZM89.8993 148.6C92.8993 154.5 96.3993 156.4 102 155.6C105.9 155 108.7 152.5 109.5 148.6C103.1 148.6 96.7993 148.6 89.8993 148.6ZM103.4 51.1C104 48.4 104 46.1 101.7 44.6C100.4 43.8 98.7993 43.8 97.6993 45C95.8993 46.8 95.6993 48.9 96.7993 51.2C98.9993 51.5 101.1 51.6 103.4 51.1Z" fill="#FFC760"/>
<path d="M44.3994 86C45.2994 72.8001 50.2994 61.3 59.4994 51.6001C59.9994 51.1001 60.3994 50.6001 60.8994 50.2001C62.3994 49.2001 63.9994 49.1001 65.4994 50.2001C66.9994 51.4001 67.2994 53.2001 66.0994 55.0001C65.4994 56.0001 64.6994 56.8001 63.8994 57.7001C56.8994 65.6 52.7994 74.8001 51.9994 85.3001C51.8994 86.9 51.6994 88.6 51.3994 90.2C50.9994 92.3001 49.3994 93.5 47.5994 93.3001C45.7994 93.1 44.5994 91.7 44.3994 89.5C44.2994 88.5 44.3994 87.4 44.3994 86Z" fill="#FFC760"/>
<path d="M155.502 86.0994C155.502 87.5994 155.602 89.0994 155.502 90.4994C155.302 92.4994 153.802 93.3994 152.002 93.3994C150.502 93.3994 149.002 92.5994 148.702 90.8994C148.302 88.9994 148.102 86.9994 147.902 84.9994C147.002 74.5994 143.002 65.5994 136.102 57.7994C135.302 56.8994 134.502 56.0994 133.902 55.0994C132.702 53.1994 132.902 51.4994 134.402 50.1994C135.702 48.9994 137.802 48.9994 139.402 50.2994C140.302 50.9994 141.002 51.8994 141.802 52.7994C149.902 61.7994 155.002 74.1994 155.502 86.0994Z" fill="#FFC760"/>
</g>
<defs>
<clipPath id="clip0_6056_967">
<rect width="200" height="200" fill="white"/>
</clipPath>
</defs>
</svg>
