<svg width="200" height="200" viewBox="0 0 200 200" fill="none" xmlns="http://www.w3.org/2000/svg">
<g clip-path="url(#clip0_6056_973)">
<path d="M152.601 143.2H142.701C141.001 141.2 140.001 139.2 138.401 138.3C136.801 137.4 134.701 137.7 132.801 137.4C131.601 134.5 130.301 131.6 128.901 128.4C129.701 127.6 130.601 126.7 131.501 125.8C133.701 123.5 133.901 121.3 131.801 118.9C130.401 117.3 129.001 115.9 127.401 114.5C124.601 112.1 122.901 112.2 120.101 114.7C119.401 115.3 118.601 116 117.701 116.7C114.601 115.4 111.601 114.2 108.401 112.8C108.301 111.8 108.201 110.8 108.201 109.8C108.001 106.3 106.501 104.6 103.101 104.4C101.301 104.3 99.501 104.3 97.701 104.4C93.601 104.6 92.201 106.2 92.101 110.5C92.101 111.2 92.101 112 92.101 113C89.001 114.3 86.001 115.5 82.901 116.8C81.901 115.9 81.001 115.1 80.101 114.3C77.201 111.9 75.701 112 72.801 114.5C71.501 115.6 70.301 116.8 69.101 118C66.901 120.3 66.801 122.6 68.801 125.3C69.501 126.2 70.201 127 71.001 127.9C69.701 130.9 68.501 133.8 67.201 136.9C63.301 137.1 58.701 136.4 58.401 142.7H46.801C46.801 137.8 46.801 133.2 46.801 128.6C46.901 110.3 54.101 95.7995 68.001 84.8995C70.601 82.8995 73.601 81.4995 76.301 79.7995C78.701 78.2995 80.801 78.4995 83.301 79.9995C91.601 85.4995 100.701 85.6995 109.901 83.1995C112.501 82.4995 115.001 80.9995 117.301 79.5995C119.101 78.4995 120.701 78.3995 122.701 79.3995C139.101 87.3995 149.501 100.6 152.501 119.3C153.601 126.4 153.101 133.8 153.201 141C153.201 141.8 152.801 142.4 152.601 143.2Z" fill="#FFC760"/>
<path d="M130.6 49.8C130.6 66.8 116.9 81 100.7 81.3C83.0001 81.6 69.2001 66.5 69.4001 49.1C69.5001 32 83.4001 18 100.4 18C117 18 130.701 32.4 130.6 49.8Z" fill="#FFC760"/>
<path d="M76.1 174.3C74.1 172.4 72.3 170.6 70 168.3C72.1 166.6 73.9 165.1 75.6 163.7C73.5 158.6 71.6 154.2 69.8 149.7C67.4 149.5 65.1 149.3 62.5 149.1V141.1C64.2 141 65.7 140.8 67.2 140.9C69.3 140.9 70.4 140.2 71.1 137.9C71.8 135.4 73 133.1 74.2 130.7C75.7 127.6 75.8 127.5 73.3 124.9C72.5 124 71.7 123.1 70.6 121.9C72.5 120 74.3 118.2 76.3 116.2C78.3 118 80.2 119.7 81.9 121.3C86.3 119.4 90.5 117.7 95.1 115.8C95.2 113.7 95.4 111.2 95.6 108.4H104.2C104.4 110.8 104.7 113.2 104.9 115.6C109.3 117.5 113.5 119.3 117.9 121.2C119.7 119.6 121.5 118.1 123.6 116.3C125.7 118.3 127.5 120.1 129.7 122.2C128.3 123.6 127.3 124.6 126.3 125.6C124.7 127 124.5 128.4 125.6 130.5C127.3 133.8 128.6 137.3 130.1 140.9C132.4 141.1 134.9 141.2 137.5 141.4V149.4C135.8 149.5 134.3 149.7 132.8 149.7C130.7 149.7 129.6 150.5 129 152.7C127.9 156.1 126.3 159.3 124.8 163.1C126.1 164.7 127.6 166.6 129.4 168.7C127.5 170.6 125.7 172.4 123.6 174.5C122.3 173.3 121.1 172.1 119.8 171.1C118.9 170.5 117.5 169.7 116.7 170C112.8 171.4 109 173.2 104.8 174.9C104.6 177 104.4 179.4 104.1 182.1H95.7C95.6 180.6 95.3 179.2 95.3 177.7C95.4 175.5 94.6 174.3 92.5 173.7C89.9 172.9 87.3 171.9 84.9 170.6C82.9 169.6 81.4 169.5 79.8 171.3C78.8 172.3 77.5 173.1 76.1 174.3ZM100.2 127.8C90.3 127.8 82.5 135.5 82.4 145.3C82.3 154.9 90.1 162.7 99.8 162.7C109.8 162.7 117.6 155.1 117.6 145.3C117.7 135.6 109.9 127.9 100.2 127.8Z" fill="#FFC760"/>
<path d="M100.001 159.201C92.3012 159.101 85.9012 152.801 86.0012 145.201C86.1012 137.701 92.4012 131.401 99.8012 131.401C107.801 131.301 114.201 137.601 114.201 145.401C114.101 153.001 107.601 159.301 100.001 159.201Z" fill="#FFC760"/>
</g>
<defs>
<clipPath id="clip0_6056_973">
<rect width="200" height="200" fill="white"/>
</clipPath>
</defs>
</svg>
