<svg width="200" height="200" viewBox="0 0 200 200" fill="none" xmlns="http://www.w3.org/2000/svg">
<g clip-path="url(#clip0_6056_1000)">
<path d="M68.3 36.1998C72.8 29.0997 72.9999 28.9997 87.7999 28.1997C90.4999 23.5997 94 19.6997 100 19.7997C105.8 19.8997 109.4 23.2997 111.9 28.0997C115.8 28.2997 119.6 28.0997 123.2 28.6997C127.1 29.3997 129.7 32.0998 131.4 36.0998C134.8 36.0998 138.2 36.0998 141.6 36.0998C144.5 36.0998 147.3 35.9998 150.2 36.0998C154 36.1998 154.9 37.1998 155 40.9998C155 41.8998 155 42.6998 155 43.5998V172.4C155 173.1 155 173.8 155 174.5C154.9 179.2 154.2 179.9 149.4 179.9C116.3 179.9 83.2999 179.9 50.2 179.9C45.4 179.9 44.7 179.2 44.7 174.4C44.7 130.2 44.7 85.8998 44.7 41.6998C44.7 36.7998 45.5 35.9998 50.5 35.9998C56.5 36.1998 62.4 36.1998 68.3 36.1998ZM148.6 174.3V42.6998H132.7C130.6 47.5998 130.6 47.5998 125 47.5998C108.4 47.5998 91.8 47.4998 75.2 47.6998C71.3 47.6998 68 47.4998 67.5 42.8998H51.4999C50.4999 48.7998 50.7999 171.4 51.7999 174.5H148.6V174.3ZM74.8 40.8998C79.8 41.8998 122.5 41.5998 125.5 40.5998C125.6 36.1998 124.4 34.7998 120.3 34.5998C117.9 34.4998 115.4 34.5998 113 34.4998C111.2 34.3998 109.4 34.0998 107.6 33.7998C106.2 29.8998 105.2 25.9997 100.1 25.9997C95 25.9997 94 29.8998 92.6 33.8998C90.7 34.0998 88.6999 34.3998 86.7999 34.4998C84.1999 34.5998 81.6 34.3998 79.1 34.6998C75.2 34.9998 74.2 36.7998 74.8 40.8998Z" fill="#FFC760"/>
<path d="M113.3 69.1004C106.7 69.1004 100.2 69.1004 93.6 69.1004C92.5 69.1004 91.3 69.1004 90.2 69.0004C88.7 68.8004 87.5 67.9004 87.5 66.2003C87.5 64.6004 88.6 63.6004 90.1 63.3003C91.1 63.1003 92.1 63.0004 93.1 63.0004C106.8 63.0004 120.5 63.0004 134.2 63.0004C135.3 63.0004 136.7 62.9004 137.5 63.4004C138.4 64.0003 139.6 65.3003 139.5 66.2003C139.5 67.1004 138.2 68.3003 137.2 68.8003C136.3 69.3003 135 69.1004 133.8 69.1004C127 69.1004 120.2 69.1004 113.3 69.1004Z" fill="#FFC760"/>
<path d="M113.6 105.199C107.2 105.199 100.7 105.199 94.3 105.199C93.4 105.199 92.6 105.199 91.7 105.199C88.8 105.099 87.3 103.899 87.3 102.099C87.4 100.299 88.9 99.0991 91.8 99.0991C104.1 98.9991 116.4 99.0991 128.7 99.0991C130.8 99.0991 133 98.9991 135.1 99.0991C136.1 99.0991 137.3 99.1991 137.9 99.6991C138.7 100.299 139.4 101.499 139.4 102.399C139.4 103.099 138.5 104.299 137.8 104.599C136.7 105.099 135.3 105.099 134.1 105.199C127.3 105.299 120.5 105.199 113.6 105.199Z" fill="#FFC760"/>
<path d="M113.5 141.3C106.5 141.3 99.4998 141.3 92.4998 141.3C88.8998 141.3 87.1998 140.2 87.3998 138.2C87.4998 136.3 89.0998 135.2 92.3998 135.2C106.5 135.2 120.7 135.2 134.8 135.2C138 135.2 139.6 136.3 139.7 138.2C139.8 140.1 138.2 141.3 135 141.3C129.4 141.4 123.9 141.3 118.3 141.3C116.7 141.3 115.1 141.3 113.5 141.3Z" fill="#FFC760"/>
<path d="M130 81.3997C129.5 84.3997 127.2 84.5997 124.8 84.5997C116.2 84.5997 107.7 84.5997 99.1 84.5997C96.8 84.5997 94.5 84.5997 92.3 84.5997C91.3 84.5997 90.2 84.6997 89.4 84.1997C88.5 83.6997 87.5 82.5997 87.5 81.6997C87.5 80.7997 88.4 79.5997 89.2 79.0997C90.3 78.4997 91.7 78.4997 92.9 78.4997C103.5 78.4997 114 78.4997 124.6 78.4997C127 78.3997 129.3 78.4997 130 81.3997Z" fill="#FFC760"/>
<path d="M108.8 120.7C103.5 120.7 98.1999 120.7 92.9999 120.7C91.8999 120.7 90.5999 120.8 89.5999 120.3C88.6999 119.9 87.4999 118.7 87.5999 118C87.6999 117 88.5999 115.7 89.4999 115.1C90.4999 114.5 91.9999 114.6 93.1999 114.6C103.6 114.6 114 114.6 124.4 114.6C125.1 114.6 125.8 114.6 126.5 114.7C128.3 115 130 115.8 129.9 117.8C129.8 119.8 128.2 120.7 126.3 120.7C121 120.8 115.7 120.7 110.5 120.7C109.9 120.7 109.3 120.7 108.8 120.7Z" fill="#FFC760"/>
<path d="M130 153.699C129.4 156.699 127.2 156.899 124.8 156.899C116.1 156.899 107.4 156.899 98.6999 156.899C96.3999 156.899 94.0999 156.899 91.8999 156.899C90.8999 156.899 89.8999 156.799 88.9999 156.299C86.8999 155.299 86.7999 152.599 88.8999 151.599C90.0999 150.999 91.5999 150.799 92.9999 150.799C103.6 150.699 114.1 150.799 124.7 150.799C127 150.699 129.3 150.699 130 153.699Z" fill="#FFC760"/>
<path d="M68.1998 148.099C70.4998 144.899 72.4998 142.099 74.4998 139.399C75.1998 138.499 75.7998 137.399 76.6998 136.799C77.4998 136.299 79.1998 136.099 79.6998 136.599C80.4998 137.299 80.6998 138.699 80.9998 139.799C81.0998 140.199 80.5998 140.799 80.2998 141.299C77.1998 145.599 74.1998 149.999 71.0998 154.199C69.1998 156.699 67.3998 156.699 65.4998 154.399C63.8998 152.399 62.3998 150.299 60.9998 148.099C59.9998 146.699 59.7998 145.099 61.2998 143.899C62.9998 142.499 64.4998 143.299 65.6998 144.799C66.3998 145.699 67.0998 146.599 68.1998 148.099Z" fill="#FFC760"/>
<path d="M64.4 70.499C65.4 71.799 66.7 73.499 68.3 75.599C70.2999 72.899 72.2999 70.199 74.2999 67.499C75.1 66.499 75.7 65.199 76.7999 64.599C77.6 64.099 79.2999 63.899 79.7999 64.399C80.6 65.099 80.8999 66.499 80.9999 67.599C81.0999 68.199 80.3999 68.899 79.9999 69.499C77.0999 73.599 74.2999 77.699 71.2999 81.699C69.1 84.599 67.4 84.699 65.2 81.899C63.8 80.099 62.4 78.299 61.2 76.299C59.4 73.399 59.9 72.399 64.4 70.499Z" fill="#FFC760"/>
<path d="M68.3997 111.7C70.3997 108.9 72.2997 106.2 74.1997 103.6C74.7997 102.8 75.2997 101.9 75.9997 101.2C77.1997 99.9002 78.5997 99.3002 80.1997 100.6C81.4997 101.7 81.5997 103.1 80.6997 104.4C79.5997 106.2 78.2997 108 77.0997 109.7C75.0997 112.5 73.1997 115.4 71.0997 118.1C69.0997 120.7 67.2997 120.7 65.1997 118C63.7997 116.2 62.3997 114.3 61.1997 112.4C59.3997 109.6 59.7997 108.6 64.3997 106.6C65.3997 107.9 66.6997 109.5 68.3997 111.7Z" fill="#FFC760"/>
</g>
<defs>
<clipPath id="clip0_6056_1000">
<rect width="200" height="200" fill="white"/>
</clipPath>
</defs>
</svg>
