<svg id="Layer_1" data-name="Layer 1" xmlns="http://www.w3.org/2000/svg" viewBox="0 0 24.05 24.1"><title>Trade History</title><path d="M23.6,21.4,18,15.8V3.5A1.54,1.54,0,0,0,16.5,2H6.5A2.67,2.67,0,0,0,4,0,2.47,2.47,0,0,0,1.6,2H1.5A1.54,1.54,0,0,0,0,3.5v19A1.54,1.54,0,0,0,1.5,24h15A1.54,1.54,0,0,0,18,22.5V20.2l3.4,3.4a1.46,1.46,0,0,0,2.2,0A1.57,1.57,0,0,0,23.6,21.4ZM4,1A1.41,1.41,0,0,1,5.4,2H2.6A1.41,1.41,0,0,1,4,1ZM17,22.5a.47.47,0,0,1-.5.5H1.5a.47.47,0,0,1-.5-.5V3.5A.47.47,0,0,1,1.5,3h4V8.5A.47.47,0,0,1,5,9a.47.47,0,0,1-.5-.5V4h-1V8.5A1.54,1.54,0,0,0,5,10,1.54,1.54,0,0,0,6.5,8.5V3h10a.47.47,0,0,1,.5.5V14.8l-1.5-1.5V4.5A.47.47,0,0,0,15,4H7.5V5h7v7.4L11.7,11a.45.45,0,0,0-.5,0h-.1L9.7,12.1,9,9.4a.35.35,0,0,0-.1-.2.48.48,0,0,0-.7,0L6.9,10.6H3a.47.47,0,0,0-.5.5V21.6A.46.46,0,0,0,3,22H15a.47.47,0,0,0,.5-.5V17.7L17,19.2Zm-3.9-8.9-.5-1,1,.5Zm1.4,3.1V21H3.5V11.5H7c.1,0,.3-.1.4-.1l.9-.9L9,13.1c0,.1,0,.1.1.2a.49.49,0,0,0,.7.1l1.5-1.1,1.2,2.4h0l.1.1Zm-.8-2.3.8-.8,6.6,6.6-.8.8Zm9.1,8.4a.6.6,0,0,1-.8,0l-1-1.1.8-.8L22.9,22A.52.52,0,0,1,22.8,22.8Z" fill="#fd7636"/></svg>