<svg width="139" height="150" viewBox="0 0 139 150" fill="none" xmlns="http://www.w3.org/2000/svg">
<g clip-path="url(#clip0_6056_1017)">
<path d="M8.40002 71.5004C8.40002 57.3004 8.40002 43.0004 8.40002 28.8004C8.40002 18.9004 14.8 10.7004 24.2 8.50046C25.8 8.10046 27.5 8.00046 29.1 8.00046C50.7 8.00046 72.2 8.10046 93.8 7.90046C103.6 7.80046 112.3 14.9004 114.1 24.8004C114.3 25.9004 114.5 27.1004 114.5 28.2004C114.5 40.3004 114.5 52.5004 114.5 64.6004C114.5 67.7004 112.3 69.9004 109.5 69.8004C107.1 69.7004 105.2 67.8004 105.1 65.3004C105.1 64.8004 105.1 64.2004 105.1 63.7004C105.1 52.3004 105.1 40.9004 105.1 29.5004C105.1 26.5004 104.4 23.8004 102.5 21.6004C100.2 19.0004 97.4 17.7004 94 17.7004C76.6 17.7004 59.1 17.7004 41.7 17.7004C37.7 17.7004 33.7 17.9004 29.8 17.7004C23.5 17.4004 18 22.2004 18 29.8004C18.1 52.4004 18 75.1004 18 97.7004C18 103.2 18 108.8 18 114.3C18 119.1 20.7 123.1 24.9 124.7C26.2 125.2 27.8 125.4 29.2 125.4C38.9 125.5 48.7 125.4 58.4 125.4C59.2 125.4 60 125.4 60.8 125.7C62.9 126.3 64.4 128.5 64.2 130.7C64 133.1 62.2 135 59.9 135.1C59.6 135.1 59.3 135.1 59 135.1C49 135.1 39 135 29 135.1C20 135.2 12.1 129.2 9.50002 120.7C8.80003 118.6 8.50002 116.4 8.50002 114.1C8.40002 99.9004 8.40002 85.7004 8.40002 71.5004Z" fill="#FFC760"/>
<path d="M130.601 108C130.601 126.8 115.701 142.1 97.2015 142.1C78.7015 142.1 63.7015 126.8 63.8015 108C63.8015 88.7005 79.4015 74.0005 97.2015 74.0005C115.601 73.9005 130.701 89.3005 130.601 108ZM71.8015 108C71.9015 122.4 83.1015 133.9 97.3015 134C111.501 134.1 122.901 122.3 122.801 107.7C122.701 93.4005 111.201 82.0005 96.9015 82.1005C83.1015 82.1005 71.7015 94.0005 71.8015 108Z" fill="#FFC760"/>
<path d="M59.8011 71.6004C51.9011 71.6004 43.9011 71.6004 36.001 71.6004C35.3011 71.6004 34.601 71.6004 33.901 71.4004C31.701 70.9004 30.201 68.9004 30.201 66.7004C30.201 64.4004 31.901 62.4004 34.101 62.0004C34.701 61.9004 35.3011 61.9004 36.001 61.9004C51.901 61.9004 67.801 61.9004 83.801 61.9004C84.501 61.9004 85.101 61.9004 85.801 62.1004C88.001 62.5004 89.6011 64.5004 89.6011 66.7004C89.6011 68.9004 88.101 70.9004 86.001 71.4004C85.301 71.6004 84.501 71.6004 83.701 71.6004C75.701 71.6004 67.8011 71.6004 59.8011 71.6004Z" fill="#FFC760"/>
<path d="M59.8993 36.5004C67.7993 36.5004 75.7992 36.5004 83.6992 36.5004C84.4992 36.5004 85.1993 36.5004 85.9993 36.7004C88.0993 37.2004 89.5993 39.3004 89.5993 41.4004C89.5993 43.6004 87.9993 45.6004 85.7993 46.0004C85.1993 46.1004 84.5993 46.2004 83.8993 46.2004C67.8993 46.2004 51.8993 46.2004 35.8994 46.2004C35.2994 46.2004 34.5994 46.2004 33.9994 46.0004C31.7994 45.6004 30.1994 43.6004 30.1994 41.4004C30.0994 39.2004 31.6994 37.1004 33.8994 36.6004C34.5994 36.5004 35.2994 36.4004 35.9994 36.4004C43.8993 36.5004 51.8993 36.5004 59.8993 36.5004Z" fill="#FFC760"/>
<path d="M44.2012 97.0002C41.2012 97.0002 38.2013 97.0002 35.2013 97.0002C32.5013 97.0002 30.6013 95.4002 30.2013 92.8002C29.8013 90.3002 31.5013 87.8002 34.0013 87.4002C34.7013 87.3002 35.4013 87.3002 36.1013 87.2002C41.5012 87.2002 47.0012 87.2002 52.4012 87.2002C53.0012 87.2002 53.6012 87.2002 54.1012 87.3002C56.4012 87.6002 58.1012 89.4002 58.2012 91.8002C58.3012 94.3002 56.9012 96.2002 54.5012 96.8002C54.1012 97.0002 53.4012 97.0002 52.8012 97.0002C50.0012 97.0002 47.1012 97.0002 44.2012 97.0002Z" fill="#FFC760"/>
<path d="M93.2004 108C91.2004 105.9 89.2004 103.8 87.3004 101.8C86.8004 101.3 86.3004 100.8 85.8004 100.2C84.3004 98.5004 84.3004 96.1004 85.9004 94.6004C87.5004 93.0004 89.8004 93.0004 91.4004 94.6004C93.5004 96.7004 95.6004 98.9004 97.7004 101.1C98.0004 101.5 98.3004 101.9 98.4004 102.1C100.6 99.9004 102.7 98.0004 104.7 96.0004C105.2 95.5004 105.6 95.0004 106.1 94.6004C107.7 93.1004 110 93.2004 111.5 94.7004C113 96.2004 113.2 98.6004 111.7 100.2C110.1 102.1 108.3 103.8 106.6 105.6C105.8 106.4 105.1 107.2 104.2 108.1C106.4 110.4 108.6 112.6 110.7 114.9C111.1 115.3 111.5 115.7 111.8 116.1C113.1 117.8 113 120.1 111.5 121.5C110 123 107.7 123 106.2 121.6C105 120.5 103.9 119.3 102.8 118.1C101.4 116.7 100 115.4 98.6004 114C98.3004 114.3 98.0004 114.6 97.6004 115C95.6004 117.1 93.6004 119.1 91.6004 121.2C90.7004 122.1 89.6004 122.6 88.4004 122.6C86.9004 122.5 85.8004 121.8 85.1004 120.4C84.4004 119 84.5004 117.6 85.4004 116.3C85.8004 115.7 86.4004 115.1 86.9004 114.6C89.1004 112.4 91.1004 110.2 93.2004 108Z" fill="#FFC760"/>
</g>
<defs>
<clipPath id="clip0_6056_1017">
<rect width="139" height="150" fill="white"/>
</clipPath>
</defs>
</svg>
